<svg width="38" height="38" viewBox="0 0 38 38" fill="none" xmlns="http://www.w3.org/2000/svg">
<path d="M22.8475 29.7978C23.1483 29.7978 23.4491 29.687 23.6866 29.4495L33.2975 19.8386C33.7566 19.3795 33.7566 18.6195 33.2975 18.1603L23.6866 8.54945C23.2275 8.09029 22.4675 8.09029 22.0083 8.54945C21.5491 9.00862 21.5491 9.76862 22.0083 10.2278L30.78 18.9995L22.0083 27.7711C21.5491 28.2303 21.5491 28.9903 22.0083 29.4495C22.23 29.687 22.5466 29.7978 22.8475 29.7978Z" fill="#be8d28"/>
<path d="M5.54165 20.1875H32.1891C32.8383 20.1875 33.3766 19.6492 33.3766 19C33.3766 18.3508 32.8383 17.8125 32.1891 17.8125H5.54165C4.89248 17.8125 4.35415 18.3508 4.35415 19C4.35415 19.6492 4.89248 20.1875 5.54165 20.1875Z" fill="#be8d28"/>
</svg>
