<svg width="20" height="20" viewBox="0 0 20 20" fill="none" xmlns="http://www.w3.org/2000/svg">
<path d="M15.7918 12.3893C15.3823 11.9629 14.8884 11.735 14.365 11.735C13.8458 11.735 13.3477 11.9587 12.9214 12.3851L11.5875 13.7147C11.4778 13.6556 11.368 13.6007 11.2625 13.5459C11.1105 13.4699 10.967 13.3981 10.8446 13.3222C9.59513 12.5286 8.45964 11.4944 7.37059 10.1563C6.84295 9.48936 6.48837 8.92795 6.23088 8.3581C6.57702 8.04151 6.89782 7.71226 7.21019 7.39568C7.32838 7.27749 7.44657 7.15507 7.56476 7.03688C8.4512 6.15044 8.4512 5.00229 7.56476 4.11585L6.41239 2.96348C6.28154 2.83263 6.14646 2.69755 6.01983 2.56248C5.76656 2.30077 5.50063 2.03061 5.22625 1.77734C4.8168 1.37211 4.32715 1.15684 3.81217 1.15684C3.29719 1.15684 2.7991 1.37211 2.37699 1.77734L2.36854 1.78579L0.933356 3.23364C0.393051 3.77394 0.0849076 4.43244 0.0173694 5.19647C-0.0839379 6.42904 0.27908 7.57719 0.557675 8.32855C1.2415 10.1732 2.26301 11.8827 3.78684 13.7147C5.6357 15.9224 7.86024 17.6657 10.4014 18.8941C11.3722 19.3542 12.6681 19.8987 14.116 19.9915C14.2046 19.9958 14.2975 20 14.3819 20C15.357 20 16.1759 19.6496 16.8175 18.9532C16.8217 18.9447 16.8302 18.9405 16.8344 18.932C17.0539 18.6661 17.3071 18.4255 17.5731 18.168C17.7546 17.995 17.9403 17.8134 18.1218 17.6235C18.5397 17.1887 18.7592 16.6822 18.7592 16.163C18.7592 15.6396 18.5355 15.1372 18.1092 14.7151L15.7918 12.3893ZM17.3029 16.8341C17.2987 16.8384 17.2987 16.8341 17.3029 16.8341C17.1383 17.0114 16.9695 17.1718 16.7879 17.3491C16.5136 17.6108 16.235 17.8852 15.9733 18.1933C15.5469 18.6492 15.0446 18.8645 14.3861 18.8645C14.3228 18.8645 14.2553 18.8645 14.1919 18.8603C12.9383 18.7801 11.7732 18.2904 10.8995 17.8725C8.5103 16.7159 6.41239 15.0739 4.66906 12.9929C3.22965 11.258 2.26724 9.65399 1.62984 7.93176C1.23728 6.8807 1.09376 6.0618 1.15708 5.28933C1.19929 4.79546 1.38924 4.38601 1.73959 4.03565L3.179 2.59624C3.38584 2.40207 3.60534 2.29654 3.82061 2.29654C4.08655 2.29654 4.30182 2.45695 4.4369 2.59202L4.44956 2.60469C4.70705 2.84529 4.95188 3.09434 5.20937 3.36027C5.34022 3.49535 5.4753 3.63042 5.61038 3.76972L6.76275 4.92209C7.21019 5.36953 7.21019 5.7832 6.76275 6.23064C6.64033 6.35306 6.52214 6.47547 6.39973 6.59366C6.04515 6.95668 5.70746 7.29437 5.34022 7.62362C5.33178 7.63206 5.32334 7.63628 5.31912 7.64472C4.9561 8.00774 5.02364 8.36232 5.09962 8.60292L5.11228 8.64091C5.41198 9.36695 5.8341 10.0508 6.47571 10.8655L6.47993 10.8697C7.64496 12.3049 8.87332 13.4235 10.2283 14.2804C10.4014 14.3901 10.5787 14.4787 10.7475 14.5632C10.8995 14.6391 11.043 14.7109 11.1654 14.7869C11.1823 14.7953 11.1992 14.808 11.216 14.8164C11.3596 14.8882 11.4946 14.922 11.6339 14.922C11.9843 14.922 12.2038 14.7025 12.2756 14.6307L13.7192 13.1871C13.8627 13.0436 14.0906 12.8705 14.3566 12.8705C14.6183 12.8705 14.8336 13.0351 14.9644 13.1786L14.9729 13.1871L17.2987 15.5129C17.7335 15.9435 17.7335 16.3867 17.3029 16.8341ZM10.7939 4.75747C11.8999 4.9432 12.9045 5.46662 13.7065 6.26863C14.5085 7.07065 15.0277 8.07528 15.2177 9.18122C15.2641 9.45981 15.5047 9.65399 15.7791 9.65399C15.8129 9.65399 15.8424 9.64976 15.8762 9.64554C16.1885 9.59489 16.3954 9.29941 16.3447 8.98705C16.1168 7.64895 15.4836 6.42904 14.517 5.4624C13.5503 4.49576 12.3304 3.86259 10.9923 3.63464C10.68 3.58399 10.3887 3.79083 10.3338 4.09897C10.279 4.40711 10.4816 4.70681 10.7939 4.75747ZM19.9622 8.82242C19.5866 6.61899 18.5482 4.61395 16.9526 3.01836C15.357 1.42277 13.3519 0.384369 11.1485 0.00868772C10.8404 -0.0461871 10.5491 0.16487 10.4942 0.473013C10.4436 0.785377 10.6504 1.07664 10.9628 1.13151C12.9298 1.46498 14.7238 2.39785 16.1506 3.82037C17.5773 5.24712 18.506 7.0411 18.8394 9.00815C18.8859 9.28675 19.1265 9.48092 19.4008 9.48092C19.4346 9.48092 19.4641 9.4767 19.4979 9.47248C19.8061 9.42604 20.0171 9.13056 19.9622 8.82242Z" fill="#be8d28"/>
</svg>
