<svg width="22" height="22" viewBox="0 0 22 22" fill="none" xmlns="http://www.w3.org/2000/svg">
<path d="M20.3965 4.73524H14.573L13.3971 2.75973C13.2821 2.56658 13.0739 2.44824 12.8492 2.44824H9.1507C8.92591 2.44824 8.71773 2.56658 8.60276 2.75973L7.42683 4.73524H5.51589V4.29983C5.51589 3.94768 5.23039 3.66218 4.87825 3.66218H2.51887C2.16665 3.66218 1.88123 3.94768 1.88123 4.29983V4.73524H1.60346C0.717827 4.73524 0 5.45314 0 6.33863V17.948C0 18.8336 0.717827 19.5515 1.60339 19.5515H20.3965C21.282 19.5515 21.9999 18.8336 21.9999 17.948V6.33863C22 5.45314 21.282 4.73524 20.3965 4.73524ZM10.9999 16.7074C8.47926 16.7074 6.43589 14.664 6.43589 12.1432C6.43589 9.62265 8.47926 7.5792 10.9999 7.5792C13.5206 7.5792 15.564 9.62265 15.564 12.1432C15.564 14.664 13.5206 16.7074 10.9999 16.7074ZM19.3961 8.04095H17.398C17.0459 8.04095 16.7604 7.75545 16.7604 7.40323C16.7604 7.05101 17.0459 6.76551 17.398 6.76551H19.3961C19.7484 6.76551 20.0338 7.05101 20.0338 7.40323C20.0338 7.75545 19.7483 8.04095 19.3961 8.04095Z" fill="white"/>
<path d="M11 15.332C12.7609 15.332 14.1884 13.9045 14.1884 12.1435C14.1884 10.3826 12.7609 8.95508 11 8.95508C9.23904 8.95508 7.81152 10.3826 7.81152 12.1435C7.81152 13.9045 9.23904 15.332 11 15.332Z" fill="white"/>
</svg>
