<svg width="38" height="38" viewBox="0 0 38 38" fill="none" xmlns="http://www.w3.org/2000/svg">
<path d="M11.1932 24.4478C11.1932 23.8168 10.7553 23.4404 9.98272 23.4404C9.66723 23.4404 9.45356 23.4716 9.3418 23.5014V25.5261C9.47413 25.5559 9.6368 25.5658 9.86103 25.5658C10.6846 25.5658 11.1932 25.1498 11.1932 24.4478ZM15.9762 23.4616C15.6302 23.4616 15.4066 23.4915 15.2743 23.5225V28.0068C15.4066 28.0378 15.6203 28.0378 15.8135 28.0378C17.2171 28.0477 18.1325 27.2751 18.1325 25.638C18.1425 24.2143 17.3083 23.4616 15.9762 23.4616Z" fill="white"/>
<path d="M24.8628 0H9.60042C7.37074 0 5.55601 1.81598 5.55601 4.04441V18.9999H5.16099C4.26108 18.9999 3.53125 19.729 3.53125 20.6297V30.5135C3.53125 31.4141 4.261 32.1432 5.16099 32.1432H5.55601V33.9555C5.55601 36.1864 7.37074 37.9999 9.60042 37.9999H30.4252C32.6535 37.9999 34.4685 36.1863 34.4685 33.9555V9.57204L24.8628 0ZM7.80674 22.4134C8.28436 22.3327 8.95571 22.2719 9.90157 22.2719C10.8574 22.2719 11.5387 22.4543 11.9965 22.8208C12.4338 23.1662 12.7288 23.7362 12.7288 24.4071C12.7288 25.0778 12.5052 25.6481 12.0984 26.0343C11.5692 26.5325 10.7867 26.7561 9.87123 26.7561C9.66749 26.7561 9.48488 26.746 9.34206 26.7262V29.177H7.80674V22.4134ZM30.4252 35.5231H9.60042C8.73708 35.5231 8.03405 34.82 8.03405 33.9555V32.1432H27.447C28.3471 32.1432 29.0769 31.4141 29.0769 30.5135V20.6297C29.0769 19.729 28.3471 18.9999 27.447 18.9999H8.03405V4.04441C8.03405 3.18232 8.73716 2.47929 9.60042 2.47929L23.9361 2.46432V7.76331C23.9361 9.31108 25.192 10.5681 26.7409 10.5681L31.9319 10.5532L31.9903 33.9554C31.9903 34.82 31.2885 35.5231 30.4252 35.5231ZM13.7188 29.146V22.4134C14.2883 22.3228 15.0305 22.2719 15.8137 22.2719C17.1155 22.2719 17.9596 22.5054 18.621 23.0034C19.3328 23.5326 19.7799 24.3761 19.7799 25.5871C19.7799 26.8988 19.3023 27.8044 18.6408 28.3633C17.9191 28.9632 16.8205 29.2477 15.4783 29.2477C14.6745 29.2477 14.1051 29.1968 13.7188 29.146ZM24.8182 25.1599V26.4206H22.3568V29.177H20.8009V22.3228H24.9908V23.5934H22.3568V25.1599H24.8182Z" fill="white"/>
</svg>
