<svg width="22" height="22" viewBox="0 0 22 22" fill="none" xmlns="http://www.w3.org/2000/svg">
<path d="M6.64805 5.81172H13.0026C13.3443 5.81172 13.6214 5.53466 13.6214 5.19297C13.6214 4.85128 13.3443 4.57422 13.0026 4.57422H6.64805C6.30636 4.57422 6.0293 4.85128 6.0293 5.19297C6.0293 5.53466 6.30636 5.81172 6.64805 5.81172Z" fill="white"/>
<path d="M6.64805 9.17598H9.50461C9.8463 9.17598 10.1234 8.89891 10.1234 8.55723C10.1234 8.21554 9.8463 7.93848 9.50461 7.93848H6.64805C6.30636 7.93848 6.0293 8.21554 6.0293 8.55723C6.0293 8.89891 6.30636 9.17598 6.64805 9.17598Z" fill="white"/>
<path d="M16.6444 0.755859H5.35565C3.7029 0.755859 2.35815 2.10061 2.35815 3.75336V16.3002C2.35815 17.953 3.7029 19.2977 5.35565 19.2977H8.49065C8.83234 19.2977 9.1094 19.0207 9.1094 18.679C9.1094 18.3373 8.83234 18.0602 8.49065 18.0602H5.35565C4.38559 18.0602 3.59565 17.271 3.59565 16.3002V3.75336C3.59565 2.78261 4.3849 1.99336 5.35565 1.99336H16.6444C17.6145 1.99336 18.4044 2.78261 18.4044 3.75336V16.3002C18.4044 17.0613 17.919 17.7316 17.1951 17.9674C16.8699 18.0733 16.6932 18.4225 16.7991 18.7477C16.905 19.0729 17.2542 19.2489 17.5794 19.1437C18.8135 18.7415 19.6426 17.5982 19.6426 16.3002V3.75336C19.6419 2.10061 18.2972 0.755859 16.6444 0.755859Z" fill="white"/>
<path d="M12.9395 11.4648C11.1177 11.4648 9.63403 12.9471 9.63403 14.7697C9.63403 15.6888 10.0128 16.52 10.6206 17.1195V20.6244C10.6206 20.852 10.7457 21.061 10.9458 21.1689C11.1465 21.2775 11.3899 21.2665 11.5797 21.1414L12.9402 20.249L14.3008 21.1414C14.4032 21.2088 14.5215 21.2425 14.6404 21.2425C14.7408 21.2425 14.8425 21.2177 14.9347 21.1682C15.1347 21.0603 15.2598 20.8513 15.2598 20.6237V17.1182C15.8669 16.5187 16.2457 15.6875 16.2457 14.7683C16.2443 12.9471 14.7621 11.4648 12.9395 11.4648ZM12.9395 12.7023C14.0787 12.7023 15.0062 13.6298 15.0062 14.7697C15.0062 15.9095 14.0787 16.837 12.9395 16.837C11.7997 16.837 10.8722 15.9095 10.8722 14.7697C10.8722 13.6298 11.7997 12.7023 12.9395 12.7023ZM14.021 19.4783L13.2798 18.9916C13.0729 18.8568 12.8068 18.8568 12.6006 18.9916L11.8595 19.4783V17.8778C12.1998 17.9968 12.56 18.0745 12.9402 18.0745C13.3211 18.0745 13.6807 17.9968 14.021 17.8778V19.4783Z" fill="white"/>
</svg>
