<svg width="20" height="20" viewBox="0 0 20 20" fill="none" xmlns="http://www.w3.org/2000/svg">
<path d="M2.07889 8.90398C1.68524 8.90509 1.29996 9.01762 0.967604 9.22856C0.635248 9.43949 0.369406 9.74022 0.200833 10.0959C0.0322592 10.4517 -0.0321563 10.8478 0.0150386 11.2386C0.0622334 11.6295 0.21911 11.9989 0.467518 12.3043L5.76301 18.7912C5.95182 19.0257 6.19384 19.2117 6.46898 19.3338C6.74411 19.4559 7.04442 19.5107 7.34494 19.4934C7.9877 19.4589 8.568 19.1151 8.93798 18.5497L19.9381 0.834119C19.9399 0.831159 19.9417 0.828234 19.9437 0.825347C20.0469 0.666872 20.0134 0.352819 19.8004 0.155526C19.7419 0.101347 19.6729 0.0597228 19.5976 0.0332162C19.5224 0.00670957 19.4426 -0.004118 19.363 0.00140054C19.2835 0.00691909 19.2059 0.0286669 19.135 0.0653044C19.0642 0.101942 19.0016 0.152693 18.9511 0.214433C18.9472 0.219287 18.9431 0.224068 18.9389 0.228776L7.84519 12.763C7.80298 12.8107 7.75171 12.8496 7.69436 12.8773C7.63701 12.905 7.57473 12.921 7.51113 12.9245C7.44753 12.9279 7.38388 12.9187 7.32387 12.8973C7.26387 12.8759 7.20871 12.8429 7.1616 12.8L3.4798 9.44954C3.09741 9.09901 2.59763 8.90438 2.07889 8.90398Z" fill="#BE8D28"/>
</svg>
