<svg width="100" height="100" viewBox="0 0 100 100" fill="none" xmlns="http://www.w3.org/2000/svg">
<path d="M90.2399 79.82L87.6699 72.41C87.8799 71.12 88.1899 67.68 86.3699 64.53L76.0699 46.69C74.7199 44.35 71.6599 43.58 69.2399 44.98C68.5399 45.38 67.9999 45.94 67.6099 46.58C66.0799 45.58 64.0299 45.47 62.2999 46.47C61.6599 46.84 61.1199 47.33 60.7099 47.89C60.1899 47.5 59.5899 47.22 58.9399 47.06C58.3999 46.93 57.8399 46.9 57.2999 46.94L69.7299 32.86C69.7699 32.82 69.7999 32.77 69.8399 32.72C69.8499 32.7 69.8599 32.69 69.8699 32.67C69.9199 32.59 69.9699 32.51 70.0099 32.42C70.0199 32.39 70.0299 32.37 70.0399 32.34C70.0699 32.27 70.0899 32.2 70.0999 32.13C70.1099 32.1 70.1099 32.07 70.1199 32.04C70.1399 31.94 70.1499 31.84 70.1499 31.74C70.1499 31.74 70.1499 31.74 70.1499 31.73V21.9C70.1499 21.88 70.1499 21.86 70.1399 21.85C70.1399 21.77 70.1299 21.7 70.1199 21.62C70.1099 21.59 70.1099 21.56 70.0999 21.53C70.0799 21.44 70.0499 21.35 70.0199 21.27C70.0199 21.26 70.0099 21.25 70.0099 21.24C69.9699 21.15 69.9299 21.07 69.8799 20.99C69.8599 20.96 69.8399 20.94 69.8199 20.91C69.7799 20.86 69.7399 20.81 69.6899 20.76C69.6699 20.73 69.6399 20.71 69.6099 20.68C69.5899 20.66 69.5799 20.65 69.5599 20.63L57.3699 10.07C57.2999 10.01 57.2199 9.95998 57.1399 9.91998C57.1099 9.89998 57.0899 9.87998 57.0599 9.86998C56.9399 9.80998 56.8199 9.75998 56.6899 9.72998C56.6599 9.71998 56.6199 9.71998 56.5899 9.70998C56.4899 9.68998 56.3999 9.67998 56.2999 9.66998C56.2899 9.66998 56.2799 9.66998 56.2699 9.66998H39.9199H39.9099H23.5599C23.5499 9.66998 23.5399 9.66998 23.5299 9.66998C23.4299 9.66998 23.3399 9.68998 23.2399 9.70998C23.1999 9.71998 23.1599 9.71998 23.1299 9.72998C22.9999 9.75998 22.8799 9.80998 22.7699 9.86998C22.7299 9.88998 22.6899 9.92998 22.6499 9.94998C22.5899 9.98998 22.5199 10.03 22.4699 10.07L10.2499 20.62C10.2299 20.64 10.2199 20.65 10.1999 20.67C10.1699 20.69 10.1499 20.72 10.1199 20.75C10.0699 20.8 10.0299 20.85 9.98992 20.9C9.96992 20.93 9.94992 20.95 9.92992 20.98C9.87992 21.06 9.82992 21.14 9.79992 21.23C9.79992 21.24 9.78992 21.25 9.78992 21.27C9.75992 21.35 9.72992 21.44 9.70992 21.53C9.69992 21.55 9.69992 21.58 9.69992 21.61C9.68992 21.68 9.67992 21.76 9.67992 21.84C9.67992 21.86 9.66992 21.88 9.66992 21.89V31.74V31.75C9.66992 31.85 9.67992 31.95 9.69992 32.05C9.70992 32.08 9.70992 32.11 9.71992 32.14C9.73992 32.21 9.75992 32.28 9.78992 32.35C9.79992 32.38 9.80992 32.4 9.81992 32.43C9.85992 32.52 9.89992 32.6 9.95992 32.68C9.96992 32.7 9.97992 32.71 9.98992 32.73C10.0199 32.78 10.0599 32.82 10.0999 32.87L38.6599 65.2C38.6699 65.21 38.6899 65.22 38.6999 65.24C38.7199 65.27 38.7499 65.29 38.7699 65.31C38.7799 65.32 38.7999 65.34 38.8099 65.35C38.8299 65.37 38.8599 65.39 38.8899 65.41C38.9199 65.43 38.9499 65.45 38.9799 65.48C39.0099 65.5 39.0399 65.53 39.0699 65.54C39.0799 65.55 39.0999 65.55 39.1199 65.56C39.1399 65.57 39.1699 65.58 39.1899 65.6C39.2599 65.63 39.3299 65.66 39.3999 65.68C39.4399 65.69 39.4799 65.71 39.5199 65.72C39.5399 65.72 39.5499 65.73 39.5699 65.73C39.6799 65.75 39.7899 65.76 39.8999 65.76C39.9199 65.76 39.9399 65.76 39.9499 65.75C40.0499 65.75 40.1499 65.74 40.2399 65.72C40.2599 65.72 40.2699 65.71 40.2799 65.71C40.3199 65.7 40.3599 65.68 40.3999 65.67C40.4599 65.65 40.5199 65.64 40.5699 65.61C40.5999 65.6 40.6299 65.58 40.6599 65.56C40.6799 65.55 40.6999 65.55 40.7199 65.53C40.7499 65.51 40.7799 65.49 40.8099 65.47C40.8299 65.46 40.8499 65.45 40.8699 65.43C40.8799 65.42 40.8899 65.41 40.8999 65.4C40.9699 65.35 41.0299 65.29 41.0899 65.23C41.0999 65.22 41.1199 65.21 41.1299 65.19L47.4899 57.99L50.9199 63.92C50.0199 64.1 49.1799 64.52 48.4699 65.17C46.7499 66.74 46.3899 69.4 47.5999 71.5L53.0899 81.01C54.6199 83.65 57.3899 85.19 60.4799 85.21L64.8099 85.75L67.7399 89.65C68.0699 90.09 68.5699 90.32 69.0799 90.32C69.4299 90.32 69.7899 90.21 70.0899 89.98C70.7199 89.51 70.9199 88.68 70.6199 87.98C70.5699 87.86 70.4999 87.74 70.4199 87.62L67.0599 83.15C66.7899 82.79 66.3799 82.55 65.9299 82.49L60.7699 81.85C60.6799 81.84 60.5999 81.83 60.5099 81.84C58.6199 81.89 56.9199 80.93 55.9899 79.32L50.4999 69.81C50.0799 69.08 50.1799 68.15 50.7299 67.65C51.1899 67.23 51.6699 67.17 51.9999 67.19C52.4599 67.22 52.8899 67.44 53.1799 67.79C53.2199 67.84 53.2599 67.87 53.2999 67.91C53.3199 67.95 53.3299 67.99 53.3499 68.02L56.7099 73.84C57.0199 74.38 57.5899 74.68 58.1699 74.68C58.4499 74.68 58.7399 74.61 59.0099 74.46C59.8099 74 60.0899 72.97 59.6299 72.16L56.2699 66.34C56.1899 66.2 56.0899 66.09 55.9799 65.98C55.9599 65.94 55.9499 65.9 55.9299 65.87L49.8399 55.33L48.9999 53.81L48.1099 52.27L46.5099 49.5L45.3799 47.55L44.2599 45.6L42.9999 43.41C42.7999 43.07 42.7599 42.66 42.8799 42.26C43.0099 41.83 43.2999 41.47 43.6999 41.23C44.3699 40.84 45.1699 40.93 45.6699 41.39C45.7699 41.48 45.8699 41.59 45.9399 41.72L46.8199 43.25L47.9499 45.2L50.4899 49.59L51.3799 51.13L52.2699 52.67L53.2599 54.39C53.2899 54.43 53.3199 54.47 53.3499 54.51L57.6199 61.76C57.9299 62.29 58.4899 62.59 59.0699 62.59C59.3599 62.59 59.6499 62.52 59.9199 62.36C60.7199 61.89 60.9899 60.86 60.5199 60.06L56.1299 52.61C55.7899 51.89 56.0999 50.98 56.8699 50.53C57.2699 50.3 57.7399 50.22 58.1699 50.33C58.5799 50.43 58.9099 50.67 59.1099 51.01L60.0399 52.62L60.0499 52.63L60.3999 53.23C60.4099 53.25 60.4299 53.27 60.4399 53.29L63.4399 58.39C63.7499 58.92 64.3099 59.22 64.8899 59.22C65.1799 59.22 65.4699 59.15 65.7399 58.99C66.5399 58.52 66.8099 57.49 66.3399 56.69L63.2899 51.51C62.8999 50.78 63.2199 49.83 64.0099 49.38C64.8199 48.91 65.8199 49.13 66.2599 49.88L67.5799 52.11L70.0999 56.48C70.4099 57.02 70.9799 57.32 71.5599 57.32C71.8399 57.32 72.1299 57.25 72.3999 57.1C73.1999 56.64 73.4799 55.61 73.0199 54.8L70.4999 50.43C70.0599 49.66 70.1799 48.34 70.9599 47.9C71.7699 47.43 72.7699 47.65 73.1999 48.38L83.4999 66.21C85.0699 68.92 84.3499 72.12 84.3399 72.15C84.2599 72.46 84.2799 72.79 84.3899 73.09L87.0999 80.92C87.1099 80.96 87.1299 80.99 87.1499 81.02C87.4899 81.83 88.3999 82.24 89.2399 81.95C90.0799 81.66 90.5399 80.7 90.2399 79.82ZM42.0199 38.32C40.8599 38.99 40.0199 40.05 39.6499 41.31C39.2699 42.6 39.4299 43.94 40.0899 45.09L42.8499 49.88L39.9099 58.74L31.5199 33.42H48.2999L46.7499 38.1C45.3099 37.43 43.5399 37.45 42.0199 38.32ZM45.7699 54.93L44.0999 56.82L45.1099 53.78L45.7699 54.93ZM15.0699 33.43H27.9899L29.6099 38.32L35.7399 56.82L15.0699 33.43ZM35.8099 13.03L29.6199 19.12L26.3599 13.03H35.8099ZM53.4699 13.03L50.2099 19.12L44.0199 13.03H53.4699ZM13.0299 23.58H27.5299V30.07H13.0299V23.58ZM30.8799 23.58H48.9499V30.07H30.8799V23.58ZM66.8099 30.07H52.3099V23.58H66.7999V30.07H66.8099ZM33.3099 20.21L39.9199 13.7L46.5299 20.21H33.3099ZM54.2399 20.21H53.4299L56.7599 13.99L56.8999 14.11L63.9699 20.21H54.2399ZM23.0199 14.04L23.0699 13.99L26.3999 20.21H26.0799H15.8699L23.0199 14.04ZM51.8399 33.43H64.7599L52.8299 46.93L49.3599 40.92L51.8399 33.43Z" fill="#04AFFF"/>
</svg>
