<svg width="32" height="32" viewBox="0 0 32 32" fill="none" xmlns="http://www.w3.org/2000/svg">
<path d="M24 13.5C20.9678 13.5 18.5 15.9673 18.5 19C18.5 22.0322 20.9678 24.5 24 24.5C25.3365 24.5 26.5626 24.0197 27.5167 23.2238L28.6465 24.3535C28.7441 24.4512 28.8721 24.5 29 24.5C29.1279 24.5 29.2559 24.4512 29.3535 24.3535C29.5488 24.1582 29.5488 23.8418 29.3535 23.6465L28.2238 22.5167C29.0197 21.5626 29.5 20.3365 29.5 19C29.5 15.9673 27.0322 13.5 24 13.5ZM19.5 19C19.5 16.5186 21.5186 14.5 24 14.5C26.4814 14.5 28.5 16.5186 28.5 19C28.5 21.4814 26.4814 23.5 24 23.5C21.5186 23.5 19.5 21.4814 19.5 19Z" fill="url(#paint0_linear_1962_20147)"/>
<path d="M27.5 19C27.5 17.0703 25.9297 15.5 24 15.5C23.7236 15.5 23.5 15.7236 23.5 16C23.5 16.2764 23.7236 16.5 24 16.5C25.3789 16.5 26.5 17.6211 26.5 19C26.5 19.2764 26.7236 19.5 27 19.5C27.2764 19.5 27.5 19.2764 27.5 19Z" fill="url(#paint1_linear_1962_20147)"/>
<path d="M30.3535 11.6465L24.3535 5.64648C24.2598 5.55273 24.1328 5.5 24 5.5H8C7.86719 5.5 7.74023 5.55273 7.64648 5.64648L6.57666 6.71631C6.38135 6.91162 6.38135 7.22803 6.57666 7.42334C6.77197 7.61865 7.08838 7.61865 7.28369 7.42334L8.20703 6.5H11.1909L8.69092 11.5H3.20703L4.45361 10.2534C4.64893 10.0581 4.64893 9.7417 4.45361 9.54639C4.2583 9.35107 3.94189 9.35107 3.74658 9.54639L1.64648 11.6465C1.45117 11.8418 1.45117 12.1582 1.64648 12.3535L15.6465 26.3535C15.7441 26.4512 15.8721 26.5 16 26.5C16.1279 26.5 16.2559 26.4512 16.3535 26.3535L18.9336 23.7734C19.1289 23.5781 19.1289 23.2617 18.9336 23.0664C18.7383 22.8711 18.4219 22.8711 18.2266 23.0664L17.8315 23.4614L18.2866 22.5537C18.4106 22.3076 18.3105 22.0068 18.064 21.8828C17.8174 21.7588 17.5166 21.8584 17.3931 22.1064L16.5 23.887V12.5H28.793L28.0664 13.2266C27.8711 13.4219 27.8711 13.7383 28.0664 13.9336C28.1641 14.0312 28.292 14.0801 28.4199 14.0801C28.5479 14.0801 28.6758 14.0313 28.7734 13.9336L30.3535 12.3535C30.5488 12.1582 30.5488 11.8418 30.3535 11.6465ZM28.793 11.5H23.3091L20.8091 6.5H23.793L28.793 11.5ZM12.3091 6.5H15.5V11.5H9.80908L12.3091 6.5ZM8.69092 12.5L14.1748 23.4678L3.20703 12.5H8.69092ZM15.5 23.8818L9.80908 12.5H15.5V23.8818ZM16.5 6.5H19.6909L22.1909 11.5H16.5V6.5Z" fill="url(#paint2_linear_1962_20147)"/>
<path d="M5.5127 8.98498C5.78884 8.98498 6.0127 8.76113 6.0127 8.48498C6.0127 8.20884 5.78884 7.98499 5.5127 7.98499C5.23655 7.98499 5.0127 8.20884 5.0127 8.48498C5.0127 8.76113 5.23655 8.98498 5.5127 8.98498Z" fill="url(#paint3_linear_1962_20147)"/>
<defs>
<linearGradient id="paint0_linear_1962_20147" x1="18.5" y1="19.75" x2="29.5615" y2="19.6915" gradientUnits="userSpaceOnUse">
<stop stop-color="#be8d28"/>
<stop offset="1" stop-color="#be8d28"/>
</linearGradient>
<linearGradient id="paint1_linear_1962_20147" x1="23.5" y1="17.7727" x2="27.5223" y2="17.7515" gradientUnits="userSpaceOnUse">
<stop stop-color="#be8d28"/>
<stop offset="1" stop-color="#be8d28"/>
</linearGradient>
<linearGradient id="paint2_linear_1962_20147" x1="1.5" y1="17.4318" x2="30.6613" y2="17.219" gradientUnits="userSpaceOnUse">
<stop stop-color="#be8d28"/>
<stop offset="1" stop-color="#be8d28"/>
</linearGradient>
<linearGradient id="paint3_linear_1962_20147" x1="5.0127" y1="8.55317" x2="6.01828" y2="8.54785" gradientUnits="userSpaceOnUse">
<stop stop-color="#be8d28"/>
<stop offset="1" stop-color="#be8d28"/>
</linearGradient>
</defs>
</svg>
