<svg width="22" height="22" viewBox="0 0 22 22" fill="none" xmlns="http://www.w3.org/2000/svg">
<g clip-path="url(#clip0_1909_12852)">
<path d="M21.811 4.89586C21.5593 4.64415 21.1512 4.6442 20.8995 4.89586C20.5956 5.19983 20.2609 5.43972 19.9015 5.6302L16.3696 2.09834C16.5601 1.73891 16.8 1.40422 17.1039 1.10026C17.3556 0.848552 17.3556 0.440478 17.1039 0.188767C16.8522 -0.0629009 16.4441 -0.0629438 16.1924 0.188767C14.5168 1.86429 14.3703 4.11645 14.3575 6.35581C12.1182 6.36866 9.8661 6.51523 8.19058 8.19084C6.51501 9.86632 6.3684 12.1184 6.35555 14.3577C4.11619 14.3705 1.86403 14.5171 0.188507 16.1927C-0.0631611 16.4444 -0.0631611 16.8525 0.188507 17.1042C0.440218 17.3559 0.848292 17.3559 1.1 17.1042C1.40396 16.8002 1.7386 16.5603 2.09804 16.3699L5.6299 19.9017C5.43942 20.2611 5.19952 20.5958 4.89556 20.8998C4.64385 21.1515 4.64385 21.5596 4.89556 21.8113C5.14727 22.063 5.55535 22.063 5.80706 21.8113C7.48267 20.1358 7.62923 17.8836 7.64204 15.6442C9.88131 15.6314 12.1334 15.4848 13.8089 13.8092C15.4845 12.1337 15.6311 9.88166 15.6439 7.64234C17.8833 7.62954 20.1355 7.48297 21.811 5.80736C22.0627 5.55565 22.0627 5.14758 21.811 4.89586ZM18.5593 6.11102C17.6617 6.31211 16.673 6.34731 15.6465 6.35328C15.6525 5.32675 15.6877 4.33804 15.8888 3.44051L18.5593 6.11102ZM14.1127 10.5574L11.4424 7.88713C12.3399 7.68608 13.3285 7.65085 14.3549 7.64488C14.3489 8.67127 14.3138 9.6599 14.1127 10.5574ZM7.88692 11.4426L10.5572 14.1129C9.65968 14.3139 8.67105 14.3492 7.64466 14.3551C7.65063 13.3287 7.68582 12.3401 7.88692 11.4426ZM3.4403 15.889C4.33783 15.6879 5.32654 15.6527 6.35306 15.6467C6.34709 16.6733 6.3119 17.662 6.1108 18.5595L3.4403 15.889ZM11.8993 13.6321L8.36769 10.1005C8.55817 9.74098 8.79807 9.40629 9.10212 9.10233C9.40612 8.79833 9.7408 8.55843 10.1002 8.36791L13.6319 11.8996C13.4414 12.259 13.2015 12.5937 12.8975 12.8977C12.5935 13.2017 12.2588 13.4416 11.8993 13.6321Z" fill="white"/>
</g>
<defs>
<clipPath id="clip0_1909_12852">
<rect width="22" height="22" fill="white"/>
</clipPath>
</defs>
</svg>
