<svg width="18" height="19" viewBox="0 0 18 19" fill="none" xmlns="http://www.w3.org/2000/svg">
<path d="M15.975 10.0232H13.365C12.63 10.0232 11.9775 10.4282 11.6475 11.0882L11.0175 12.3332C10.8675 12.6332 10.5675 12.8207 10.2375 12.8207H7.7775C7.545 12.8207 7.215 12.7682 6.9975 12.3332L6.3675 11.0957C6.0375 10.4432 5.3775 10.0307 4.65 10.0307H2.025C1.7325 10.0307 1.5 10.2632 1.5 10.5557V13.0007C1.5 15.7232 3.135 17.3507 5.865 17.3507H12.15C14.7225 17.3507 16.305 15.9407 16.5 13.4357V10.5482C16.5 10.2632 16.2675 10.0232 15.975 10.0232Z" fill="white"/>
<path d="M16.5 6.70809V8.98809C16.335 8.92809 16.155 8.89809 15.975 8.89809H13.365C12.2025 8.89809 11.16 9.54309 10.6425 10.5781L10.08 11.6881H7.935L7.3725 10.5856C6.855 9.54309 5.8125 8.89809 4.65 8.89809H2.025C1.845 8.89809 1.665 8.92809 1.5 8.98809V6.70809C1.5 3.97809 3.1275 2.35059 5.8575 2.35059H12.1425C14.8725 2.35059 16.5 3.97809 16.5 6.70809Z" fill="white"/>
</svg>
