<svg width="14" height="16" viewBox="0 0 14 16" fill="none" xmlns="http://www.w3.org/2000/svg">
<path d="M13.465 5.18809C12.6775 1.72309 9.65501 0.163086 7.00001 0.163086C7.00001 0.163086 7.00001 0.163086 6.99251 0.163086C4.34501 0.163086 1.31501 1.71559 0.52751 5.18059C-0.349989 9.05059 2.02001 12.3281 4.16501 14.3906C4.96001 15.1556 5.98001 15.5381 7.00001 15.5381C8.02001 15.5381 9.04001 15.1556 9.82751 14.3906C11.9725 12.3281 14.3425 9.05809 13.465 5.18809ZM7.00001 8.94559C5.69501 8.94559 4.63751 7.88809 4.63751 6.58309C4.63751 5.27809 5.69501 4.22059 7.00001 4.22059C8.30501 4.22059 9.36251 5.27809 9.36251 6.58309C9.36251 7.88809 8.30501 8.94559 7.00001 8.94559Z" fill="white"/>
</svg>
