<svg width="18" height="19" viewBox="0 0 18 19" fill="none" xmlns="http://www.w3.org/2000/svg">
<path d="M13.215 8.91304C12.8925 8.91304 12.6375 8.65054 12.6375 8.33554C12.6375 8.05804 12.36 7.48054 11.895 6.97804C11.4375 6.49054 10.935 6.20554 10.515 6.20554C10.1925 6.20554 9.9375 5.94304 9.9375 5.62804C9.9375 5.31304 10.2 5.05054 10.515 5.05054C11.265 5.05054 12.0525 5.45554 12.7425 6.18304C13.3875 6.86554 13.8 7.71304 13.8 8.32804C13.8 8.65054 13.5375 8.91304 13.215 8.91304Z" fill="white"/>
<path d="M15.9225 8.91309C15.6 8.91309 15.345 8.65059 15.345 8.33559C15.345 5.67309 13.1775 3.51309 10.5225 3.51309C10.2 3.51309 9.94501 3.25059 9.94501 2.93559C9.94501 2.62059 10.2 2.35059 10.515 2.35059C13.815 2.35059 16.5 5.03559 16.5 8.33559C16.5 8.65059 16.2375 8.91309 15.9225 8.91309Z" fill="white"/>
<path d="M8.2875 12.0631L6.9 13.4506C6.6075 13.7431 6.1425 13.7431 5.8425 13.4581C5.76 13.3756 5.6775 13.3006 5.595 13.2181C4.8225 12.4381 4.125 11.6206 3.5025 10.7656C2.8875 9.91059 2.3925 9.05559 2.0325 8.20809C1.68 7.35309 1.5 6.53559 1.5 5.75559C1.5 5.24559 1.59 4.75809 1.77 4.30809C1.95 3.85059 2.235 3.43059 2.6325 3.05559C3.1125 2.58309 3.6375 2.35059 4.1925 2.35059C4.4025 2.35059 4.6125 2.39559 4.8 2.48559C4.995 2.57559 5.1675 2.71059 5.3025 2.90559L7.0425 5.35809C7.1775 5.54559 7.275 5.71809 7.3425 5.88309C7.41 6.04059 7.4475 6.19809 7.4475 6.34059C7.4475 6.52059 7.395 6.70059 7.29 6.87309C7.1925 7.04559 7.05 7.22559 6.87 7.40559L6.3 7.99809C6.2175 8.08059 6.18 8.17809 6.18 8.29809C6.18 8.35809 6.1875 8.41059 6.2025 8.47059C6.225 8.53059 6.2475 8.57559 6.2625 8.62059C6.3975 8.86809 6.63 9.19059 6.96 9.58059C7.2975 9.97059 7.6575 10.3681 8.0475 10.7656C8.1225 10.8406 8.205 10.9156 8.28 10.9906C8.58 11.2831 8.5875 11.7631 8.2875 12.0631Z" fill="white"/>
<path d="M16.4775 14.5981C16.4775 14.8081 16.44 15.0256 16.365 15.2356C16.3425 15.2956 16.32 15.3556 16.29 15.4156C16.1625 15.6856 15.9975 15.9406 15.78 16.1806C15.4125 16.5856 15.0075 16.8781 14.55 17.0656C14.5425 17.0656 14.535 17.0731 14.5275 17.0731C14.085 17.2531 13.605 17.3506 13.0875 17.3506C12.3225 17.3506 11.505 17.1706 10.6425 16.8031C9.78001 16.4356 8.91751 15.9406 8.06251 15.3181C7.77001 15.1006 7.47751 14.8831 7.20001 14.6506L9.65251 12.1981C9.86251 12.3556 10.05 12.4756 10.2075 12.5581C10.245 12.5731 10.29 12.5956 10.3425 12.6181C10.4025 12.6406 10.4625 12.6481 10.53 12.6481C10.6575 12.6481 10.755 12.6031 10.8375 12.5206L11.4075 11.9581C11.595 11.7706 11.775 11.6281 11.9475 11.5381C12.12 11.4331 12.2925 11.3806 12.48 11.3806C12.6225 11.3806 12.7725 11.4106 12.9375 11.4781C13.1025 11.5456 13.275 11.6431 13.4625 11.7706L15.945 13.5331C16.14 13.6681 16.275 13.8256 16.3575 14.0131C16.4325 14.2006 16.4775 14.3881 16.4775 14.5981Z" fill="white"/>
</svg>
