<svg width="20" height="20" viewBox="0 0 20 20" fill="none" xmlns="http://www.w3.org/2000/svg">
<g clip-path="url(#clip0_1804_2989)">
<path d="M18.0631 16.6994L13.8739 12.5102L12.5102 13.8739L16.6994 18.0631H13.4439V20H20V13.4439H18.0631V16.6994ZM13.8739 7.49386L18.0631 3.30057V6.5561H20V0H13.4439V1.93694H16.6994L12.5102 6.12613L13.8739 7.49386ZM6.12613 12.5102L1.93694 16.6994V13.4439H0V20H6.5561V18.0631H3.30057L7.49386 13.8739L6.12613 12.5102ZM6.5561 1.93694V0H0V6.5561H1.93694V3.30057L6.12613 7.49386L7.49386 6.12613L3.30057 1.93694H6.5561Z" fill="#be8d28"/>
</g>
<defs>
<clipPath id="clip0_1804_2989">
<rect width="20" height="20" fill="white"/>
</clipPath>
</defs>
</svg>
