<svg width="241" height="84" viewBox="0 0 241 84" fill="none" xmlns="http://www.w3.org/2000/svg">
<g clip-path="url(#clip0_5612_2762)">
<path d="M72.2933 25.6827L72.1852 21.4322L72.2213 21.5043C69.1955 19.8834 66.2058 18.1904 63.2161 16.5334L54.211 11.5626C51.2213 9.90566 48.2316 8.21269 45.2419 6.55575L36.2727 1.51286H37.0292C31.1218 4.97084 25.2504 8.50086 19.307 11.9588L1.58491 22.3328L2.08919 21.4322L2.16124 42L2.12521 62.5678L1.62093 61.6672C7.56432 65.0892 13.4357 68.5832 19.3791 72.0412C25.2865 75.4991 31.1938 78.9931 37.1012 82.4871H36.3448L45.3139 77.4443C48.3036 75.7873 51.2933 74.0943 54.283 72.4374L63.2882 67.4666C66.2779 65.8096 69.2676 64.1527 72.2933 62.4957L72.2573 62.5678L72.3654 58.4614L72.4734 62.5678V62.6398L72.4374 62.6758C69.5197 64.4769 66.566 66.2058 63.6484 68.0069L54.8594 73.3019C51.9417 75.0669 48.988 76.7959 46.0343 78.5609L37.2093 83.8199L36.8491 84.036L36.4528 83.8199C30.4734 80.434 24.494 77.0841 18.5506 73.6981C12.4631 70.2401 6.48371 66.8542 0.576329 63.4323L0.0720412 63.1441V62.5317L0 42L0.0360206 21.4322V20.8199L0.576329 20.5317L18.4425 10.3379C24.3499 6.95197 30.3293 3.60206 36.3088 0.216124L36.705 0L37.0652 0.216124L45.8902 5.47513C48.8439 7.24014 51.7976 8.96913 54.7153 10.7341L63.5403 16.0292C66.458 17.7942 69.4117 19.5592 72.3293 21.3602L72.3654 21.3962V21.4683L72.2933 25.6827Z" fill="#BE8D28"/>
<path d="M62.3523 25.2125L58.21 18.5126L54.1036 11.7768L54.4638 11.9929L45.6748 12.173L36.8858 12.3171L19.3077 12.5332L20.1002 12.065L15.7777 19.7013L11.4553 27.3017L2.73827 42.5384V41.4578L11.4913 56.6945C12.9681 59.2159 14.3729 61.7734 15.8498 64.3308L20.1722 71.9672L19.3798 71.4989L28.1688 71.607L36.9578 71.715L45.7468 71.8591L54.5359 72.0392L54.1757 72.2554L58.21 65.5915L62.2803 58.9638L58.5702 65.8077L54.824 72.6516L54.716 72.8677H54.4638L45.6748 73.0478L36.8858 73.1919L28.0968 73.2999L19.3077 73.408H18.7674L18.4793 72.9397L14.0487 65.3754C12.5719 62.854 11.095 60.3325 9.6182 57.8111L0.865201 42.5384L0.541016 41.9981L0.865201 41.4578L9.69024 26.2571L14.1208 18.6927L18.5513 11.1284L18.8395 10.6602H19.3798L36.9578 10.8763L45.7468 11.0204L54.5359 11.2005H54.788L54.8961 11.4166L58.6782 18.3325L62.3523 25.2125Z" fill="#BE8D28"/>
<path d="M239.285 31.8438C239.213 32.204 239.105 32.4201 238.997 32.5281C238.889 32.6362 238.709 32.7082 238.529 32.7082C238.349 32.7082 238.061 32.6002 237.665 32.4201C236.764 32.0239 235.936 31.8438 235.143 31.8438C233.882 31.8438 232.802 32.24 231.973 32.9964C231.145 33.7528 230.749 34.6894 230.749 35.77C230.749 36.3823 230.893 36.9587 231.181 37.463C231.469 37.9672 231.865 38.4355 232.406 38.8678C232.946 39.3 233.846 39.8763 235.143 40.5968C236.44 41.3172 237.232 41.7854 237.52 42.0016C237.953 42.3257 238.277 42.6859 238.457 43.0462C238.673 43.4064 238.745 43.8026 238.745 44.1628C238.745 44.8112 238.493 45.3875 237.953 45.8918C237.412 46.3961 236.692 46.6122 235.755 46.6122C234.963 46.6122 234.207 46.4321 233.558 46.0719C232.874 45.7117 232.406 45.2794 232.081 44.7391C231.757 44.1988 231.505 43.4064 231.289 42.3257H230.893V47.5487H231.289C231.325 47.1885 231.433 46.9724 231.541 46.8643C231.649 46.7563 231.793 46.6842 231.973 46.6842C232.153 46.6842 232.622 46.7923 233.342 47.0444C234.062 47.2606 234.531 47.4046 234.783 47.4407C235.179 47.5127 235.575 47.5487 236.008 47.5487C237.412 47.5487 238.529 47.1525 239.43 46.324C240.33 45.4956 240.762 44.523 240.762 43.3703C240.762 42.758 240.618 42.1817 240.33 41.6413C240.042 41.101 239.646 40.6328 239.141 40.2005C238.637 39.8043 237.665 39.228 236.26 38.4715C234.531 37.535 233.45 36.8146 232.982 36.2383C232.658 35.8781 232.514 35.4458 232.514 34.9775C232.514 34.3652 232.766 33.8609 233.27 33.3926C233.774 32.9244 234.423 32.6722 235.179 32.6722C235.864 32.6722 236.512 32.8523 237.16 33.1765C237.809 33.5367 238.277 34.005 238.637 34.5813C238.997 35.1576 239.213 35.9501 239.357 36.9587H239.754V31.8438H239.285ZM227.291 45.0993C226.894 45.5316 226.498 45.8197 226.03 45.9998C225.562 46.1799 224.769 46.252 223.617 46.252H222.536C221.563 46.252 220.987 46.216 220.807 46.1439C220.627 46.0719 220.483 45.9638 220.411 45.7837C220.303 45.5676 220.231 45.1353 220.231 44.523V35.0856C220.231 34.1851 220.303 33.6088 220.411 33.3926C220.519 33.1405 220.735 32.9604 221.059 32.8163C221.383 32.6722 221.924 32.6002 222.752 32.6002V32.204H215.944V32.6002H216.52C217.097 32.6002 217.529 32.7803 217.817 33.1045C218.033 33.3566 218.141 33.9329 218.141 34.8695V44.559C218.141 45.4235 218.069 45.9638 217.925 46.216C217.637 46.6122 217.205 46.8283 216.556 46.8283H215.98V47.2245H227.615L228.912 43.1542L228.551 43.0822C228.047 43.9827 227.687 44.6671 227.291 45.0993ZM210.433 32.9964C211.189 32.9964 211.694 33.0684 211.982 33.1765C212.342 33.3206 212.63 33.5727 212.81 33.8609C212.99 34.1491 213.171 34.6894 213.315 35.4818H213.747L213.567 32.204H201.968V32.6002H202.508C203.121 32.6002 203.589 32.7443 203.841 33.0324C204.021 33.2486 204.129 33.8249 204.129 34.7974V44.559C204.129 45.2794 204.093 45.7837 203.985 45.9998C203.913 46.252 203.733 46.3961 203.517 46.5401C203.193 46.7202 202.869 46.7923 202.508 46.7923H201.968V47.1885H213.603L214.9 43.4064H214.467C213.999 44.3429 213.531 45.0273 213.062 45.4956C212.702 45.8558 212.342 46.0719 211.946 46.1799C211.55 46.288 210.937 46.36 210.109 46.36H207.551C207.155 46.36 206.867 46.324 206.723 46.216C206.579 46.1439 206.471 45.9998 206.399 45.8558C206.327 45.7117 206.327 45.3154 206.327 44.6311V39.6602H209.641C210.253 39.6602 210.721 39.7323 211.045 39.8763C211.333 40.0204 211.55 40.2365 211.694 40.4887C211.802 40.7048 211.91 41.1731 212.018 41.8935H212.414V36.7425H212.018C211.982 37.607 211.766 38.1834 211.37 38.5436C211.081 38.7957 210.505 38.9398 209.641 38.9398H206.327V32.9964H210.433ZM196.889 32.1679V32.5642C197.357 32.5642 197.718 32.6002 197.97 32.7082C198.15 32.7803 198.258 32.8883 198.366 33.0324C198.474 33.1765 198.51 33.3566 198.51 33.5007C198.51 33.8609 198.33 34.4733 198.006 35.4098L195.16 43.6945L192.279 35.5178C191.954 34.5813 191.774 33.9329 191.774 33.5367C191.774 33.2486 191.882 32.9964 192.062 32.8163C192.243 32.6362 192.567 32.5642 192.963 32.5642H193.359V32.1679H187.524V32.5642C187.812 32.5642 188.064 32.6002 188.172 32.6362C188.352 32.7082 188.532 32.7803 188.713 32.9244C188.857 33.0324 188.965 33.1405 189.073 33.2846C189.253 33.5727 189.433 33.8969 189.577 34.2571L189.937 35.2657L190.37 36.5264L187.884 43.6945L184.93 35.2657C184.606 34.3292 184.426 33.7528 184.426 33.4647C184.426 33.2125 184.534 32.9964 184.75 32.8163C184.966 32.6362 185.255 32.5642 185.651 32.5642H185.903V32.1679H180.464V32.5642C180.896 32.5642 181.256 32.6362 181.508 32.7803C181.761 32.9244 181.977 33.1405 182.121 33.3926C182.193 33.5727 182.409 34.113 182.769 35.0496L187.236 47.5127H187.632L191.018 37.8952L194.44 47.5127H194.872L199.05 35.4098C199.375 34.4372 199.591 33.8249 199.735 33.5727C199.951 33.1765 200.203 32.9244 200.419 32.7803C200.671 32.6362 200.996 32.5642 201.356 32.5642V32.1679H196.889ZM175.169 32.9964C175.925 32.9964 176.43 33.0684 176.718 33.1765C177.078 33.3206 177.366 33.5727 177.546 33.8609C177.726 34.1491 177.906 34.6894 178.05 35.4818H178.483L178.303 32.204H166.704V32.6002H167.244C167.857 32.6002 168.325 32.7443 168.577 33.0324C168.757 33.2486 168.865 33.8249 168.865 34.7974V44.559C168.865 45.2794 168.829 45.7837 168.721 45.9998C168.649 46.252 168.469 46.3961 168.253 46.5401C167.929 46.7202 167.604 46.7923 167.244 46.7923H166.704V47.1885H178.303L179.599 43.4064H179.167C178.699 44.3429 178.231 45.0273 177.762 45.4956C177.402 45.8558 177.042 46.0719 176.646 46.1799C176.249 46.288 175.637 46.36 174.809 46.36H172.251C171.855 46.36 171.567 46.324 171.423 46.216C171.279 46.1439 171.171 45.9998 171.098 45.8558C171.026 45.7117 171.026 45.3154 171.026 44.6311V39.6602H174.34C174.953 39.6602 175.421 39.7323 175.745 39.8763C176.033 40.0204 176.249 40.2365 176.394 40.4887C176.502 40.7048 176.61 41.1731 176.718 41.8935H177.114V36.7425H176.718C176.682 37.607 176.466 38.1834 176.069 38.5436C175.781 38.7957 175.205 38.9398 174.34 38.9398H171.026V32.9964H175.169ZM160.256 32.6002C160.617 32.6002 160.941 32.6722 161.265 32.8523C161.517 32.9964 161.661 33.1405 161.733 33.3206C161.841 33.5727 161.877 34.077 161.877 34.8335V45.0993C161.877 45.7117 161.805 46.1439 161.625 46.3961C161.445 46.6482 161.265 46.7563 161.049 46.7563C160.797 46.7563 160.58 46.5401 160.4 46.1439C160.112 45.4595 159.86 45.0633 159.68 44.9192C159.5 44.7751 159.284 44.7031 159.032 44.7031C158.707 44.7031 158.419 44.8112 158.167 45.0633C157.987 45.2434 157.879 45.5316 157.879 45.8918C157.879 46.324 158.095 46.7202 158.491 47.0805C158.888 47.4407 159.428 47.5847 160.148 47.5847C161.013 47.5847 161.733 47.3326 162.345 46.7923C162.958 46.288 163.39 45.6757 163.642 44.9552C163.894 44.2709 164.002 43.3343 164.002 42.2177V34.8335C164.002 33.9329 164.074 33.3566 164.255 33.1405C164.543 32.7803 164.975 32.6002 165.587 32.6002H166.128V32.204H159.68V32.6002H160.256ZM139.184 32.1679L139.004 35.698H139.436C139.472 35.0136 139.653 34.4733 139.941 34.077C140.229 33.6808 140.553 33.3926 140.913 33.2846C141.201 33.1765 141.706 33.1405 142.426 33.1405H144.227V44.6311C144.227 45.4595 144.155 45.9998 143.975 46.252C143.723 46.6482 143.255 46.8283 142.606 46.8283H142.066V47.2245H148.442V46.8283H147.937C147.361 46.8283 146.929 46.6842 146.641 46.36C146.424 46.1439 146.352 45.5676 146.352 44.6311V33.1045H148.478C149.09 33.1045 149.594 33.2125 149.99 33.3926C150.387 33.6088 150.675 33.8969 150.891 34.3292C151.035 34.5813 151.143 35.0496 151.215 35.6619H151.647L151.467 32.1319H139.184V32.1679ZM121.642 32.6002C122.074 32.6002 122.399 32.6362 122.615 32.7082C123.047 32.8523 123.371 32.9964 123.623 33.1765C123.839 33.3566 124.164 33.6808 124.632 34.1851V44.6311C124.632 45.4595 124.56 45.9998 124.38 46.252C124.128 46.6482 123.659 46.8283 123.011 46.8283H122.471V47.2245H127.694V46.8283H127.153C126.577 46.8283 126.145 46.6842 125.857 46.36C125.641 46.1439 125.568 45.5676 125.568 44.6311V35.3377L135.474 47.4407H135.87V34.7614C135.87 33.9329 135.942 33.3926 136.123 33.1405C136.375 32.7443 136.843 32.5642 137.491 32.5642H138.032V32.1679H132.809V32.5642H133.313C133.889 32.5642 134.321 32.7082 134.61 33.0324C134.826 33.2486 134.934 33.8249 134.934 34.7614V43.4424L125.713 32.1679H121.642V32.6002ZM116.924 32.9964C117.68 32.9964 118.184 33.0684 118.472 33.1765C118.833 33.3206 119.121 33.5727 119.301 33.8609C119.481 34.1491 119.661 34.6894 119.805 35.4818H120.237L120.057 32.204H108.459V32.6002H108.999C109.611 32.6002 110.08 32.7443 110.332 33.0324C110.512 33.2486 110.62 33.8249 110.62 34.7974V44.559C110.62 45.2794 110.584 45.7837 110.476 45.9998C110.404 46.252 110.224 46.3961 110.008 46.5401C109.683 46.7202 109.359 46.7923 108.999 46.7923H108.459V47.1885H120.057L121.354 43.4064H120.922C120.454 44.3429 119.985 45.0273 119.517 45.4956C119.157 45.8558 118.797 46.0719 118.4 46.1799C118.004 46.288 117.392 46.36 116.563 46.36H114.006C113.61 46.36 113.321 46.324 113.177 46.216C113.033 46.1439 112.925 45.9998 112.853 45.8558C112.781 45.7117 112.781 45.3154 112.781 44.6311V39.6602H116.095C116.707 39.6602 117.176 39.7323 117.5 39.8763C117.788 40.0204 118.004 40.2365 118.148 40.4887C118.256 40.7048 118.364 41.1731 118.472 41.8935H118.869V36.7425H118.472C118.436 37.607 118.22 38.1834 117.824 38.5436C117.536 38.7957 116.96 38.9398 116.095 38.9398H112.781V32.9964H116.924ZM106.081 45.0993C105.685 45.5316 105.289 45.8197 104.821 45.9998C104.352 46.1799 103.56 46.252 102.407 46.252H101.327C100.354 46.252 99.7777 46.216 99.5976 46.1439C99.4175 46.0719 99.2734 45.9638 99.2014 45.7837C99.0933 45.5676 99.0213 45.1353 99.0213 44.523V35.0856C99.0213 34.1851 99.0933 33.6088 99.2014 33.3926C99.3095 33.1405 99.5256 32.9604 99.8498 32.8163C100.174 32.6722 100.714 32.6002 101.543 32.6002V32.204H94.7348V32.6002H95.3112C95.8875 32.6002 96.3198 32.7803 96.6079 33.1045C96.824 33.3566 96.9321 33.9329 96.9321 34.8695V44.559C96.9321 45.4235 96.8601 45.9638 96.716 46.216C96.4278 46.6122 95.9956 46.8283 95.3472 46.8283H94.7709V47.2245H106.406L107.702 43.1542L107.342 43.0822C106.838 43.9827 106.442 44.6671 106.081 45.0993ZM92.2134 45.0993C91.8172 45.5316 91.421 45.8197 90.9527 45.9998C90.4844 46.1799 89.692 46.252 88.5393 46.252H87.4587C86.4861 46.252 85.9098 46.216 85.7297 46.1439C85.5496 46.0719 85.4055 45.9638 85.3335 45.7837C85.2254 45.5676 85.1534 45.1353 85.1534 44.523V35.0856C85.1534 34.1851 85.2254 33.6088 85.3335 33.3926C85.4415 33.1405 85.6577 32.9604 85.9818 32.8163C86.306 32.6722 86.8463 32.6002 87.6748 32.6002V32.204H80.8669V32.6002H81.4433C82.0196 32.6002 82.4518 32.7803 82.74 33.1045C82.9561 33.3566 83.0642 33.9329 83.0642 34.8695V44.559C83.0642 45.4235 82.9921 45.9638 82.8481 46.216C82.5599 46.6122 82.1276 46.8283 81.4793 46.8283H80.9029V47.2245H92.5376L93.8343 43.1542L93.4741 43.0822C92.9698 43.9827 92.5736 44.6671 92.2134 45.0993ZM75.3558 32.9964C76.1122 32.9964 76.6165 33.0684 76.9047 33.1765C77.2649 33.3206 77.553 33.5727 77.7331 33.8609C77.9132 34.1491 78.0933 34.6894 78.2374 35.4818H78.6697L78.4896 32.204H66.8909V32.6002H67.4312C68.0436 32.6002 68.5119 32.7443 68.764 33.0324C68.9441 33.2486 69.0522 33.8249 69.0522 34.7974V44.559C69.0522 45.2794 69.0161 45.7837 68.9081 45.9998C68.836 46.252 68.6559 46.3961 68.4398 46.5401C68.1156 46.7202 67.7914 46.7923 67.4312 46.7923H66.8909V47.1885H78.5256L79.8223 43.4064H79.3901C78.9218 44.3429 78.4535 45.0273 77.9853 45.4956C77.6251 45.8558 77.2649 46.0719 76.8686 46.1799C76.4724 46.288 75.8601 46.36 75.0316 46.36H72.4741C72.0779 46.36 71.7897 46.324 71.6456 46.216C71.5016 46.1439 71.3935 45.9998 71.3215 45.8558C71.2494 45.7117 71.2494 45.3154 71.2494 44.6311V39.6602H74.5633C75.1757 39.6602 75.6439 39.7323 75.9681 39.8763C76.2563 40.0204 76.4724 40.2365 76.6165 40.4887C76.7246 40.7048 76.8326 41.1731 76.9407 41.8935H77.3369V36.7425H76.9407C76.9047 37.607 76.6885 38.1834 76.2923 38.5436C76.0041 38.7957 75.4278 38.9398 74.5633 38.9398H71.2494V32.9964H75.3558ZM64.6216 31.8438C64.5496 32.204 64.4055 32.4921 64.2254 32.6722C64.0813 32.8163 63.9012 32.8883 63.7211 32.8883C63.577 32.8883 63.3609 32.8163 63.0728 32.6362C62.0282 32.0959 60.9475 31.8438 59.8669 31.8438C58.4621 31.8438 57.1654 32.204 56.0127 32.8883C54.824 33.5727 53.9235 34.5453 53.2391 35.806C52.5547 37.0667 52.2306 38.4355 52.2306 39.9484C52.2306 41.8215 52.7348 43.4424 53.7434 44.8112C55.1122 46.6482 57.0213 47.5847 59.5427 47.5847C60.9115 47.5847 62.1002 47.2606 63.1088 46.6482C64.1173 46.0359 64.9818 45.0633 65.7383 43.6945L65.3781 43.4784C64.4776 44.7031 63.6491 45.5316 62.9287 45.9638C62.1722 46.3961 61.3077 46.5762 60.3352 46.5762C59.2185 46.5762 58.21 46.324 57.3455 45.7837C56.481 45.2434 55.7966 44.487 55.3643 43.4784C54.9321 42.4698 54.716 41.3172 54.716 39.9484C54.716 38.2914 54.9321 36.9227 55.4004 35.806C55.8686 34.6894 56.481 33.8969 57.3095 33.3926C58.1019 32.8883 59.0024 32.6362 60.011 32.6362C61.1997 32.6362 62.2083 32.9604 63.0728 33.6448C63.9372 34.3292 64.5856 35.4098 65.0179 36.9587H65.3781L65.0179 31.8438H64.6216ZM47.1877 35.0496C47.8 34.2571 48.2683 33.7528 48.5925 33.4647C48.9167 33.1765 49.2769 32.9604 49.6731 32.7803C49.9252 32.6722 50.2854 32.6002 50.7177 32.5642V32.1679H45.3866V32.5642C45.927 32.5642 46.2872 32.6002 46.4312 32.6722C46.6113 32.7443 46.7554 32.8523 46.8635 32.9964C46.9355 33.1045 47.0076 33.2486 47.0076 33.3926C47.0076 33.5367 46.9715 33.7168 46.8995 33.8609C46.8275 34.005 46.6474 34.2932 46.3232 34.6894L43.6577 38.0753L41.3523 34.6173C40.9921 34.077 40.812 33.6808 40.812 33.4287C40.812 33.2125 40.9201 33.0324 41.1362 32.8523C41.3523 32.6722 41.7486 32.6002 42.3609 32.5642V32.1679H35.4089V32.5642C36.1294 32.6002 36.7777 32.7803 37.3541 33.1405C37.9304 33.5007 38.6148 34.2931 39.4072 35.4458L42.3609 39.7683L38.8309 44.2348C38.2906 44.9192 37.8223 45.4235 37.4261 45.7477C37.0299 46.0719 36.5616 46.324 36.1294 46.5401C35.8412 46.6482 35.517 46.7203 35.1568 46.7563V47.1525H40.4878V46.7563C39.9115 46.7203 39.5513 46.6482 39.3352 46.5041C39.1191 46.36 39.047 46.1439 39.047 45.9278C39.047 45.7837 39.083 45.6396 39.1551 45.4956C39.2271 45.3515 39.4072 45.0633 39.7674 44.6311L42.9012 40.5968L45.4587 44.451C45.8189 44.9913 45.999 45.3154 46.071 45.4235C46.1431 45.6036 46.1791 45.7477 46.1791 45.9278C46.1791 46.0719 46.1431 46.216 46.035 46.36C45.927 46.5041 45.8189 46.6122 45.6388 46.6482C45.4227 46.7203 45.0985 46.7563 44.7023 46.7923V47.1885H51.1499V46.7923C50.5016 46.7563 49.9252 46.5762 49.493 46.216C49.0607 45.8558 48.4124 45.0273 47.5119 43.6945L44.27 38.8678L47.1877 35.0496ZM29.9338 32.9964C30.6902 32.9964 31.1945 33.0684 31.4827 33.1765C31.8429 33.3206 32.1311 33.5727 32.3112 33.8609C32.4913 34.1491 32.6714 34.6894 32.8155 35.4818H33.2477L33.1396 32.1679H21.541V32.5642H22.0813C22.6937 32.5642 23.1619 32.7082 23.4141 32.9964C23.5942 33.2125 23.7023 33.7889 23.7023 34.7614V44.523C23.7023 45.2434 23.6662 45.7477 23.5582 45.9638C23.4861 46.216 23.306 46.36 23.0899 46.5041C22.7657 46.6842 22.4415 46.7563 22.0813 46.7563H21.541V47.1525H33.1396L34.4364 43.3703H34.0041C33.5359 44.3069 33.0676 44.9913 32.5993 45.4595C32.2391 45.8197 31.8789 46.0359 31.4827 46.1439C31.0865 46.252 30.4741 46.324 29.6456 46.324H27.0882C26.692 46.324 26.4038 46.288 26.2597 46.1799C26.1156 46.1079 26.0076 45.9638 25.9355 45.8197C25.8635 45.6757 25.8635 45.2794 25.8635 44.595V39.6242H29.1774C29.7897 39.6242 30.258 39.6962 30.5822 39.8403C30.8703 39.9844 31.0865 40.2005 31.2306 40.4527C31.3386 40.6688 31.4467 41.1371 31.5547 41.8575H31.951V36.7425H31.5547C31.5187 37.607 31.3026 38.1834 30.9064 38.5436C30.6182 38.7957 30.0419 38.9398 29.1774 38.9398H25.8635V32.9964H29.9338Z" fill="#BE8D28"/>
<path d="M234.53 53.4891C235.034 53.381 235.466 53.309 235.827 53.309C236.835 53.309 237.664 53.6692 238.348 54.3536C239.032 55.038 239.321 55.9745 239.321 57.1632C239.321 58.3519 238.996 59.2884 238.348 59.9728C237.7 60.6572 236.871 61.0174 235.899 61.0174C235.538 61.0174 235.07 60.9453 234.53 60.8373V53.4891ZM235.935 61.4856C237.628 61.4856 238.852 61.0534 239.681 60.1169C240.401 59.3244 240.761 58.3158 240.761 57.0911C240.761 56.1906 240.545 55.3982 240.149 54.7138C239.753 54.0294 239.212 53.5251 238.528 53.2369C237.844 52.9488 236.871 52.8047 235.574 52.8047H232.044V53.0568H232.369C232.693 53.0568 232.945 53.1649 233.125 53.345C233.233 53.4891 233.305 53.8133 233.305 54.3536V59.9368C233.305 60.441 233.269 60.7292 233.161 60.8733C233.017 61.0894 232.765 61.2335 232.369 61.2335H232.044V61.4856H235.935ZM226.353 53.309C226.785 53.309 227.074 53.345 227.254 53.417C227.47 53.4891 227.614 53.6332 227.722 53.8133C227.83 53.9934 227.938 54.2815 228.01 54.7498H228.262L228.154 52.8407H221.526V53.0928H221.814C222.175 53.0928 222.427 53.1649 222.571 53.345C222.679 53.4891 222.751 53.8133 222.751 54.3536V59.9728C222.751 60.405 222.715 60.6572 222.679 60.8013C222.643 60.9453 222.535 61.0534 222.391 61.0894C222.211 61.1975 222.031 61.2335 221.814 61.2335H221.526V61.4856H228.19L228.947 59.3244H228.694C228.406 59.8647 228.154 60.2609 227.902 60.5131C227.686 60.7292 227.47 60.8373 227.254 60.9093C227.037 60.9814 226.677 61.0174 226.173 61.0174H224.696C224.444 61.0174 224.3 60.9814 224.228 60.9453C224.156 60.9093 224.084 60.8373 224.048 60.7652C224.012 60.6932 224.012 60.4411 224.012 60.0808V57.2352H225.921C226.281 57.2352 226.533 57.2712 226.713 57.3793C226.893 57.4513 227.001 57.5954 227.074 57.7395C227.146 57.8476 227.182 58.1357 227.254 58.532H227.506V55.4702H227.254C227.218 55.9745 227.11 56.2987 226.893 56.5148C226.713 56.6589 226.389 56.7309 225.921 56.7309H224.012V53.309H226.353ZM211.188 52.8407L211.08 54.8579H211.333C211.369 54.4616 211.441 54.1735 211.621 53.9213C211.801 53.6692 211.981 53.5251 212.197 53.4531C212.377 53.381 212.665 53.381 213.062 53.381H214.106V59.9728C214.106 60.441 214.07 60.7652 213.962 60.9093C213.818 61.1254 213.566 61.2335 213.17 61.2335H212.881V61.4856H216.556V61.2335H216.267C215.943 61.2335 215.691 61.1615 215.511 60.9814C215.403 60.8373 215.331 60.5131 215.331 59.9728V53.381H216.556C216.916 53.381 217.204 53.4531 217.42 53.5611C217.636 53.6692 217.816 53.8493 217.96 54.1014C218.032 54.2455 218.104 54.4977 218.14 54.8579H218.393L218.284 52.8407H211.188ZM207.442 61.2335C207.226 61.2335 207.046 61.1975 206.866 61.0894C206.722 61.0174 206.65 60.9093 206.614 60.8013C206.542 60.6572 206.542 60.369 206.542 59.9368V54.3536C206.542 53.8493 206.578 53.5251 206.686 53.381C206.83 53.1649 207.118 53.0568 207.442 53.0568H207.766V52.8047H204.056V53.0568H204.345C204.561 53.0568 204.741 53.0928 204.921 53.2009C205.065 53.273 205.137 53.381 205.173 53.4891C205.245 53.6332 205.245 53.9213 205.245 54.3536V59.9368C205.245 60.441 205.209 60.7652 205.101 60.9093C204.957 61.1254 204.669 61.2335 204.309 61.2335H204.02V61.4856H207.73V61.2335H207.442ZM195.051 61.4856L198.401 54.2095V59.9728C198.401 60.441 198.365 60.7652 198.257 60.9093C198.113 61.1254 197.861 61.2335 197.465 61.2335H197.176V61.4856H200.851V61.2335H200.562C200.238 61.2335 199.986 61.1615 199.806 60.9814C199.698 60.8373 199.626 60.5131 199.626 59.9728V54.3176C199.626 53.8493 199.662 53.5251 199.77 53.381C199.914 53.1649 200.166 53.0568 200.562 53.0568H200.851V52.8047H198.401L195.303 59.5766L192.17 52.8047H189.72V53.0568C190.08 53.0568 190.333 53.0929 190.477 53.1649C190.621 53.2369 190.729 53.345 190.801 53.4891C190.873 53.6692 190.945 53.9213 190.945 54.3176V59.9728C190.945 60.441 190.909 60.7652 190.801 60.9093C190.657 61.1254 190.405 61.2335 190.008 61.2335H189.72V61.4856H192.746V61.2335H192.458C192.134 61.2335 191.881 61.1615 191.701 60.9814C191.593 60.8373 191.521 60.5131 191.521 59.9728V54.2095L194.871 61.4856H195.051ZM186.262 61.2335C186.046 61.2335 185.866 61.1975 185.686 61.0894C185.542 61.0174 185.47 60.9093 185.434 60.8013C185.362 60.6572 185.362 60.369 185.362 59.9368V54.3536C185.362 53.8493 185.398 53.5251 185.506 53.381C185.65 53.1649 185.938 53.0568 186.262 53.0568H186.586V52.8047H182.876V53.0568H183.164C183.381 53.0568 183.561 53.0928 183.741 53.2009C183.885 53.273 183.957 53.381 183.993 53.4891C184.065 53.6332 184.065 53.9213 184.065 54.3536V59.9368C184.065 60.441 184.029 60.7652 183.921 60.9093C183.777 61.1254 183.489 61.2335 183.128 61.2335H182.84V61.4856H186.586V61.2335H186.262ZM178.806 60.2609C178.59 60.5131 178.338 60.6932 178.086 60.7652C177.833 60.8733 177.365 60.9093 176.681 60.9093H176.032C175.492 60.9093 175.132 60.8733 175.024 60.8373C174.916 60.8013 174.844 60.7292 174.772 60.6572C174.7 60.5131 174.664 60.297 174.664 59.9368V54.4977C174.664 53.9934 174.7 53.6692 174.772 53.5251C174.844 53.381 174.952 53.273 175.168 53.2009C175.348 53.1289 175.672 53.0568 176.14 53.0568V52.8047H172.214V53.0568H172.538C172.863 53.0568 173.115 53.1649 173.295 53.345C173.403 53.4891 173.475 53.8133 173.475 54.3536V59.9368C173.475 60.441 173.439 60.7292 173.331 60.8733C173.187 61.1254 172.899 61.2335 172.538 61.2335H172.214V61.4856H178.914L179.67 59.1443L179.454 59.1083C179.238 59.6126 179.022 60.0088 178.806 60.2609ZM156.257 52.8407L156.149 54.8579H156.401C156.437 54.4616 156.509 54.1735 156.689 53.9213C156.869 53.6692 157.049 53.5251 157.266 53.4531C157.446 53.381 157.734 53.381 158.13 53.381H159.175V59.9728C159.175 60.441 159.139 60.7652 159.031 60.9093C158.887 61.1254 158.634 61.2335 158.238 61.2335H157.95V61.4856H161.624V61.2335H161.336C161.012 61.2335 160.76 61.1615 160.58 60.9814C160.471 60.8373 160.399 60.5131 160.399 59.9728V53.381H161.624C161.984 53.381 162.272 53.4531 162.489 53.5611C162.705 53.6692 162.885 53.8493 163.029 54.1014C163.101 54.2455 163.173 54.4977 163.209 54.8579H163.461L163.353 52.8407H156.257ZM150.314 52.8407V53.0928C150.35 53.0928 150.386 53.0928 150.422 53.1289C150.71 53.1649 150.926 53.273 151.034 53.381C151.142 53.4891 151.214 53.5971 151.214 53.7412C151.214 53.9213 151.106 54.2815 150.926 54.7498L148.873 59.7567L146.676 54.6778C146.495 54.2455 146.387 53.8853 146.387 53.6692C146.387 53.5251 146.459 53.381 146.567 53.309C146.676 53.2369 146.928 53.1289 147.36 53.0928V52.8407H143.83V53.0928C144.082 53.1289 144.298 53.1649 144.442 53.2369C144.586 53.309 144.73 53.417 144.839 53.5611C144.911 53.6332 145.019 53.8853 145.199 54.2455L148.441 61.7018H148.693L151.718 54.3536C151.899 53.9213 152.079 53.5971 152.331 53.381C152.475 53.2369 152.727 53.1289 153.015 53.0928V52.8407H150.314ZM136.518 53.4891C136.842 53.417 137.13 53.381 137.346 53.381C137.706 53.381 138.031 53.4531 138.319 53.6332C138.607 53.8133 138.823 54.0294 138.967 54.3536C139.111 54.6778 139.183 55.038 139.183 55.3982C139.183 55.9385 139.039 56.3707 138.715 56.7309C138.391 57.0551 138.031 57.2352 137.562 57.2352C137.454 57.2352 137.274 57.2352 137.13 57.1992C136.95 57.1632 136.77 57.1632 136.518 57.0911V53.4891ZM137.31 57.5594C137.562 57.5954 137.778 57.5954 137.995 57.5954C138.859 57.5954 139.507 57.3793 139.976 56.9471C140.444 56.5148 140.66 55.9385 140.66 55.2181C140.66 54.7138 140.516 54.2455 140.192 53.8853C139.904 53.5251 139.507 53.2369 139.075 53.0928C138.643 52.9488 138.031 52.8407 137.238 52.8407H134.068V53.0928H134.393C134.717 53.0928 134.969 53.2009 135.149 53.381C135.257 53.5251 135.329 53.8493 135.329 54.3896V59.9728C135.329 60.4771 135.293 60.7652 135.185 60.9093C135.041 61.1615 134.753 61.2695 134.393 61.2695H134.068V61.5217H137.778V61.2335H137.454C137.13 61.2335 136.878 61.1254 136.734 60.9453C136.626 60.8013 136.554 60.4771 136.554 59.9368V57.4153C136.806 57.4874 137.058 57.5234 137.31 57.5594Z" fill="#BE8D28"/>
<path d="M133.672 57.1289H72.293" stroke="#BE8D28" stroke-miterlimit="10"/>
</g>
<defs>
<clipPath id="clip0_5612_2762">
<rect width="241" height="84" fill="white"/>
</clipPath>
</defs>
</svg>
