<svg width="20" height="20" viewBox="0 0 20 20" fill="none" xmlns="http://www.w3.org/2000/svg">
<g clip-path="url(#clip0_541_2454)">
<path d="M18.0468 7.53283C17.3364 6.82247 16.1807 6.82231 15.4704 7.53283L14.1781 8.82515V8.22133H9.20007C8.19957 8.22133 7.25891 8.61093 6.55138 9.31845L3.86024 12.0096L3.11926 11.2685L-0.2146 14.6024L5.18299 20L8.51689 16.6662L7.41537 15.5646L8.14524 14.8347H11.7699C12.7703 14.8347 13.711 14.445 14.4186 13.7376L18.0468 10.1092C18.391 9.76521 18.5805 9.3077 18.5805 8.82096C18.5805 8.33438 18.391 7.87682 18.0468 7.53283ZM5.18299 18.304L1.48155 14.6024L3.11926 12.9646L6.82074 16.6661L5.18299 18.304ZM17.1989 9.26116L13.5705 12.8895C13.0895 13.3705 12.4499 13.6353 11.7697 13.6353H7.64851L6.56729 14.7165L4.70828 12.8575L7.39942 10.1665C7.8804 9.68554 8.51985 9.42059 9.20007 9.42059H12.9788V9.56002C12.9788 10.1696 12.4829 10.6656 11.8731 10.6656H9.39243V11.865H11.8731C12.5086 11.865 13.0848 11.6064 13.5023 11.189L13.5061 11.1931L16.3185 8.38075C16.5613 8.1381 16.9561 8.1381 17.1989 8.38075C17.2568 8.43844 17.3028 8.50705 17.334 8.58261C17.3653 8.65817 17.3813 8.73918 17.3811 8.82096C17.3811 8.98725 17.3165 9.1436 17.1989 9.26116Z" fill="#be8d28" stroke="#be8d28" stroke-width="0.1"/>
<path d="M14.9989 0.0825753L14.9989 0.0825809L16.4344 2.38905L16.3495 2.44189L16.4344 2.38905C16.4796 2.46162 16.4995 2.54709 16.491 2.63214C16.4825 2.71719 16.4461 2.79704 16.3874 2.85923L16.3874 2.85924L12.2818 7.21354C12.2817 7.21356 12.2817 7.21358 12.2817 7.21359C12.2455 7.25198 12.2019 7.28258 12.1535 7.3035C12.1051 7.32443 12.0528 7.33523 12.0001 7.33524C11.9473 7.33525 11.8951 7.32447 11.8467 7.30356C11.7982 7.28266 11.7546 7.25207 11.7184 7.21368L14.9989 0.0825753ZM14.9989 0.0825753C14.9641 0.0267329 14.9157 -0.0193327 14.8582 -0.0512762C14.8007 -0.08322 14.736 -0.0999886 14.6702 -0.1H14.6702H9.32991H9.32989C9.26411 -0.0999842 9.19943 -0.0832144 9.14193 -0.051272C9.08443 -0.0193296 9.03602 0.0267325 9.00125 0.0825697L9.00125 0.0825809L7.56571 2.38902M14.9989 0.0825753L11.7184 7.21366L7.61267 2.85926C7.61267 2.85925 7.61266 2.85925 7.61266 2.85924C7.55401 2.79706 7.51759 2.7172 7.50909 2.63214C7.5006 2.54707 7.5205 2.46158 7.56571 2.38902M7.56571 2.38902L7.65058 2.44189M7.56571 2.38902L7.56569 2.38905L7.65058 2.44189M7.65058 2.44189L9.08614 0.135422L7.68542 2.79064C7.64191 2.74452 7.6149 2.68529 7.6086 2.6222C7.6023 2.55911 7.61706 2.49571 7.65058 2.44189ZM12.0001 6.38385L8.38056 2.54504L9.54499 0.674224H14.4552L15.6195 2.54504L12.0001 6.38385Z" fill="#be8d28" stroke="#be8d28" stroke-width="0.2"/>
<path d="M7.89429 2.20646H7.79429V2.30646V2.88068V2.98068H7.89429H16.1057H16.2057V2.88068V2.30646V2.20646H16.1057H7.89429Z" fill="#be8d28" stroke="#be8d28" stroke-width="0.2"/>
<path d="M11.0973 0.362722L11.1168 0.264648L11.0187 0.245116L10.4555 0.132944L10.3574 0.113412L10.3379 0.211485L9.8785 2.51795L9.87849 2.518C9.86389 2.59153 9.87093 2.66771 9.89876 2.73732L9.89876 2.73733L11.6406 7.09187L11.6777 7.18471L11.7706 7.14758L12.3037 6.93436L12.3966 6.89722L12.3594 6.80437L10.6603 2.55653L11.0973 0.362722Z" fill="#be8d28" stroke="#be8d28" stroke-width="0.2"/>
<path d="M14.1396 2.49359L14.1396 2.49352L13.6611 0.254037L13.6402 0.156239L13.5424 0.177142L12.9809 0.297155L12.8831 0.318056L12.904 0.415844L13.3579 2.53958L11.6411 6.80356L11.6037 6.89633L11.6965 6.93368L12.2291 7.14805L12.3218 7.18538L12.3592 7.09263L14.1202 2.71905L14.1203 2.71887C14.149 2.64736 14.1557 2.56894 14.1396 2.49359Z" fill="#be8d28" stroke="#be8d28" stroke-width="0.2"/>
</g>
<defs>
<clipPath id="clip0_541_2454">
<rect width="20" height="20" fill="white"/>
</clipPath>
</defs>
</svg>
