<svg width="67" height="66" viewBox="0 0 67 66" fill="none" xmlns="http://www.w3.org/2000/svg">
<g clip-path="url(#clip0_5508_15776)">
<path d="M59.0564 33.336L51.8759 22.2476C51.3194 21.3882 50.3758 20.875 49.3519 20.875H17.671C16.6487 20.875 15.706 21.3869 15.1492 22.2441L7.94645 33.3339C7.2104 34.467 7.32409 35.9631 8.22295 36.9719L31.2536 62.8279C31.8236 63.4678 32.6419 63.8349 33.4989 63.8349C33.4988 63.8349 33.499 63.8349 33.4989 63.8349C34.3557 63.8349 35.1744 63.4679 35.7444 62.8281L58.7777 36.9705C59.6752 35.9628 59.7898 34.4683 59.0564 33.336ZM47.8973 23.453L41.8586 32.791L35.8162 23.453H47.8973ZM39.4894 33.8753H27.5084L33.4989 24.6174L39.4894 33.8753ZM31.1815 23.4533L25.1558 32.7656L19.1322 23.4533H31.1815ZM16.7486 24.5148L22.8033 33.8753H10.669L16.7486 24.5148ZM11.2135 36.4534H24.1872L31.0471 58.7201L11.2135 36.4534ZM33.4989 57.9219L26.8848 36.4534H40.1129L33.4989 57.9219ZM35.9506 58.7208L42.8107 36.4536H55.7856L35.9506 58.7208ZM44.2278 33.8753L50.2769 24.5212L56.3341 33.8753H44.2278Z" fill="#BE8D28"/>
<path d="M4.41011 33.875H1.78906C1.07724 33.875 0.5 34.4521 0.5 35.1641C0.5 35.876 1.07724 36.4531 1.78906 36.4531H4.41011C5.12193 36.4531 5.69918 35.876 5.69918 35.1641C5.69918 34.4521 5.12193 33.875 4.41011 33.875Z" fill="#BE8D28"/>
<path d="M65.2109 33.875H62.5898C61.878 33.875 61.3008 34.4521 61.3008 35.1641C61.3008 35.876 61.878 36.4531 62.5898 36.4531H65.2109C65.9227 36.4531 66.5 35.876 66.5 35.1641C66.5 34.4521 65.9227 33.875 65.2109 33.875Z" fill="#BE8D28"/>
<path d="M56.8507 11.8365C56.3472 11.3331 55.5312 11.3331 55.0276 11.8365L50.7457 16.1184C50.2423 16.6218 50.2423 17.438 50.7457 17.9414C50.9976 18.1931 51.3275 18.319 51.6573 18.319C51.9873 18.319 52.3171 18.193 52.5688 17.9414L56.8507 13.6595C57.3541 13.1561 57.3541 12.34 56.8507 11.8365Z" fill="#BE8D28"/>
<path d="M16.31 16.0951L12.0283 11.8131C11.525 11.3097 10.7091 11.3097 10.2052 11.8131C9.70179 12.3165 9.70179 13.1327 10.2052 13.6361L14.487 17.918C14.7388 18.1697 15.0687 18.2955 15.3985 18.2955C15.7284 18.2955 16.0583 18.1696 16.31 17.918C16.8134 17.4147 16.8134 16.5983 16.31 16.0951Z" fill="#BE8D28"/>
<path d="M33.5327 2.16406C32.8209 2.16406 32.2437 2.74118 32.2437 3.45313V11.8537C32.2437 12.5656 32.8208 13.1428 33.5327 13.1428C34.2445 13.1428 34.8218 12.5656 34.8218 11.8537V3.45313C34.8218 2.7413 34.2445 2.16406 33.5327 2.16406Z" fill="#BE8D28"/>
<path d="M34.4435 15.3035C34.2038 15.0637 33.8713 14.9258 33.5322 14.9258C33.1932 14.9258 32.8606 15.0637 32.6209 15.3035C32.3811 15.5432 32.2432 15.8758 32.2432 16.2148C32.2432 16.5552 32.381 16.8864 32.6209 17.1262C32.8606 17.3673 33.1932 17.5039 33.5322 17.5039C33.8713 17.5039 34.2038 17.3673 34.4435 17.1262C34.6845 16.8864 34.8213 16.5539 34.8213 16.2148C34.8213 15.8758 34.6845 15.5434 34.4435 15.3035Z" fill="#BE8D28"/>
</g>
<defs>
<clipPath id="clip0_5508_15776">
<rect width="66" height="66" fill="white" transform="translate(0.5)"/>
</clipPath>
</defs>
</svg>
