<svg width="67" height="66" viewBox="0 0 67 66" fill="none" xmlns="http://www.w3.org/2000/svg">
<g clip-path="url(#clip0_5508_15812)">
<path d="M19.5786 48.8961C16.6951 48.7488 16.7494 44.6931 19.5785 44.5522C27.5923 44.5801 48.7295 44.5597 56.9982 44.5655C59.2597 44.5655 61.1946 43.0264 61.7033 40.823L66.3985 20.4913C66.6674 19.3272 66.396 18.1223 65.6542 17.1858C64.9123 16.2493 63.8017 15.7047 62.607 15.7047C59.2806 15.7047 31.0448 15.5769 16.5825 15.5192L14.29 7.01294C13.7396 4.98017 11.8846 3.56055 9.7787 3.56055H2.43462C1.36619 3.56055 0.5 4.42674 0.5 5.49517C0.5 6.5636 1.36619 7.42979 2.43462 7.42979H9.7787C10.1413 7.42979 10.4605 7.6742 10.5547 8.02204L19.3592 40.6883C17.8111 40.7445 16.3692 41.3741 15.2757 42.4836C14.1268 43.6495 13.5098 45.1928 13.5383 46.8294C13.5953 50.1024 16.305 52.7652 19.5786 52.7652H22.3995C21.9802 53.6453 21.7449 54.6293 21.7449 55.6673C21.7449 59.4011 24.7825 62.4387 28.5163 62.4387C32.2501 62.4387 35.2877 59.4011 35.2877 55.6673C35.2877 54.6291 35.0522 53.6453 34.6329 52.7652H46.8489C46.43 53.6451 46.1946 54.6285 46.1946 55.6662C46.1946 59.4 49.2323 62.4377 52.966 62.4377C56.6999 62.4377 59.7376 59.3999 59.7376 55.6662C59.7376 54.5881 59.483 53.5687 59.0329 52.663C59.7985 52.4052 60.3505 51.6831 60.3505 50.8307C60.3505 49.7623 59.4843 48.8961 58.4159 48.8961H19.5786ZM31.4183 55.6674C31.4183 57.2677 30.1165 58.5696 28.5162 58.5696C26.9158 58.5696 25.614 57.2677 25.614 55.6674C25.614 54.068 26.9145 52.7666 28.5137 52.7653H28.5186C30.1178 52.7666 31.4183 54.068 31.4183 55.6674ZM52.9662 58.5685C51.366 58.5685 50.064 57.2665 50.064 55.6664C50.064 54.0819 51.3406 52.7907 52.9191 52.7653H53.0134C54.592 52.7907 55.8686 54.0819 55.8686 55.6664C55.8685 57.2665 54.5665 58.5685 52.9662 58.5685ZM62.6212 19.5881C62.6327 19.6026 62.631 19.6094 62.6286 19.6205L60.6502 28.1876H53.951L55.0918 19.5434L62.5915 19.5735C62.603 19.5738 62.6099 19.5738 62.6212 19.5881ZM42.6759 40.6961V32.0569H49.5376L48.3975 40.6961H42.6759ZM33.0825 40.6961L31.9331 32.0569H38.8067V40.6961H33.0825ZM24.1764 40.6961H24.1704C23.6988 40.696 23.2834 40.3779 23.1607 39.9249L21.0401 32.0569H28.0297L29.1791 40.6961H24.1764ZM31.4182 28.1878L30.2547 19.4434L38.8065 19.4778V28.1878H31.4182ZM42.6759 28.1878V19.4934L51.1911 19.5278L50.0482 28.1878H42.6759ZM26.3493 19.4275L27.5148 28.1876H19.9972L17.6267 19.3923L26.3493 19.4275ZM56.9982 40.6961H52.3001L53.4403 32.0569H59.7566L57.9332 39.9523C57.8321 40.3903 57.4476 40.6961 56.9982 40.6961Z" fill="#BE8D28"/>
</g>
<defs>
<clipPath id="clip0_5508_15812">
<rect width="66" height="66" fill="white" transform="translate(0.5)"/>
</clipPath>
</defs>
</svg>
