<svg width="57" height="56" viewBox="0 0 57 56" fill="none" xmlns="http://www.w3.org/2000/svg">
<path d="M40.9261 33.5598L40.4057 36.5928C40.3581 36.8704 40.4722 37.1509 40.7 37.3164C40.9277 37.4819 41.2296 37.5038 41.479 37.3727L44.2031 35.9407L46.9269 37.3727C47.0352 37.4297 47.1534 37.4577 47.271 37.4577C47.4245 37.4577 47.5771 37.41 47.706 37.3163C47.9338 37.1508 48.048 36.8704 48.0002 36.5928L47.4801 33.5597L49.6837 31.4116C49.8854 31.2151 49.9579 30.921 49.8709 30.6532C49.7839 30.3854 49.5524 30.1902 49.2737 30.1497L46.2283 29.7071L44.8663 26.9476C44.7416 26.6951 44.4845 26.5352 44.2029 26.5352C43.9212 26.5352 43.6641 26.6951 43.5394 26.9476L42.1772 29.7071L39.1319 30.1497C38.8534 30.1902 38.6218 30.3855 38.5348 30.6532C38.4477 30.9209 38.5204 31.215 38.7219 31.4116L40.9261 33.5598ZM42.7753 31.1154C43.0162 31.0805 43.2245 30.9291 43.3322 30.7107L44.2031 28.9465L45.0737 30.7107C45.1815 30.9291 45.3897 31.0804 45.6306 31.1154L47.5775 31.3983L46.1687 32.7717C45.9943 32.9417 45.9148 33.1865 45.956 33.4265L46.2886 35.3655L44.5473 34.4501C44.4395 34.3934 44.3213 34.3651 44.2031 34.3651C44.0849 34.3651 43.9666 34.3934 43.8588 34.4501L42.1175 35.3655L42.4501 33.4266C42.4913 33.1865 42.4117 32.9417 42.2374 32.7716L40.8286 31.3983L42.7753 31.1154Z" fill="#BE8D28"/>
<path d="M9.75564 26.1457L9.2353 29.1787C9.18766 29.4563 9.30178 29.7368 9.52955 29.9024C9.75732 30.0679 10.0593 30.0899 10.3086 29.9587L13.0327 28.5267L15.7565 29.9587C15.8648 30.0156 15.983 30.0436 16.1006 30.0436C16.2541 30.0436 16.4067 29.996 16.5356 29.9023C16.7634 29.7367 16.8775 29.4563 16.8298 29.1787L16.3097 26.1456L18.5133 23.9975C18.715 23.801 18.7875 23.5069 18.7005 23.2391C18.6135 22.9713 18.3819 22.7761 18.1033 22.7357L15.0579 22.2931L13.6959 19.5335C13.5712 19.281 13.3141 19.1211 13.0325 19.1211C12.7508 19.1211 12.4937 19.281 12.369 19.5335L11.0068 22.2931L7.96153 22.7357C7.68296 22.7761 7.45134 22.9714 7.36434 23.2391C7.27734 23.5069 7.34994 23.8009 7.55147 23.9975L9.75564 26.1457ZM11.6049 23.7015C11.8458 23.6666 12.0541 23.5151 12.1618 23.2967L13.0327 21.5325L13.9033 23.2967C14.0111 23.5151 14.2193 23.6665 14.4602 23.7015L16.4071 23.9844L14.9983 25.3578C14.8239 25.5277 14.7444 25.7726 14.7856 26.0126L15.1182 27.9515L13.3769 27.0361C13.2691 26.9795 13.1509 26.9512 13.0327 26.9512C12.9145 26.9512 12.7962 26.9795 12.6884 27.0361L10.947 27.9515L11.2797 26.0127C11.3209 25.7726 11.2413 25.5277 11.067 25.3578L9.65818 23.9844L11.6049 23.7015Z" fill="#BE8D28"/>
<path d="M24.4913 7.60709V8.50642C24.4913 10.6181 26.0264 12.3768 28.0389 12.7285V14.8037C26.2259 15.0988 24.7887 16.5246 24.4758 18.3315H23.4403C22.4862 18.3315 22.4862 19.8112 23.4403 19.8112H34.0618C35.016 19.8112 35.016 18.3315 34.0618 18.3315H32.9961C32.6881 16.5532 31.291 15.1444 29.5186 14.819V12.7284C31.5311 12.3768 33.0662 10.618 33.0662 8.50632V7.5993C34.0107 7.47225 34.7614 7.09286 35.3027 6.4655C36.3981 5.19587 36.1476 3.40609 36.1364 3.33063C36.0826 2.96792 35.7713 2.69922 35.4045 2.69922H32.3263H32.2908H25.2312C25.2278 2.69922 25.2247 2.69971 25.2213 2.69971C25.218 2.69971 25.2148 2.69922 25.2115 2.69922H22.0976C21.7309 2.69922 21.4195 2.96792 21.3658 3.33063C21.3546 3.40619 21.1042 5.19587 22.1995 6.4655C22.7513 7.10529 23.5204 7.48773 24.4913 7.60709ZM31.4834 18.3316H25.9884C26.3149 17.1205 27.4229 16.2264 28.736 16.2264C30.0488 16.2264 31.1569 17.1204 31.4834 18.3316ZM34.1822 5.499C33.9212 5.80153 33.5472 6.00217 33.0661 6.09963V4.17886H34.6773C34.6425 4.58221 34.5246 5.10206 34.1822 5.499ZM25.9709 4.17886H31.5865V6.82209C31.5832 6.8503 31.581 6.87891 31.581 6.90811C31.581 6.93731 31.5831 6.96581 31.5865 6.99412V8.50642C31.5865 10.0545 30.3269 11.3141 28.7787 11.3141C27.2305 11.3141 25.9709 10.0545 25.9709 8.50642V4.17886ZM24.4913 4.17886V6.10989C23.9867 6.01756 23.5956 5.81564 23.325 5.50501C22.9787 5.10768 22.8599 4.58438 22.8249 4.17886H24.4913Z" fill="#BE8D28"/>
<path d="M53.2614 51.8217H52.1188V42.1279C52.1188 41.079 51.2657 40.2257 50.2171 40.2257H37.4875C37.3056 40.2257 37.1301 40.253 36.9634 40.3009V24.6814C36.9634 23.6326 36.1105 22.7793 35.0622 22.7793H22.3326C21.2843 22.7793 20.4315 23.6326 20.4315 24.6814V32.5453C20.2955 32.5144 20.1548 32.4965 20.0097 32.4965H7.28013C6.23156 32.4965 5.37849 33.3496 5.37849 34.3982V40.1819C5.37849 41.136 6.85813 41.136 6.85813 40.1819V34.3982C6.85813 34.1655 7.04743 33.9761 7.28013 33.9761H20.0096C20.2422 33.9761 20.4314 34.1655 20.4314 34.3982V51.8217H6.85813V43.8316C6.85813 42.8775 5.37849 42.8775 5.37849 43.8316V51.8217H4.23591C3.82724 51.8217 3.49609 52.1528 3.49609 52.5615C3.49609 52.9702 3.82724 53.3013 4.23591 53.3013H53.2614C53.67 53.3013 54.0012 52.9702 54.0012 52.5615C54.0012 52.1528 53.6699 51.8217 53.2614 51.8217ZM21.911 51.8217V34.3982V24.6814C21.911 24.4485 22.1001 24.2589 22.3325 24.2589H35.0622C35.2946 24.2589 35.4838 24.4485 35.4838 24.6814V51.8218H21.911V51.8217ZM37.0658 51.8217V42.1279C37.0658 41.895 37.255 41.7054 37.4875 41.7054H50.217C50.4497 41.7054 50.639 41.895 50.639 42.1279V51.8217H37.0658Z" fill="#BE8D28"/>
</svg>
