<svg width="57" height="56" viewBox="0 0 57 56" fill="none" xmlns="http://www.w3.org/2000/svg">
<g clip-path="url(#clip0_5508_15661)">
<path d="M47.6259 17.5665L44.9967 14.3767C44.6357 13.9387 44.4161 13.409 44.3622 12.8446L43.9657 8.72977C43.7598 6.59184 42.0585 4.89056 39.9206 4.68463L35.8058 4.28857C35.2414 4.23431 34.7116 4.01471 34.2737 3.65411L31.0839 1.02442C29.4266 -0.341475 27.0208 -0.341475 25.3635 1.02442L22.1737 3.65411C21.7362 4.01471 21.2064 4.23431 20.6416 4.28857L16.5268 4.68463C14.3889 4.89056 12.688 6.59184 12.4817 8.72977L12.0856 12.8446C12.0314 13.409 11.8118 13.9387 11.4512 14.3767L8.82148 17.5665C7.45558 19.2237 7.45558 21.6296 8.82148 23.2868L11.4512 26.4766C11.8118 26.9146 12.0314 27.4444 12.0856 28.0087L12.4817 32.1235C12.6876 34.2615 14.3889 35.9623 16.5268 36.1687L19.042 36.4109L13.0662 50.6907C12.9042 51.0795 12.9773 51.517 13.2571 51.8323C13.537 52.1472 13.9621 52.2719 14.3663 52.157L19.5509 50.6933C19.5735 50.6869 19.5953 50.6967 19.6056 50.7151L22.2019 55.4361C22.395 55.7877 22.7561 55.9996 23.1534 55.9996C23.1722 55.9996 23.191 55.9992 23.2102 55.9984C23.6302 55.977 23.9934 55.7232 24.1596 55.3319L30.4687 40.2544C30.6827 40.1314 30.8886 39.99 31.0843 39.8289L34.2741 37.1996C34.6779 36.8664 35.1611 36.6557 35.6768 36.5823L41.3912 50.2366L37.3473 49.095C36.5783 48.8783 35.7729 49.2154 35.3871 49.9148L33.3624 53.5964L30.6797 47.1856C30.5024 46.7622 30.0162 46.5631 29.5928 46.74C29.1698 46.9169 28.9703 47.4035 29.1476 47.8265L32.29 55.3361C32.4545 55.7232 32.8172 55.977 33.2376 55.9984C33.2569 55.9992 33.2757 56.0001 33.2945 56.0001C33.6918 56.0001 34.0528 55.7877 34.2459 55.4361L36.8419 50.7159C36.8526 50.6967 36.8748 50.6877 36.8966 50.6933L42.0803 52.157C42.4853 52.2715 42.9109 52.1472 43.1903 51.8323C43.4701 51.517 43.5432 51.0799 43.3808 50.6899L37.4054 36.4105L39.9206 36.1683C42.0585 35.9623 43.7598 34.2615 43.9657 32.1235L44.3622 28.0083C44.4161 27.4439 44.6357 26.9146 44.9967 26.4766L47.6259 23.2868C48.9923 21.6296 48.9923 19.2237 47.6259 17.5665ZM23.0855 53.5964L21.0603 49.914C20.6749 49.215 19.8687 48.8779 19.1001 49.095L15.0567 50.2361L20.7706 36.5823C21.2868 36.6557 21.77 36.8664 22.1737 37.1992L25.3635 39.8289C26.1924 40.512 27.2079 40.8534 28.2239 40.8534C28.2893 40.8534 28.3542 40.8517 28.4196 40.8487L23.0855 53.5964ZM46.3446 22.2307L43.7154 25.4205C43.1429 26.1143 42.7951 26.9543 42.7088 27.8494L42.3127 31.9642C42.1828 33.3126 41.11 34.3854 39.7617 34.5152L36.1472 34.8634C36.1331 34.8643 36.1185 34.8656 36.1044 34.8677L35.6469 34.9117C34.7514 34.998 33.9114 35.3458 33.2176 35.9179L30.0278 38.5471C28.9827 39.4089 27.4651 39.4089 26.4201 38.5471L23.2303 35.9179C22.5365 35.3458 21.6965 34.9976 20.801 34.9117L20.3413 34.8673C20.3285 34.8656 20.3161 34.8647 20.3032 34.8639L16.6862 34.5152C15.3378 34.3854 14.265 33.3126 14.1351 31.9642L13.7391 27.8498C13.6528 26.9543 13.305 26.1143 12.7325 25.4205L10.1032 22.2307C9.24146 21.1852 9.24146 19.6677 10.1032 18.6226L12.7325 15.4328C13.305 14.739 13.6528 13.899 13.7391 13.0035L14.1351 8.88871C14.265 7.54033 15.3378 6.46752 16.6862 6.33763L20.801 5.94158C21.6965 5.85528 22.5365 5.5075 23.2303 4.93542L26.4201 2.30616C26.9426 1.8755 27.5835 1.65974 28.2239 1.65974C28.8644 1.65974 29.5052 1.87507 30.0278 2.30616L33.2176 4.93542C33.9114 5.5075 34.7514 5.8557 35.6469 5.94158L39.7617 6.33763C41.11 6.46752 42.1828 7.54033 42.3127 8.88871L42.7088 13.0035C42.7951 13.899 43.1429 14.739 43.7154 15.4328L46.3446 18.6226C47.206 19.6681 47.206 21.1852 46.3446 22.2307Z" fill="#BE8D28"/>
<path d="M28.2239 7.45508C27.6693 7.45508 27.1113 7.49011 26.5645 7.56018C26.1099 7.61829 25.7882 8.03442 25.8463 8.48901C25.9044 8.94402 26.3209 9.26531 26.7751 9.20763C27.2519 9.14654 27.7394 9.11578 28.2239 9.11578C34.4612 9.11578 39.5356 14.1902 39.5356 20.4275C39.5356 26.6648 34.4608 31.7388 28.2239 31.7388C21.9865 31.7388 16.9122 26.6644 16.9122 20.4271C16.9122 15.9782 19.5354 11.9258 23.5951 10.1027C24.0134 9.91515 24.2005 9.42339 24.0125 9.00512C23.8245 8.58642 23.3328 8.39972 22.9149 8.5877C18.2593 10.6782 15.2515 15.3253 15.2515 20.4271C15.2515 27.5804 21.071 33.3995 28.2239 33.3995C35.3768 33.3995 41.1963 27.5804 41.1963 20.4271C41.1963 13.2741 35.3768 7.45508 28.2239 7.45508Z" fill="#BE8D28"/>
<path d="M19.9768 19.4649C18.9869 20.4548 18.9869 22.066 19.9768 23.0559L23.6037 26.6832C24.0835 27.1626 24.7209 27.4266 25.3994 27.4266C26.0774 27.4266 26.7153 27.1626 27.1951 26.6832L35.1124 18.7655C36.1023 17.7751 36.1023 16.1644 35.1124 15.1741C34.1224 14.1842 32.5113 14.1842 31.521 15.1741L25.3994 21.2961L23.5678 19.4649C22.5779 18.475 20.9667 18.475 19.9768 19.4649ZM25.3994 23.3011C25.6194 23.3011 25.8305 23.2135 25.9864 23.0576L32.6955 16.3486C33.0381 16.0059 33.5952 16.0064 33.9379 16.3486C34.2805 16.6912 34.2805 17.2488 33.9379 17.591L26.0206 25.5087C25.8548 25.6745 25.634 25.7659 25.3994 25.7659C25.1644 25.7659 24.944 25.6745 24.7782 25.5087L21.1509 21.8818C20.8087 21.5392 20.8087 20.9816 21.1509 20.6394C21.3222 20.4681 21.5474 20.3822 21.7725 20.3822C21.9973 20.3822 22.2224 20.4681 22.3933 20.639L24.8119 23.0576C24.9679 23.2135 25.1789 23.3011 25.3994 23.3011Z" fill="#BE8D28"/>
</g>
<defs>
<clipPath id="clip0_5508_15661">
<rect width="56" height="56" fill="white" transform="translate(0.25)"/>
</clipPath>
</defs>
</svg>
