<svg width="67" height="66" viewBox="0 0 67 66" fill="none" xmlns="http://www.w3.org/2000/svg">
<g clip-path="url(#clip0_5508_15820)">
<path d="M60.9312 0H6.06875C2.9982 0 0.5 2.4982 0.5 5.56875V18.146C0.5 21.2166 2.9982 23.7148 6.06875 23.7148H8.23953C8.23953 36.6572 8.24005 35.8861 8.24005 36.0626C7.63264 35.8477 6.98063 35.7301 6.30336 35.7301C3.10236 35.7302 0.5 38.3187 0.5 41.5336C0.5 41.5345 0.500129 41.5353 0.500129 41.536V50.8812C0.500129 59.2179 7.28227 66 15.6188 66H28.3551C36.6915 66 43.4736 59.2179 43.4736 50.8814C43.4736 40.7029 43.4758 39.2391 43.4706 39.145C43.2973 35.9566 40.668 33.455 37.4716 33.455C36.5892 33.455 35.7516 33.6481 34.9961 33.9918C33.9037 30.8897 30.4374 29.3108 27.3843 30.5258C26.5102 27.2932 23.043 25.4402 19.8461 26.5754V23.7149H60.9312C64.0018 23.7149 66.5 21.2167 66.5 18.1461V5.56875C66.5 2.4982 64.0018 0 60.9312 0ZM4.36719 18.1461V5.56875C4.36719 4.63057 5.13057 3.86719 6.06875 3.86719H40.9879V19.8477H19.8268C19.5928 16.8188 17.0365 14.4298 13.9051 14.4991C10.9592 14.5676 8.53228 16.9195 8.26505 19.8477H6.06875C5.13057 19.8477 4.36719 19.0843 4.36719 18.1461ZM21.7823 30.1104C22.8505 30.1104 23.7185 30.9789 23.7185 32.0514V35.926C23.7185 35.9294 23.719 35.9326 23.719 35.936V41.9786C23.719 43.0464 24.5847 43.9122 25.6526 43.9122C26.7204 43.9122 27.5862 43.0464 27.5862 41.9786V35.9161C27.5916 34.8504 28.4574 33.9851 29.5218 33.9851C30.5899 33.9851 31.458 34.8537 31.458 35.9262C31.458 35.9369 31.4585 36.0726 31.4585 41.9787C31.4585 43.0466 32.3242 43.9123 33.3921 43.9123C34.46 43.9123 35.3257 43.0466 35.3257 41.9787C35.3257 41.9787 35.332 41.1252 35.332 39.4714C35.332 38.2866 36.2919 37.3225 37.4719 37.3225C38.5964 37.3225 39.5302 38.1935 39.6068 39.3296V50.8816C39.6068 57.0857 34.5595 62.1331 28.3555 62.1331H15.6192C9.41503 62.1331 4.3677 57.0857 4.3677 50.8816V41.5336C4.3677 41.5332 4.3677 41.5327 4.3677 41.5323C4.36835 40.4525 5.24298 39.5973 6.30375 39.5973C7.37663 39.5973 8.24005 40.4632 8.24005 41.5336V48.2818C8.24005 49.3497 9.10578 50.2154 10.1736 50.2154C11.2414 50.2154 12.1077 49.3494 12.1077 48.2813C12.1077 47.5237 12.1072 21.1433 12.1072 20.3843C12.1072 19.2952 12.9541 18.3894 13.9955 18.3653C15.0895 18.3386 15.9794 19.2202 15.9794 20.3056C15.9794 21.1856 15.98 40.9504 15.98 41.9786C15.98 43.0464 16.8457 43.9122 17.9136 43.9122C18.9814 43.9122 19.8472 43.0464 19.8472 41.9786V32.0415C19.8521 30.9757 20.7179 30.1104 21.7823 30.1104ZM62.6328 18.1461C62.6328 19.0843 61.8694 19.8477 60.9312 19.8477H44.8551V3.86719H60.9312C61.8694 3.86719 62.6328 4.63057 62.6328 5.56875V18.1461Z" fill="#BE8D28"/>
<path d="M56.5034 7.7304L52.3514 11.8825L50.9844 10.5155C50.2294 9.76054 49.0051 9.76054 48.2499 10.5155C47.4948 11.2705 47.4948 12.4949 48.2499 13.25L50.9842 15.9843C51.7393 16.7394 52.9635 16.7394 53.7187 15.9843L59.2379 10.465C59.993 9.71001 59.993 8.48566 59.2379 7.73052C58.4829 6.97526 57.2586 6.97526 56.5034 7.7304Z" fill="#BE8D28"/>
<path d="M10.1681 11.6016H35.1871C36.255 11.6016 37.1207 10.7358 37.1207 9.66797C37.1207 8.60011 36.255 7.73438 35.1871 7.73438H10.1681C9.10023 7.73438 8.2345 8.60011 8.2345 9.66797C8.2345 10.7358 9.10023 11.6016 10.1681 11.6016Z" fill="#BE8D28"/>
</g>
<defs>
<clipPath id="clip0_5508_15820">
<rect width="66" height="66" fill="white" transform="translate(0.5)"/>
</clipPath>
</defs>
</svg>
