<svg width="65" height="64" viewBox="0 0 65 64" fill="none" xmlns="http://www.w3.org/2000/svg">
<path d="M64.427 55.6677L62.3879 49.7875C62.5545 48.7638 62.8005 46.034 61.3564 43.5343L53.1841 29.3773C52.1129 27.5204 49.685 26.9094 47.7649 28.0203C47.2095 28.3378 46.781 28.7821 46.4716 29.29C45.2576 28.4965 43.6311 28.4092 42.2585 29.2027C41.7507 29.4963 41.3222 29.8852 40.9969 30.3296C40.5843 30.0201 40.1083 29.7979 39.5925 29.6709C39.1641 29.5678 38.7197 29.544 38.2913 29.5757L48.1537 18.4025C48.1854 18.3707 48.2092 18.3311 48.241 18.2914C48.2489 18.2755 48.2568 18.2676 48.2648 18.2517C48.3044 18.1882 48.3441 18.1247 48.3758 18.0533C48.3838 18.0295 48.3917 18.0136 48.3997 17.9898C48.4235 17.9343 48.4393 17.8787 48.4473 17.8232C48.4552 17.7994 48.4552 17.7756 48.4631 17.7518C48.479 17.6724 48.4869 17.5931 48.4869 17.5137C48.4869 17.5137 48.4869 17.5137 48.4869 17.5058V9.70515C48.4869 9.68927 48.4869 9.6734 48.479 9.66547C48.479 9.60198 48.4711 9.54644 48.4631 9.48295C48.4552 9.45915 48.4552 9.43534 48.4473 9.41153C48.4314 9.34011 48.4076 9.26869 48.3838 9.20521C48.3838 9.19727 48.3758 9.18934 48.3758 9.1814C48.3441 9.10998 48.3124 9.0465 48.2727 8.98301C48.2568 8.95921 48.241 8.94334 48.2251 8.91953C48.1934 8.87985 48.1616 8.84017 48.1219 8.8005C48.1061 8.77669 48.0823 8.76082 48.0585 8.73701C48.0426 8.72114 48.0347 8.7132 48.0188 8.69733L38.3468 0.317421C38.2913 0.269808 38.2278 0.23013 38.1643 0.198388C38.1405 0.182517 38.1247 0.166646 38.1009 0.15871C38.0057 0.111097 37.9104 0.0714193 37.8073 0.0476127C37.7835 0.0396772 37.7518 0.0396776 37.728 0.0317421C37.6486 0.015871 37.5772 0.00793552 37.4979 0C37.4899 0 37.482 0 37.4741 0H24.5014H24.4935H11.5208C11.5129 0 11.5049 0 11.497 0C11.4177 0 11.3463 0.015871 11.2669 0.0317421C11.2352 0.0396776 11.2034 0.0396772 11.1796 0.0476127C11.0765 0.0714193 10.9813 0.111097 10.894 0.15871C10.8623 0.174581 10.8305 0.206323 10.7988 0.222194C10.7512 0.253937 10.6956 0.285679 10.656 0.317421L0.960192 8.6894C0.944323 8.70527 0.936389 8.71321 0.92052 8.72908C0.896717 8.74495 0.880848 8.76875 0.857045 8.79256C0.817374 8.83224 0.785636 8.87192 0.753899 8.91159C0.73803 8.9354 0.722162 8.95127 0.706293 8.97508C0.666621 9.03856 0.62695 9.10205 0.603147 9.17347C0.603147 9.1814 0.595212 9.18934 0.595212 9.20521C0.571409 9.26869 0.547606 9.34011 0.531737 9.41153C0.523803 9.4274 0.523803 9.45121 0.523803 9.47502C0.515868 9.53056 0.507935 9.59405 0.507935 9.65753C0.507935 9.6734 0.5 9.68927 0.5 9.69721V17.5137V17.5216C0.5 17.601 0.507934 17.6803 0.523803 17.7597C0.531737 17.7835 0.531738 17.8073 0.539672 17.8311C0.555541 17.8867 0.571409 17.9422 0.595212 17.9978C0.603146 18.0216 0.611081 18.0374 0.619015 18.0613C0.650752 18.1327 0.68249 18.1962 0.730096 18.2596C0.73803 18.2755 0.745964 18.2834 0.753899 18.2993C0.777702 18.339 0.80944 18.3707 0.841177 18.4104L23.5017 44.066C23.5096 44.0739 23.5255 44.0818 23.5334 44.0977C23.5493 44.1215 23.5731 44.1374 23.5889 44.1533C23.5969 44.1612 23.6128 44.1771 23.6207 44.185C23.6366 44.2009 23.6604 44.2167 23.6842 44.2326C23.708 44.2485 23.7318 44.2644 23.7556 44.2882C23.7794 44.304 23.8032 44.3278 23.827 44.3358C23.8349 44.3437 23.8508 44.3437 23.8666 44.3516C23.8825 44.3596 23.9063 44.3675 23.9222 44.3834C23.9777 44.4072 24.0333 44.431 24.0888 44.4469C24.1206 44.4548 24.1523 44.4707 24.184 44.4786C24.1999 44.4786 24.2078 44.4866 24.2237 44.4866C24.311 44.5024 24.3983 44.5104 24.4855 44.5104C24.5014 44.5104 24.5173 44.5104 24.5252 44.5024C24.6045 44.5024 24.6839 44.4945 24.7553 44.4786C24.7712 44.4786 24.7791 44.4707 24.787 44.4707C24.8188 44.4627 24.8505 44.4469 24.8822 44.4389C24.9299 44.4231 24.9775 44.4151 25.0171 44.3913C25.0409 44.3834 25.0647 44.3675 25.0885 44.3516C25.1044 44.3437 25.1203 44.3437 25.1361 44.3278C25.1599 44.312 25.1838 44.2961 25.2076 44.2802C25.2234 44.2723 25.2393 44.2644 25.2552 44.2485C25.2631 44.2405 25.271 44.2326 25.279 44.2247C25.3345 44.185 25.3821 44.1374 25.4297 44.0898C25.4377 44.0818 25.4535 44.0739 25.4615 44.058L30.5077 38.3445L33.2292 43.0502C32.5151 43.1931 31.8486 43.5263 31.2853 44.0422C29.9206 45.288 29.6349 47.3989 30.595 49.0653L34.9509 56.612C36.1649 58.707 38.3627 59.9291 40.8144 59.945L44.25 60.3735L46.5747 63.4683C46.8366 63.8175 47.2333 64 47.638 64C47.9157 64 48.2013 63.9127 48.4393 63.7302C48.9392 63.3572 49.0979 62.6986 48.8598 62.1431C48.8202 62.0479 48.7646 61.9526 48.7012 61.8574L46.0352 58.3102C45.821 58.0246 45.4957 57.8341 45.1386 57.7865L41.0445 57.2786C40.9731 57.2707 40.9096 57.2627 40.8382 57.2707C39.3386 57.3104 37.9898 56.5485 37.2519 55.2709L32.8959 47.7242C32.5627 47.1449 32.642 46.4069 33.0784 46.0102C33.4434 45.6769 33.8243 45.6293 34.0861 45.6451C34.4511 45.6689 34.7922 45.8435 35.0223 46.1213C35.0541 46.1609 35.0858 46.1848 35.1175 46.2165C35.1334 46.2482 35.1414 46.28 35.1572 46.3038L37.8232 50.9223C38.0691 51.3508 38.5214 51.5888 38.9816 51.5888C39.2037 51.5888 39.4338 51.5333 39.6481 51.4143C40.2828 51.0492 40.505 50.2319 40.14 49.5891L37.4741 44.9706C37.4106 44.8595 37.3312 44.7722 37.244 44.6849C37.2281 44.6532 37.2202 44.6215 37.2043 44.5976L32.3723 36.2336L31.7058 35.0274L30.9996 33.8053L29.7301 31.6072L28.8335 30.0598L27.9449 28.5123L26.9452 26.7745C26.7865 26.5046 26.7548 26.1793 26.85 25.8619C26.9531 25.5206 27.1832 25.235 27.5006 25.0445C28.0322 24.735 28.6669 24.8064 29.0636 25.1715C29.143 25.2429 29.2223 25.3302 29.2779 25.4334L29.9761 26.6475L30.8727 28.1949L32.888 31.6786L33.5942 32.9007L34.3003 34.1228L35.0858 35.4877C35.1096 35.5194 35.1334 35.5511 35.1572 35.5829L38.5452 41.3361C38.7912 41.7567 39.2355 41.9948 39.6957 41.9948C39.9258 41.9948 40.1559 41.9392 40.3701 41.8123C41.0048 41.4393 41.2191 40.6219 40.8461 39.9871L37.363 34.0751C37.0932 33.5038 37.3392 32.7817 37.9501 32.4246C38.2675 32.242 38.6404 32.1786 38.9816 32.2658C39.3069 32.3452 39.5687 32.5356 39.7274 32.8055L40.4653 34.0831L40.4732 34.091L40.7509 34.5671C40.7589 34.583 40.7747 34.5989 40.7827 34.6148L43.163 38.6619C43.4089 39.0825 43.8533 39.3205 44.3135 39.3205C44.5436 39.3205 44.7737 39.265 44.9879 39.138C45.6226 38.765 45.8369 37.9477 45.4639 37.3128L43.044 33.2022C42.7345 32.6229 42.9884 31.8691 43.6152 31.512C44.2579 31.139 45.0514 31.3136 45.4005 31.9087L46.4478 33.6784L48.4473 37.1462C48.6932 37.5747 49.1455 37.8128 49.6057 37.8128C49.8278 37.8128 50.0579 37.7572 50.2722 37.6382C50.9069 37.2732 51.1291 36.4558 50.7641 35.813L48.7646 32.3452C48.4155 31.7342 48.5107 30.6867 49.1296 30.3375C49.7723 29.9645 50.5657 30.1391 50.9069 30.7184L59.0793 44.8675C60.325 47.018 59.7537 49.5574 59.7458 49.5812C59.6823 49.8272 59.6982 50.089 59.7854 50.3271L61.9356 56.5406C61.9436 56.5723 61.9594 56.5962 61.9753 56.62C62.2451 57.2627 62.9671 57.5881 63.6336 57.358C64.3001 57.1278 64.6651 56.366 64.427 55.6677ZM26.1676 22.7353C25.2472 23.267 24.5807 24.1081 24.2872 25.108C23.9857 26.1317 24.1126 27.195 24.6363 28.1076L26.8262 31.9087L24.4935 38.9396L17.8365 18.8469H31.1504L29.9206 22.5607C28.778 22.029 27.3736 22.0449 26.1676 22.7353ZM29.143 35.9162L27.818 37.416L28.6193 35.0036L29.143 35.9162ZM4.78455 18.8548H15.0357L16.3211 22.7353L21.1848 37.416L4.78455 18.8548ZM21.2404 2.66634L16.329 7.49907L13.7424 2.66634H21.2404ZM35.2524 2.66634L32.6658 7.49907L27.7545 2.66634H35.2524ZM3.16594 11.0383H14.6707V16.1885H3.16594V11.0383ZM17.3287 11.0383H31.6661V16.1885H17.3287V11.0383ZM45.8369 16.1885H34.3321V11.0383H45.8289V16.1885H45.8369ZM19.2568 8.36404L24.5014 3.19802L29.746 8.36404H19.2568ZM35.8634 8.36404H35.2207L37.8628 3.42815L37.9739 3.52337L43.5835 8.36404H35.8634ZM11.0924 3.46782L11.132 3.42815L13.7742 8.36404H13.5203H5.41929L11.0924 3.46782ZM33.9591 18.8548H44.2103L34.7446 29.5678L31.9914 24.7985L33.9591 18.8548Z" fill="#BE8D28"/>
</svg>
