<svg width="57" height="78" viewBox="0 0 57 78" fill="none" xmlns="http://www.w3.org/2000/svg">
<path fill-rule="evenodd" clip-rule="evenodd" d="M1.58333 42.666C1.84704 42.666 2.10483 42.7442 2.32409 42.8907C2.54336 43.0372 2.71426 43.2455 2.81517 43.4891C2.91609 43.7327 2.94249 44.0008 2.89105 44.2595C2.8396 44.5181 2.71261 44.7557 2.52614 44.9422C2.33967 45.1286 2.10209 45.2556 1.84345 45.3071C1.58481 45.3585 1.31672 45.3321 1.07309 45.2312C0.829453 45.1303 0.621216 44.9594 0.474707 44.7401C0.328199 44.5208 0.25 44.2631 0.25 43.9993C0.25 43.6457 0.390476 43.3066 0.640524 43.0565C0.890573 42.8065 1.22971 42.666 1.58333 42.666Z" fill="#be8d28"/>
<path d="M29.5833 74.6667H42.9167V70.6667C42.9219 70.4036 42.9954 70.1463 43.13 69.9201L53.5833 54.2667V34.9067C53.0196 35.0971 52.5081 35.4167 52.09 35.8401C51.3396 36.5895 50.9176 37.6062 50.9167 38.6667V48.5867C50.9198 48.7877 50.8756 48.9865 50.7875 49.1672C50.6995 49.3479 50.5702 49.5053 50.41 49.6267L36.4367 63.6001C36.3127 63.725 36.1652 63.8242 36.0028 63.8919C35.8403 63.9596 35.666 63.9945 35.49 63.9945C35.314 63.9945 35.1397 63.9596 34.9772 63.8919C34.8148 63.8242 34.6673 63.725 34.5433 63.6001C34.4158 63.4803 34.3141 63.3358 34.2446 63.1752C34.1751 63.0147 34.1393 62.8416 34.1393 62.6667C34.1393 62.4918 34.1751 62.3187 34.2446 62.1582C34.3141 61.9977 34.4158 61.8531 34.5433 61.7334L40.73 55.5467C40.9853 55.2924 41.1291 54.9471 41.13 54.5867C41.1321 54.4118 41.0976 54.2385 41.0288 54.0777C40.9599 53.917 40.8581 53.7724 40.73 53.6534C40.6103 53.5258 40.4657 53.4242 40.3052 53.3547C40.1447 53.2852 39.9716 53.2493 39.7967 53.2493C39.6217 53.2493 39.4487 53.2852 39.2881 53.3547C39.1276 53.4242 38.983 53.5258 38.8633 53.6534L30.3567 62.1334C30.1095 62.3826 29.914 62.6781 29.7813 63.003C29.6486 63.3279 29.5813 63.6758 29.5833 64.0267V74.6667ZM13.1033 52.8534C13.296 52.447 13.5577 52.0771 13.8767 51.7601C14.6301 51.0174 15.6455 50.6011 16.7033 50.6011C17.7612 50.6011 18.7766 51.0174 19.53 51.7601L28.01 60.2401L28.25 60.4801L28.49 60.2401L36.97 51.7601C37.7234 51.0174 38.7388 50.6011 39.7967 50.6011C40.8545 50.6011 41.8699 51.0174 42.6233 51.7601C42.9423 52.0771 43.204 52.447 43.3967 52.8534L48.25 48.0267V38.6667C48.2465 37.7903 48.4165 36.9218 48.7503 36.1113C49.0841 35.3009 49.575 34.5646 50.1948 33.9448C50.8145 33.3251 51.5508 32.8341 52.3613 32.5003C53.1717 32.1666 54.0402 31.9965 54.9167 32.0001C55.2703 32.0001 55.6094 32.1405 55.8595 32.3906C56.1095 32.6406 56.25 32.9798 56.25 33.3334V54.6667C56.2486 54.9304 56.1748 55.1887 56.0367 55.4134L45.5833 71.0667V74.6667H46.9167C47.2703 74.6667 47.6094 74.8072 47.8595 75.0572C48.1095 75.3073 48.25 75.6464 48.25 76.0001C48.25 76.3537 48.1095 76.6928 47.8595 76.9429C47.6094 77.1929 47.2703 77.3334 46.9167 77.3334H9.58333C9.22971 77.3334 8.89057 77.1929 8.64052 76.9429C8.39048 76.6928 8.25 76.3537 8.25 76.0001C8.25 75.6464 8.39048 75.3073 8.64052 75.0572C8.89057 74.8072 9.22971 74.6667 9.58333 74.6667H10.9167V71.0667L0.463333 55.4134C0.325189 55.1887 0.251394 54.9304 0.25 54.6667V49.3334C0.25 48.9798 0.390476 48.6406 0.640525 48.3906C0.890573 48.1405 1.22971 48.0001 1.58333 48.0001C1.93696 48.0001 2.27609 48.1405 2.52614 48.3906C2.77619 48.6406 2.91667 48.9798 2.91667 49.3334V54.2667L13.37 69.9201C13.5046 70.1463 13.5781 70.4036 13.5833 70.6667V74.6667H26.9167V64.0001C26.9187 63.6491 26.8514 63.3012 26.7187 62.9763C26.586 62.6514 26.3905 62.3559 26.1433 62.1067L17.5833 53.6534C17.4636 53.5258 17.319 53.4242 17.1585 53.3547C16.998 53.2852 16.8249 53.2493 16.65 53.2493C16.4751 53.2493 16.302 53.2852 16.1415 53.3547C15.981 53.4242 15.8364 53.5258 15.7167 53.6534C15.5886 53.7724 15.4868 53.917 15.4179 54.0777C15.349 54.2385 15.3145 54.4118 15.3167 54.5867C15.3168 54.9213 15.4402 55.2441 15.6633 55.4934L21.9033 61.7334C22.0309 61.8531 22.1325 61.9977 22.202 62.1582C22.2715 62.3187 22.3074 62.4918 22.3074 62.6667C22.3074 62.8416 22.2715 63.0147 22.202 63.1752C22.1325 63.3358 22.0309 63.4803 21.9033 63.6001C21.6988 63.7928 21.4366 63.9129 21.1571 63.9418C20.8776 63.9707 20.5963 63.9069 20.3567 63.7601C20.2428 63.7141 20.1421 63.6409 20.0633 63.5467L6.03667 49.6001C5.89781 49.4695 5.78624 49.3128 5.70843 49.1388C5.63061 48.9649 5.58809 48.7772 5.58333 48.5867V38.6667C5.5824 37.6062 5.16036 36.5895 4.41 35.8401C3.99186 35.4167 3.48045 35.0971 2.91667 34.9067V38.6667C2.91667 39.0203 2.77619 39.3595 2.52614 39.6095C2.27609 39.8596 1.93696 40.0001 1.58333 40.0001C1.22971 40.0001 0.890573 39.8596 0.640525 39.6095C0.390476 39.3595 0.25 39.0203 0.25 38.6667V33.3334C0.25 32.9798 0.390476 32.6406 0.640525 32.3906C0.890573 32.1405 1.22971 32.0001 1.58333 32.0001C2.4598 31.9965 3.32829 32.1666 4.13872 32.5003C4.94915 32.8341 5.68548 33.3251 6.30524 33.9448C6.925 34.5646 7.41593 35.3009 7.74972 36.1113C8.0835 36.9218 8.25353 37.7903 8.25 38.6667V48.0267L13.1033 52.8534Z" fill="#be8d28"/>
<path d="M9.58195 26.6667H4.24862C3.89499 26.6667 3.55586 26.5262 3.30581 26.2761C3.05576 26.0261 2.91528 25.687 2.91528 25.3333C2.91528 24.9797 3.05576 24.6406 3.30581 24.3905C3.55586 24.1405 3.89499 24 4.24862 24H9.58195C9.93557 24 10.2747 24.1405 10.5248 24.3905C10.7748 24.6406 10.9153 24.9797 10.9153 25.3333C10.9153 25.687 10.7748 26.0261 10.5248 26.2761C10.2747 26.5262 9.93557 26.6667 9.58195 26.6667Z" fill="#be8d28"/>
<path d="M15.0501 13.4666C14.8753 13.4687 14.7019 13.4342 14.5411 13.3654C14.3804 13.2965 14.2359 13.1947 14.1168 13.0666L10.3301 9.33327C10.2041 9.2072 10.1041 9.05754 10.0358 8.89282C9.96761 8.7281 9.9325 8.55156 9.9325 8.37327C9.9325 8.19498 9.96761 8.01844 10.0358 7.85372C10.1041 7.689 10.2041 7.53934 10.3301 7.41327C10.4562 7.2872 10.6059 7.1872 10.7706 7.11897C10.9353 7.05074 11.1119 7.01562 11.2901 7.01562C11.4684 7.01563 11.645 7.05074 11.8097 7.11897C11.9744 7.1872 12.1241 7.2872 12.2501 7.41327L15.9835 11.1999C16.111 11.3196 16.2127 11.4642 16.2822 11.6248C16.3517 11.7853 16.3875 11.9583 16.3875 12.1333C16.3875 12.3082 16.3517 12.4813 16.2822 12.6418C16.2127 12.8023 16.111 12.9469 15.9835 13.0666C15.8644 13.1947 15.7199 13.2965 15.5591 13.3654C15.3984 13.4342 15.225 13.4687 15.0501 13.4666Z" fill="#be8d28"/>
<path d="M28.2507 8C27.8971 8 27.5579 7.85953 27.3079 7.60948C27.0578 7.35943 26.9174 7.02029 26.9174 6.66667V1.33333C26.9174 0.979712 27.0578 0.640573 27.3079 0.390524C27.5579 0.140476 27.8971 0 28.2507 0C28.6043 0 28.9435 0.140476 29.1935 0.390524C29.4436 0.640573 29.584 0.979712 29.584 1.33333V6.66667C29.584 7.02029 29.4436 7.35943 29.1935 7.60948C28.9435 7.85953 28.6043 8 28.2507 8Z" fill="#be8d28"/>
<path d="M41.584 13.4669C41.4091 13.4691 41.2357 13.4346 41.075 13.3657C40.9142 13.2968 40.7697 13.195 40.6506 13.0669C40.5231 12.9472 40.4214 12.8027 40.3519 12.6421C40.2824 12.4816 40.2466 12.3085 40.2466 12.1336C40.2466 11.9587 40.2824 11.7856 40.3519 11.6251C40.4214 11.4646 40.5231 11.32 40.6506 11.2003L44.2506 7.41361C44.3749 7.28929 44.5225 7.19067 44.685 7.12339C44.8474 7.05611 45.0215 7.02148 45.1973 7.02148C45.3731 7.02148 45.5472 7.05611 45.7096 7.12339C45.8721 7.19067 46.0196 7.28929 46.144 7.41361C46.2683 7.53793 46.3669 7.68551 46.4342 7.84794C46.5015 8.01037 46.5361 8.18446 46.5361 8.36027C46.5361 8.53609 46.5015 8.71018 46.4342 8.87261C46.3669 9.03504 46.2683 9.18262 46.144 9.30694L42.384 13.0669C42.2649 13.195 42.1204 13.2968 41.9596 13.3657C41.7989 13.4346 41.6255 13.4691 41.4506 13.4669H41.584Z" fill="#be8d28"/>
<path d="M52.2497 26.6667H46.9163C46.5627 26.6667 46.2236 26.5262 45.9735 26.2761C45.7235 26.0261 45.583 25.687 45.583 25.3333C45.583 24.9797 45.7235 24.6406 45.9735 24.3905C46.2236 24.1405 46.5627 24 46.9163 24H52.2497C52.6033 24 52.9424 24.1405 53.1925 24.3905C53.4425 24.6406 53.583 24.9797 53.583 25.3333C53.583 25.687 53.4425 26.0261 53.1925 26.2761C52.9424 26.5262 52.6033 26.6667 52.2497 26.6667Z" fill="#be8d28"/>
<path d="M28.2492 47.9999C28.0902 48.0253 27.9282 48.0253 27.7692 47.9999L26.5425 47.4932C22.6967 45.9673 19.4016 43.3151 17.089 39.8842C14.7763 36.4534 13.5541 32.4039 13.5825 28.2665V19.9999C13.5802 19.7358 13.658 19.4773 13.8056 19.2583C13.9531 19.0393 14.1636 18.8702 14.4092 18.7732L27.7425 13.4399C28.0671 13.3065 28.4312 13.3065 28.7559 13.4399L42.0892 18.7732C42.3348 18.8702 42.5452 19.0393 42.6928 19.2583C42.8404 19.4773 42.9181 19.7358 42.9159 19.9999V28.2665C42.9281 32.3903 41.6984 36.4223 39.3868 39.8373C37.0752 43.2523 33.7889 45.8922 29.9558 47.4132L28.7292 47.9199C28.5702 47.9453 28.4082 47.9453 28.2492 47.9199V47.9999ZM16.2492 20.9065V28.2665C16.2357 31.86 17.3046 35.3742 19.3165 38.3516C21.3284 41.3291 24.1902 43.6318 27.5292 44.9599L28.2492 45.2265L28.9425 44.9599C32.2865 43.636 35.154 41.3351 37.1709 38.3573C39.1878 35.3795 40.2605 31.8631 40.2492 28.2665V20.9065L28.2492 16.1065L16.2492 20.9065Z" fill="#be8d28"/>
<path d="M25.5819 34.6669C25.4071 34.6691 25.2337 34.6346 25.0729 34.5657C24.9122 34.4968 24.7677 34.395 24.6486 34.2669L21.9819 31.6003C21.7344 31.3527 21.5953 31.017 21.5953 30.6669C21.5953 30.3169 21.7344 29.9811 21.9819 29.7336C22.2295 29.4861 22.5652 29.347 22.9153 29.347C23.2653 29.347 23.6011 29.4861 23.8486 29.7336L25.5819 31.4403L32.6486 24.4003C32.7712 24.2777 32.9167 24.1805 33.0768 24.1141C33.237 24.0478 33.4086 24.0137 33.5819 24.0137C33.7553 24.0137 33.9269 24.0478 34.087 24.1141C34.2472 24.1805 34.3927 24.2777 34.5153 24.4003C34.6378 24.5228 34.7351 24.6683 34.8014 24.8285C34.8677 24.9886 34.9019 25.1603 34.9019 25.3336C34.9019 25.5069 34.8677 25.6786 34.8014 25.8387C34.7351 25.9989 34.6378 26.1444 34.5153 26.2669L26.5153 34.2669C26.3962 34.395 26.2517 34.4968 26.0909 34.5657C25.9302 34.6346 25.7568 34.6691 25.5819 34.6669Z" fill="#be8d28"/>
</svg>
