<svg width="20" height="20" viewBox="0 0 20 20" fill="none" xmlns="http://www.w3.org/2000/svg">
<path d="M4.71312 19.9991C4.42605 19.9991 4.14485 19.9177 3.90215 19.7644C3.69201 19.6319 3.5176 19.4498 3.39421 19.2342C3.27081 19.0186 3.20221 18.776 3.19441 18.5277L3.14516 16.9109C1.11754 15.0928 0 12.5402 0 9.72367C0 7.03551 1.03043 4.56344 2.90117 2.76273C4.75234 0.981172 7.27344 0 10 0C12.7266 0 15.2477 0.981133 17.0988 2.76277C18.9696 4.56344 20 7.03551 20 9.72367C20 12.4116 18.9696 14.8837 17.0988 16.6844C15.2477 18.4661 12.7266 19.4473 10 19.4473C9.01703 19.4473 8.05508 19.3202 7.14082 19.0697L5.32578 19.8705C5.13266 19.9553 4.92404 19.9991 4.71312 19.9991ZM10 1.5625C5.18984 1.5625 1.5625 5.07094 1.5625 9.72367C1.5625 12.0935 2.49832 14.2358 4.19754 15.7559C4.51094 16.0382 4.69086 16.4206 4.70598 16.8344L4.70613 16.8393L4.75434 18.4148L6.52387 17.634C6.8425 17.4937 7.20184 17.4667 7.53648 17.558C8.32289 17.775 9.15102 17.8847 10 17.8847C14.8102 17.8847 18.4375 14.3762 18.4375 9.72367C18.4375 5.07094 14.8102 1.5625 10 1.5625ZM5.08348 12.9152L8.00324 10.6641C8.20051 10.516 8.47215 10.5141 8.67125 10.6622L10.8318 12.3416C11.4793 12.8248 12.4062 12.6544 12.8378 11.9731L15.5534 7.6668C15.8157 7.2557 15.3059 6.79109 14.917 7.08543L11.9986 9.29688C11.9024 9.36929 11.7853 9.40861 11.6649 9.40894C11.5445 9.40927 11.4272 9.3706 11.3305 9.29871L9.17008 7.65855C8.5225 7.17527 7.59566 7.34559 7.16398 8.02691L4.44703 12.3337C4.18473 12.7448 4.69453 13.2095 5.08348 12.9152Z" fill="#be8d28"/>
</svg>
