<svg width="20" height="20" viewBox="0 0 20 20" fill="none" xmlns="http://www.w3.org/2000/svg">
<path d="M13.0618 7.19125L10.5937 9.625L13.0618 12.0588C13.1305 12.1231 13.1853 12.2008 13.2227 12.2871C13.2601 12.3734 13.2794 12.4665 13.2794 12.5606C13.2794 12.6547 13.2601 12.7478 13.2227 12.8341C13.1853 12.9205 13.1305 12.9982 13.0618 13.0625C12.9976 13.1262 12.9214 13.1766 12.8376 13.2108C12.7539 13.2451 12.6642 13.2624 12.5737 13.2619C12.3933 13.2611 12.2205 13.1895 12.0924 13.0625L9.62431 10.5944L7.19056 13.0625C7.0625 13.1895 6.88966 13.2611 6.70931 13.2619C6.61883 13.2624 6.52913 13.2451 6.44537 13.2108C6.36161 13.1766 6.28542 13.1262 6.22118 13.0625C6.09313 12.9337 6.02126 12.7594 6.02126 12.5778C6.02126 12.3962 6.09313 12.2219 6.22118 12.0931L8.65493 9.625L6.22118 7.19125C6.10855 7.05973 6.0497 6.89056 6.05638 6.71753C6.06306 6.5445 6.13479 6.38037 6.25723 6.25793C6.37967 6.13549 6.5438 6.06376 6.71683 6.05708C6.88986 6.05039 7.05904 6.10925 7.19056 6.22188L9.62431 8.65563L12.0581 6.22188C12.1217 6.15597 12.1977 6.10325 12.2817 6.06672C12.3658 6.03018 12.4562 6.01056 12.5478 6.00896C12.6394 6.00737 12.7304 6.02383 12.8157 6.05741C12.9009 6.091 12.9787 6.14104 13.0446 6.20469C13.1105 6.26834 13.1632 6.34435 13.1998 6.42838C13.2363 6.5124 13.2559 6.6028 13.2575 6.69441C13.2591 6.78602 13.2427 6.87705 13.2091 6.9623C13.1755 7.04755 13.1255 7.12535 13.0618 7.19125ZM16.4306 16.4313C15.0844 17.7772 13.3694 18.6938 11.5024 19.0651C9.63534 19.4364 7.70013 19.2458 5.94145 18.5173C4.18276 17.7887 2.6796 16.5551 1.62204 14.9723C0.564472 13.3895 0 11.5286 0 9.625C0 7.7214 0.564472 5.86054 1.62204 4.27774C2.6796 2.69494 4.18276 1.46128 5.94145 0.732758C7.70013 0.00423551 9.63534 -0.186429 11.5024 0.184874C13.3694 0.556177 15.0844 1.47277 16.4306 2.81875C17.3244 3.71253 18.0335 4.77363 18.5172 5.94145C19.001 7.10927 19.25 8.36095 19.25 9.625C19.25 10.8891 19.001 12.1407 18.5172 13.3086C18.0335 14.4764 17.3244 15.5375 16.4306 16.4313ZM15.4612 3.78813C14.3063 2.63721 12.8362 1.85432 11.2366 1.53831C9.63708 1.2223 7.97975 1.38735 6.47393 2.01262C4.96811 2.63788 3.68133 3.69532 2.77607 5.0514C1.87082 6.40749 1.38769 8.0014 1.38769 9.63188C1.38769 11.2624 1.87082 12.8563 2.77607 14.2124C3.68133 15.5684 4.96811 16.6259 6.47393 17.2511C7.97975 17.8764 9.63708 18.0415 11.2366 17.7254C12.8362 17.4094 14.3063 16.6265 15.4612 15.4756C16.2303 14.7092 16.8406 13.7984 17.2569 12.7956C17.6733 11.7928 17.8877 10.7177 17.8877 9.63188C17.8877 8.54606 17.6733 7.47093 17.2569 6.46813C16.8406 5.46532 16.2303 4.55458 15.4612 3.78813Z" fill="white"/>
</svg>
