<svg width="74" height="16" viewBox="0 0 74 16" fill="none" xmlns="http://www.w3.org/2000/svg">
<g clip-path="url(#clip0_6070_7137)">
<path d="M6.71853 5.44531L4.76722 12.9478H0L0.966652 9.25685L6.71853 5.44531Z" fill="black"/>
<path d="M16.8654 3.06445C17.9822 3.07048 18.7687 3.31775 19.213 3.81832C19.6573 4.31888 19.7654 5.03053 19.5192 5.96532C19.3571 6.6046 19.0269 7.18959 18.5645 7.65397C18.0842 8.13645 17.4958 8.48624 16.8414 8.66717C17.3397 8.78175 17.6459 9.13758 17.742 9.7467L17.76 9.87938L18.1202 12.9491H15.8987L15.5265 9.64417C15.5205 9.53562 15.4905 9.42706 15.4364 9.33057C15.3824 9.23407 15.3043 9.15567 15.2143 9.09536C15.0282 8.99887 14.824 8.95062 14.6139 8.94459H14.4878H13.1189L12.0742 12.9431H9.99677L12.5785 3.06445H16.8654ZM73.7778 5.65171L71.136 9.47531L68.0199 14.0106L67.9959 14.0347L67.2994 15.0479L67.2754 15.0841L67.2454 15.1323L66.645 16.0008H64.5796L66.9932 12.5812L65.9005 5.89295H68.0439L68.5843 10.2533L71.2021 6.52016L71.2381 6.46589L71.2801 6.40558L71.3221 6.3513L71.6464 5.65774H73.7778V5.65171ZM55.4774 6.18243C55.8737 6.52016 56.1319 6.98454 56.2219 7.5032C56.33 8.14851 56.282 8.81794 56.0959 9.44515C55.9217 10.1387 55.6275 10.79 55.2193 11.369C54.847 11.8997 54.3667 12.34 53.8083 12.6536C53.28 12.9431 52.6976 13.0939 52.0972 13.0939C51.6709 13.1119 51.2506 13.0034 50.8843 12.7863C50.6022 12.6174 50.386 12.3581 50.2659 12.0505L50.2299 11.9299L49.1672 16.0008H47.1078L49.2152 7.91933L49.2272 7.88315L49.2332 7.84696L49.7496 5.88692H51.7609L51.4187 7.02073L51.4127 7.06898C51.7069 6.64681 52.1032 6.30305 52.5595 6.07991C53.0158 5.83867 53.5201 5.71805 54.0305 5.71805C54.5408 5.6879 55.0572 5.85676 55.4774 6.18243ZM52.9918 7.30418C52.7516 7.29815 52.5114 7.3464 52.2833 7.43686C52.0611 7.52733 51.857 7.66604 51.6829 7.8349C51.2746 8.25706 50.9924 8.79382 50.8663 9.36675C50.6862 10.0362 50.6982 10.5428 50.8783 10.8926C51.0585 11.2424 51.4007 11.4233 51.911 11.4233C52.3974 11.4354 52.8657 11.2484 53.2199 10.9046C53.6162 10.4885 53.8924 9.96984 54.0185 9.40294C54.1926 8.74557 54.1806 8.22088 54.0005 7.85299C53.8203 7.48511 53.4841 7.30418 52.9918 7.30418ZM62.238 6.02563C62.5142 6.20053 62.7303 6.45985 62.8504 6.76743L62.8924 6.88202L63.1566 5.88089H65.174L63.3247 12.9371H61.3014L61.5716 11.8937C61.2654 12.2616 60.8811 12.5511 60.4488 12.7501C60.0285 12.9431 59.5782 13.0456 59.1219 13.0456C58.5935 13.0697 58.0652 12.919 57.6329 12.5993C57.2366 12.2857 56.9725 11.8274 56.8884 11.3268C56.7803 10.6875 56.8163 10.0362 57.0025 9.415C57.1826 8.72145 57.4828 8.06408 57.8971 7.47908C58.2753 6.94233 58.7617 6.49001 59.326 6.16434C59.8424 5.86279 60.4308 5.69996 61.0252 5.69996C61.4575 5.6879 61.8778 5.79645 62.238 6.02563ZM61.1933 7.32227C60.9471 7.32227 60.701 7.37052 60.4788 7.46702C60.2507 7.56351 60.0465 7.70222 59.8724 7.87712C59.4701 8.30531 59.1819 8.83603 59.0559 9.415C58.8877 10.0663 58.8877 10.5609 59.0799 10.9167C59.266 11.2725 59.6142 11.4414 60.1306 11.4414C60.3707 11.4474 60.6109 11.3992 60.8391 11.3087C61.0672 11.2182 61.2654 11.0795 61.4395 10.9107C61.7937 10.5307 62.0519 10.0784 62.196 9.5718L62.244 9.38485C62.4241 8.71541 62.4181 8.20279 62.226 7.85903C62.0399 7.5032 61.6976 7.32227 61.1933 7.32227ZM48.7109 5.80852L48.843 5.86279L48.3266 7.78665C48.0324 7.62985 47.7082 7.55145 47.384 7.55145C46.8917 7.53336 46.4113 7.69619 46.0211 8.00377C45.6848 8.29325 45.4387 8.67923 45.3126 9.10139L45.2706 9.26423L44.3099 12.9491H42.2565L44.1178 5.89295H46.1411L45.877 6.93027C46.1291 6.58047 46.4534 6.29702 46.8196 6.08594C47.2279 5.85073 47.6842 5.73011 48.1525 5.73011C48.3386 5.71805 48.5308 5.74218 48.7109 5.80852ZM41.1278 6.14625C41.5841 6.43573 41.9143 6.89408 42.0404 7.4248C42.1905 8.06408 42.1665 8.73954 41.9743 9.36675C41.7942 10.0784 41.476 10.7418 41.0257 11.3087C40.5994 11.8575 40.059 12.2917 39.4406 12.5873C38.8102 12.8828 38.1257 13.0335 37.4293 13.0275C36.6968 13.0275 36.0964 12.8828 35.6281 12.5873C35.1657 12.2978 34.8355 11.8394 34.7034 11.3087C34.5593 10.6694 34.5834 9.99397 34.7695 9.36675C34.9496 8.66114 35.2678 7.99774 35.7181 7.4248C36.1444 6.88202 36.6908 6.44176 37.3152 6.14625C37.9516 5.85073 38.6481 5.69393 39.3506 5.70599C39.969 5.67584 40.5874 5.83264 41.1278 6.14625ZM38.9303 7.29815C38.444 7.29212 37.9756 7.47908 37.6214 7.81681C37.2552 8.1666 36.979 8.67923 36.8049 9.36675C36.4446 10.7478 36.7928 11.4354 37.8496 11.4354C38.3299 11.4474 38.7922 11.2605 39.1404 10.9227C39.5007 10.579 39.7648 10.0603 39.945 9.36675C40.1251 8.68526 40.1311 8.17263 39.951 7.81681C39.7769 7.46099 39.4346 7.29815 38.9303 7.29815ZM34.7575 5.88692L34.3972 7.28609L29.8642 11.3087H33.5026L33.0703 12.9551H27.0483L27.4265 11.5017L31.8875 7.53939H28.4952L28.9275 5.89295H34.7575V5.88692ZM24.5926 6.02563C24.8688 6.20053 25.0849 6.45985 25.205 6.76743L25.2471 6.88202L25.5112 5.88089H27.5346L25.6914 12.9371H23.668L23.9382 11.8937C23.632 12.2556 23.2537 12.545 22.8274 12.7441C22.4011 12.9431 21.9388 13.0456 21.4645 13.0456C20.9361 13.0697 20.4198 12.9129 19.9935 12.5993C19.5972 12.2857 19.3331 11.8274 19.249 11.3268C19.1409 10.6875 19.177 10.0362 19.3631 9.415C19.5372 8.72145 19.8434 8.06408 20.2577 7.47908C20.6359 6.94233 21.1223 6.49001 21.6806 6.16434C22.197 5.86279 22.7854 5.70599 23.3798 5.70599C23.8121 5.69393 24.2324 5.80249 24.5926 6.02563ZM23.5539 7.32227C23.3077 7.32227 23.0676 7.37052 22.8394 7.46702C22.6113 7.56351 22.4071 7.70222 22.233 7.87712C21.8247 8.30531 21.5426 8.83603 21.4165 9.415C21.2484 10.0663 21.2544 10.5609 21.4405 10.9167C21.6266 11.2725 21.9748 11.4414 22.4912 11.4414C22.7314 11.4474 22.9715 11.3992 23.1997 11.3087C23.4218 11.2182 23.632 11.0795 23.8001 10.9107C24.1543 10.5367 24.4185 10.0784 24.5566 9.5718L24.6046 9.38485C24.7787 8.71541 24.7607 8.21485 24.5866 7.85903C24.4005 7.5032 24.0522 7.32227 23.5539 7.32227ZM16.1209 4.71089H14.1936L13.5151 7.29212H15.4424C16.0488 7.29212 16.5292 7.18959 16.8534 6.97851C17.1956 6.75537 17.4418 6.40558 17.5318 5.99547C17.6519 5.56125 17.5979 5.22955 17.3697 5.01847C17.1416 4.81945 16.7273 4.71089 16.1209 4.71089Z" fill="#072654"/>
<path d="M11.0474 0L7.66116 12.9484H5.3376L7.62514 4.17942L4.11877 6.50132L4.7432 4.19148L11.0474 0Z" fill="#3395FF"/>
</g>
<defs>
<clipPath id="clip0_6070_7137">
<rect width="73.7778" height="16" fill="white"/>
</clipPath>
</defs>
</svg>
