<svg width="59" height="18" viewBox="0 0 59 18" fill="none" xmlns="http://www.w3.org/2000/svg">
<g clip-path="url(#clip0_6070_7068)">
<path d="M21.5601 17.4465L24.5467 0.646484H29.2134L26.3201 17.4465H21.5601Z" fill="#3C58BF"/>
<path d="M21.5601 17.4465L25.3867 0.646484H29.2134L26.3201 17.4465H21.5601Z" fill="#293688"/>
<path d="M43.2134 0.832603C42.28 0.45927 40.7867 0.0859375 38.92 0.0859375C34.2534 0.0859375 30.8933 2.41927 30.8933 5.77927C30.8933 8.29927 33.2267 9.60594 35.0933 10.4459C36.96 11.2859 37.52 11.8459 37.52 12.5926C37.52 13.7126 36.0267 14.2726 34.72 14.2726C32.8534 14.2726 31.8267 13.9926 30.24 13.3393L29.5867 13.0593L28.9333 16.8859C30.0533 17.3526 32.1067 17.8193 34.2534 17.8193C39.2 17.8193 42.4667 15.4859 42.4667 11.9393C42.4667 9.97927 41.2534 8.48594 38.4534 7.2726C36.7734 6.4326 35.7467 5.96594 35.7467 5.12594C35.7467 4.37927 36.5867 3.6326 38.4534 3.6326C40.04 3.6326 41.16 3.9126 42 4.28594L42.4667 4.4726L43.2134 0.832603Z" fill="#3C58BF"/>
<path d="M43.2134 0.832603C42.28 0.45927 40.7867 0.0859375 38.92 0.0859375C34.2534 0.0859375 31.7333 2.41927 31.7333 5.77927C31.7333 8.29927 33.2267 9.60594 35.0933 10.4459C36.96 11.2859 37.52 11.8459 37.52 12.5926C37.52 13.7126 36.0267 14.2726 34.72 14.2726C32.8534 14.2726 31.8267 13.9926 30.24 13.3393L29.5867 13.0593L28.9333 16.8859C30.0533 17.3526 32.1067 17.8193 34.2534 17.8193C39.2 17.8193 42.4667 15.4859 42.4667 11.9393C42.4667 9.97927 41.2534 8.48594 38.4534 7.2726C36.7734 6.4326 35.7467 5.96594 35.7467 5.12594C35.7467 4.37927 36.5867 3.6326 38.4534 3.6326C40.04 3.6326 41.16 3.9126 42 4.28594L42.4667 4.4726L43.2134 0.832603Z" fill="#293688"/>
<path d="M51.24 0.646484C50.12 0.646484 49.28 0.739819 48.8134 1.85982L41.8134 17.4465H46.8534L47.7867 14.6465H53.76L54.32 17.4465H58.8L54.88 0.646484H51.24ZM49.0934 11.8465C49.3734 11.0065 50.96 6.89982 50.96 6.89982C50.96 6.89982 51.3334 5.87315 51.6134 5.21982L51.8934 6.80649C51.8934 6.80649 52.8267 11.0065 53.0134 11.9398H49.0934V11.8465Z" fill="#3C58BF"/>
<path d="M52.36 0.646484C51.24 0.646484 50.4 0.739819 49.9334 1.85982L41.8134 17.4465H46.8534L47.7867 14.6465H53.76L54.32 17.4465H58.8L54.88 0.646484H52.36ZM49.0934 11.8465C49.4667 10.9132 50.96 6.89982 50.96 6.89982C50.96 6.89982 51.3334 5.87315 51.6134 5.21982L51.8934 6.80649C51.8934 6.80649 52.8267 11.0065 53.0134 11.9398H49.0934V11.8465Z" fill="#293688"/>
<path d="M12.9734 12.4069L12.5067 9.98023C11.6667 7.18023 8.96006 4.10023 5.97339 2.6069L10.1734 17.5402H15.2134L22.7734 0.740234H17.7334L12.9734 12.4069Z" fill="#3C58BF"/>
<path d="M12.9734 12.4069L12.5067 9.98023C11.6667 7.18023 8.96006 4.10023 5.97339 2.6069L10.1734 17.5402H15.2134L22.7734 0.740234H18.6667L12.9734 12.4069Z" fill="#293688"/>
<path d="M0 0.646484L0.84 0.833152C6.81333 2.23315 10.92 5.77982 12.5067 9.97982L10.8267 2.04648C10.5467 0.926484 9.70667 0.646484 8.68 0.646484H0Z" fill="#FFBC00"/>
<path d="M0 0.646484C5.97333 2.04648 10.92 5.68649 12.5067 9.88649L10.92 3.25982C10.64 2.13982 9.70667 1.48649 8.68 1.48649L0 0.646484Z" fill="#F7981D"/>
<path d="M0 0.646484C5.97333 2.04648 10.92 5.68649 12.5067 9.88649L11.3867 6.24649C11.1067 5.12648 10.7333 4.00649 9.42667 3.53982L0 0.646484Z" fill="#ED7C00"/>
<path d="M17.64 11.8451L14.4666 8.67172L12.9733 12.2184L12.6 9.88505C11.76 7.08505 9.05332 4.00505 6.06665 2.51172L10.2666 17.4451H15.3066L17.64 11.8451ZM26.32 17.4451L22.3066 13.3384L21.56 17.4451H26.32ZM37.0533 11.6584C37.4266 12.0317 37.6133 12.3117 37.52 12.6851C37.52 13.8051 36.0266 14.3651 34.72 14.3651C32.8533 14.3651 31.8266 14.0851 30.24 13.4317L29.5866 13.1517L28.9333 16.9784C30.0533 17.4451 32.1066 17.9117 34.2533 17.9117C37.24 17.9117 39.6666 17.0717 41.0666 15.5784L37.0533 11.6584ZM42.4666 17.4451H46.8533L47.7866 14.6451H53.76L54.32 17.4451H58.8L57.2133 10.6317L51.6133 5.21839L51.8933 6.71172C51.8933 6.71172 52.8266 10.9117 53.0133 11.8451H49.0933C49.4666 10.9117 50.96 6.89839 50.96 6.89839C50.96 6.89839 51.3333 5.87172 51.6133 5.21839" fill="#051244"/>
</g>
<defs>
<clipPath id="clip0_6070_7068">
<rect width="58.8" height="18" fill="white"/>
</clipPath>
</defs>
</svg>
