<svg width="72" height="19" viewBox="0 0 72 19" fill="none" xmlns="http://www.w3.org/2000/svg">
<g clip-path="url(#clip0_6070_7058)">
<path d="M55.3598 5.12305H51.4948C51.2675 5.12305 51.0401 5.3504 50.9265 5.57775L49.335 15.5812C49.335 15.8085 49.4487 15.9222 49.676 15.9222H51.7222C51.9496 15.9222 52.0632 15.8085 52.0632 15.5812L52.5179 12.7393C52.5179 12.5119 52.7453 12.2846 53.0863 12.2846H54.3367C56.9513 12.2846 58.429 11.0342 58.7701 8.5333C58.9974 7.51023 58.7701 6.60083 58.3154 6.03245C57.6333 5.46407 56.6102 5.12305 55.3598 5.12305ZM55.8145 8.87433C55.5872 10.2384 54.5641 10.2384 53.541 10.2384H52.859L53.3137 7.6239C53.3137 7.51023 53.4273 7.39655 53.6547 7.39655H53.882C54.5641 7.39655 55.2461 7.39655 55.5872 7.85125C55.8145 7.96493 55.8145 8.30595 55.8145 8.87433Z" fill="#139AD6"/>
<path d="M27.5094 5.12305H23.6444C23.4171 5.12305 23.1897 5.3504 23.0761 5.57775L21.4846 15.5812C21.4846 15.8085 21.5983 15.9222 21.8256 15.9222H23.6444C23.8718 15.9222 24.0991 15.6948 24.2128 15.4675L24.6675 12.7393C24.6675 12.5119 24.8949 12.2846 25.2359 12.2846H26.4863C29.1009 12.2846 30.5786 11.0342 30.9197 8.5333C31.147 7.51023 30.9197 6.60083 30.465 6.03245C29.7829 5.46407 28.8735 5.12305 27.5094 5.12305ZM27.9641 8.87433C27.7368 10.2384 26.7137 10.2384 25.6906 10.2384H25.1222L25.5769 7.6239C25.5769 7.51023 25.6906 7.39655 25.918 7.39655H26.1453C26.8274 7.39655 27.5094 7.39655 27.8504 7.85125C27.9641 7.96493 28.0778 8.30595 27.9641 8.87433ZM39.218 8.76066H37.3992C37.2855 8.76066 37.0581 8.87433 37.0581 8.988L36.9445 9.55638L36.8308 9.32903C36.3761 8.76066 35.5804 8.5333 34.6709 8.5333C32.6248 8.5333 30.806 10.1248 30.465 12.2846C30.2376 13.4213 30.5786 14.4444 31.147 15.1265C31.7154 15.8085 32.5111 16.0359 33.5342 16.0359C35.2393 16.0359 36.1487 15.0128 36.1487 15.0128L36.0351 15.5812C36.0351 15.8085 36.1487 15.9222 36.3761 15.9222H38.0812C38.3086 15.9222 38.5359 15.6948 38.6496 15.4675L39.6727 9.10168C39.559 8.988 39.3316 8.76066 39.218 8.76066ZM36.6034 12.3983C36.3761 13.4213 35.5803 14.2171 34.4436 14.2171C33.8752 14.2171 33.4205 13.9897 33.1932 13.7624C32.9658 13.4213 32.8521 12.9666 32.8521 12.3983C32.9658 11.3752 33.8752 10.5795 34.8983 10.5795C35.4667 10.5795 35.8077 10.8068 36.1487 11.0342C36.4898 11.3752 36.6034 11.9436 36.6034 12.3983Z" fill="#263B80"/>
<path d="M66.9547 8.76251H65.1359C65.0222 8.76251 64.7949 8.87618 64.7949 8.98986L64.6812 9.55823L64.5675 9.33088C64.1128 8.76251 63.3171 8.53516 62.4077 8.53516C60.3615 8.53516 58.5427 10.1266 58.2017 12.2864C57.9744 13.4232 58.3154 14.4463 58.8838 15.1283C59.4521 15.8104 60.2479 16.0377 61.2709 16.0377C62.9761 16.0377 63.8855 15.0146 63.8855 15.0146L63.7718 15.583C63.7718 15.8104 63.8855 15.924 64.1128 15.924H65.8179C66.0453 15.924 66.2726 15.6967 66.3863 15.4693L67.4094 9.10353C67.2957 8.98986 67.182 8.76251 66.9547 8.76251ZM64.3402 12.4001C64.1128 13.4232 63.3171 14.2189 62.1803 14.2189C61.612 14.2189 61.1573 13.9916 60.9299 13.7642C60.7026 13.4232 60.5889 12.9685 60.5889 12.4001C60.7026 11.377 61.612 10.5813 62.635 10.5813C63.2034 10.5813 63.5444 10.8087 63.8855 11.036C64.3402 11.377 64.4538 11.9454 64.3402 12.4001Z" fill="#139AD6"/>
<path d="M49.1077 8.76172H47.1753C46.9479 8.76172 46.8342 8.87539 46.7205 8.98907L44.2197 12.854L43.0829 9.21642C42.9693 8.98907 42.8556 8.87539 42.5146 8.87539H40.6958C40.4684 8.87539 40.3547 9.10274 40.3547 9.33009L42.4009 15.3549L40.4684 18.0831C40.3547 18.3104 40.4684 18.6515 40.6958 18.6515H42.5146C42.7419 18.6515 42.8556 18.5378 42.9693 18.4241L49.2214 9.44377C49.5624 9.10274 49.3351 8.76172 49.1077 8.76172Z" fill="#263B80"/>
<path d="M69.1145 5.46531L67.5231 15.6961C67.5231 15.9234 67.6367 16.0371 67.8641 16.0371H69.4555C69.6829 16.0371 69.9102 15.8097 70.0239 15.5824L71.6154 5.57898C71.6154 5.35163 71.5017 5.23795 71.2744 5.23795H69.4555C69.3419 5.12428 69.2282 5.23796 69.1145 5.46531Z" fill="#139AD6"/>
<path d="M13.0727 1.71371C12.2769 0.804309 10.7991 0.349609 8.75299 0.349609H3.06923C2.72821 0.349609 2.38718 0.690633 2.2735 1.03166L0 15.9231C0 16.2641 0.22735 16.4915 0.454701 16.4915H3.97863L4.88804 10.9214V11.1488C5.00171 10.8077 5.34274 10.4667 5.68376 10.4667H7.38889C10.6855 10.4667 13.1863 9.1026 13.9821 5.35132V5.01029C13.8684 5.01029 13.8684 5.01029 13.9821 5.01029C14.0957 3.53251 13.8684 2.62311 13.0727 1.71371Z" fill="#263B80"/>
<path d="M13.8684 5.00977V5.35079C13.0727 9.21575 10.5718 10.4662 7.27524 10.4662H5.57011C5.22909 10.4662 4.88806 10.8072 4.77439 11.1482L3.63763 18.0824C3.63763 18.3098 3.75131 18.5371 4.09233 18.5371H7.04789C7.38892 18.5371 7.72994 18.3098 7.72994 17.9687V17.8551L8.29832 14.3311V14.1038C8.29832 13.7628 8.63934 13.5354 8.98037 13.5354H9.43507C12.277 13.5354 14.5505 12.3987 15.1188 8.9884C15.3462 7.6243 15.2325 6.37387 14.5505 5.57814C14.4368 5.35079 14.2094 5.12344 13.8684 5.00977Z" fill="#139AD6"/>
<path d="M13.0727 4.66915C12.959 4.66915 12.8453 4.55547 12.7317 4.55547C12.618 4.55547 12.5043 4.55547 12.3906 4.4418C11.9359 4.32812 11.4812 4.32812 10.9128 4.32812H6.47951C6.36584 4.32812 6.25216 4.32812 6.13849 4.4418C5.91114 4.55547 5.79746 4.78282 5.79746 5.01017L4.88806 10.9213V11.1486C5.00174 10.8076 5.34276 10.4666 5.68379 10.4666H7.38892C10.6855 10.4666 13.1864 9.10248 13.9821 5.3512C13.9821 5.23753 13.9821 5.12385 14.0958 5.01017C13.8684 4.8965 13.7547 4.78283 13.5274 4.78283C13.1864 4.66915 13.1864 4.66915 13.0727 4.66915Z" fill="#232C65"/>
</g>
<defs>
<clipPath id="clip0_6070_7058">
<rect width="71.6154" height="19" fill="white"/>
</clipPath>
</defs>
</svg>
