<svg width="58" height="22" viewBox="0 0 58 22" fill="none" xmlns="http://www.w3.org/2000/svg">
<g clip-path="url(#clip0_6070_7119)">
<path d="M27.0704 10.7059V17.0467H24.9412V1.38867H30.5859C32.0165 1.38867 33.2363 1.83938 34.2344 2.7407C35.2547 3.64202 35.7648 4.74247 35.7648 6.04204C35.7648 7.37309 35.2547 8.47354 34.2344 9.36436C33.2474 10.2552 32.0276 10.6954 30.5859 10.6954H27.0704V10.7059ZM27.0704 3.3171V8.77747H30.6303C31.4731 8.77747 32.1829 8.50501 32.7373 7.97047C33.3029 7.43593 33.5912 6.7862 33.5912 6.05253C33.5912 5.32936 33.3029 4.69001 32.7373 4.15558C32.1828 3.60006 31.4842 3.32759 30.6303 3.32759H27.0704V3.3171ZM41.3319 5.9792C42.9067 5.9792 44.1488 6.37745 45.0581 7.17396C45.9675 7.97047 46.4221 9.06043 46.4221 10.4439V17.0467H44.3927V15.5585H44.304C43.4279 16.7847 42.2523 17.3926 40.7885 17.3926C39.5354 17.3926 38.4929 17.0467 37.6501 16.3445C36.8073 15.6423 36.3859 14.7724 36.3859 13.7244C36.3859 12.6135 36.8295 11.7331 37.7167 11.0833C38.6039 10.4231 39.7905 10.0981 41.2654 10.0981C42.5297 10.0981 43.5722 10.3182 44.3817 10.7584V10.2973C44.3817 9.59507 44.0934 9.00818 43.5056 8.51561C42.9178 8.02304 42.2303 7.78195 41.4428 7.78195C40.2562 7.78195 39.3136 8.25353 38.626 9.20731L36.7517 8.09637C37.7832 6.68139 39.3136 5.9792 41.3319 5.9792ZM38.5817 13.7558C38.5817 14.2798 38.8146 14.72 39.2914 15.0658C39.7572 15.4117 40.3117 15.5899 40.9438 15.5899C41.8422 15.5899 42.6406 15.2754 43.3393 14.6466C44.038 14.0177 44.3928 13.2841 44.3928 12.4352C43.7274 11.9426 42.807 11.691 41.6204 11.691C40.7553 11.691 40.0345 11.8902 39.4578 12.2779C38.87 12.6867 38.5817 13.1794 38.5817 13.7558ZM58 6.325L50.9025 21.7524H48.7067L51.346 16.3549L46.6661 6.325H48.9839L52.3552 14.0177H52.3996L55.6822 6.325H58Z" fill="#383E41"/>
<path d="M18.4236 7.53906H9.49854V10.9977L14.6387 10.9987C14.4302 12.1495 13.7593 13.1305 12.7312 13.7845V13.7851L12.7324 13.7845L12.6398 15.8517L15.7921 16.0273L15.7909 16.0284C17.5774 14.4658 18.6011 12.1558 18.6011 9.4267C18.6017 8.79374 18.5423 8.16201 18.4236 7.53906Z" fill="#0085F7"/>
<path d="M12.7323 13.7852L12.7312 13.7858C11.8796 14.3283 10.7832 14.6456 9.50073 14.6456C7.02213 14.6456 4.91952 13.0672 4.16654 10.9397H4.1662L4.16654 10.9407L1.5349 10.5469L1.01086 13.2545C2.57471 16.1866 5.78827 18.1985 9.50084 18.1985C12.0663 18.1985 14.2217 17.4014 15.7909 16.029C15.7914 16.0287 15.7918 16.0283 15.7921 16.0279L12.7323 13.7852Z" fill="#00A94B"/>
<path d="M3.86923 9.22331C3.86923 8.62593 3.97459 8.04846 4.16648 7.50557L3.34474 5.19141H1.01024C0.363746 6.40405 0 7.77278 0 9.22331C0 10.6738 0.364879 12.0426 1.01024 13.2552L1.0107 13.2549L4.16648 10.941C3.96997 10.3874 3.86959 9.8073 3.86923 9.22331Z" fill="#FFBB00"/>
<path d="M9.50068 0.246094C5.78891 0.246094 2.57399 2.25835 1.01025 5.19088L4.16638 7.50504C4.91936 5.37748 7.02198 3.79913 9.50057 3.79913C10.9012 3.79913 12.1555 4.25509 13.1458 5.14591L15.8573 2.58552C14.2106 1.13585 12.0636 0.246094 9.50068 0.246094Z" fill="#FF4031"/>
</g>
<defs>
<clipPath id="clip0_6070_7119">
<rect width="58" height="22" fill="white"/>
</clipPath>
</defs>
</svg>
