<svg width="59" height="26" viewBox="0 0 59 26" fill="none" xmlns="http://www.w3.org/2000/svg">
<g clip-path="url(#clip0_6070_7116)">
<path fill-rule="evenodd" clip-rule="evenodd" d="M58.5 13.4222C58.5 9.10817 56.485 5.70409 52.6338 5.70409C48.7663 5.70409 46.4263 9.10817 46.4263 13.3886C46.4263 18.461 49.1888 21.0224 53.1537 21.0224C55.0875 21.0224 56.55 20.5674 57.655 19.927V16.5566C56.5499 17.1296 55.2825 17.4835 53.6737 17.4835C52.0975 17.4835 50.6999 16.9105 50.5212 14.922H58.4674C58.4675 14.7029 58.5 13.8266 58.5 13.4222ZM50.4726 11.8212C50.4726 9.91695 51.5938 9.12487 52.6175 9.12487C53.6088 9.12487 54.6651 9.91695 54.6651 11.8212H50.4726ZM40.1538 5.70409C38.5613 5.70409 37.5375 6.47922 36.9687 7.01857L36.7575 5.97377H33.1825V25.6231L37.245 24.7299L37.2612 19.9609C37.8462 20.3991 38.7074 21.0225 40.1374 21.0225C43.0462 21.0225 45.6949 18.5958 45.6949 13.2538C45.6788 8.36669 42.9975 5.70409 40.1538 5.70409ZM39.1787 17.315C38.2199 17.315 37.6513 16.9611 37.2612 16.523L37.245 10.2709C37.6675 9.78211 38.2525 9.44514 39.1787 9.44514C40.6575 9.44514 41.6812 11.164 41.6812 13.3716C41.6813 15.6298 40.6737 17.315 39.1787 17.315ZM27.5925 4.70977L31.6713 3.79981V0.378906L27.5925 1.27205V4.70977ZM27.5925 5.99047H31.6713V20.7358H27.5925V5.99047ZM23.2213 7.23753L22.9613 5.99047H19.4513V20.7358H23.5138V10.7427C24.4725 9.44502 26.0975 9.68104 26.6013 9.86635V5.99047C26.0813 5.78834 24.18 5.4176 23.2213 7.23753ZM15.0963 2.33367L11.1312 3.20999L11.115 16.7083C11.115 19.2024 12.9187 21.0392 15.3238 21.0392C16.6563 21.0392 17.6312 20.7864 18.1675 20.4831V17.0622C17.6476 17.2813 15.0801 18.0564 15.0801 15.5624V9.57998H18.1675V5.99059H15.0801L15.0963 2.33367ZM4.11129 10.2709C4.11129 9.61362 4.63126 9.3609 5.4925 9.3609C6.72747 9.3609 8.28748 9.74846 9.52256 10.4395V6.47922C8.1738 5.92317 6.84126 5.70409 5.4925 5.70409C2.19378 5.70409 0 7.49037 0 10.4731C0 15.1242 6.17505 14.3828 6.17505 16.3881C6.17505 17.1634 5.52506 17.4161 4.61504 17.4161C3.26627 17.4161 1.54379 16.8431 0.178806 16.068V20.0787C1.69004 20.7528 3.2176 21.0392 4.61504 21.0392C7.99499 21.0392 10.3188 19.3034 10.3188 16.2871C10.3026 11.2652 4.11129 12.1583 4.11129 10.2709Z" fill="#635BFF"/>
</g>
<defs>
<clipPath id="clip0_6070_7116">
<rect width="58.5" height="26" fill="white"/>
</clipPath>
</defs>
</svg>
