<svg width="67" height="28" viewBox="0 0 67 28" fill="none" xmlns="http://www.w3.org/2000/svg">
<g clip-path="url(#clip0_6070_7092)">
<path d="M26.2597 17.4242H26.5839C26.9081 17.4242 27.1242 17.3188 27.2323 17.1081L28.2048 15.7382H30.6903L30.15 16.5812H33.1758L32.7435 17.9511H29.1774C28.7452 18.5834 28.3129 18.7941 27.6645 18.7941H25.8274L26.2597 17.4242ZM25.8274 19.321H32.3113L31.879 20.7963H29.2855L28.8532 22.2715H31.4468L31.0145 23.7468H28.421L27.7726 25.8543C27.6645 26.1704 27.7726 26.3812 28.3129 26.2758H30.3661L29.9339 27.6457H25.9355C25.179 27.6457 24.9629 27.2242 25.179 26.3812L25.9355 23.6414H24.3145L24.7468 22.1661H26.3677L26.8 20.6909H25.2871L25.8274 19.321ZM36.3097 15.7382L36.2016 16.5812C36.2016 16.5812 37.3903 15.6328 38.579 15.6328H42.6855L41.0645 21.3231C40.9564 21.9554 40.4161 22.2715 39.3355 22.2715H34.6887L33.6081 26.1704C33.5 26.3812 33.6081 26.4866 33.8242 26.4866H34.7968L34.4726 27.6457H32.0952C31.2306 27.6457 30.7984 27.435 31.0145 26.8027L34.1484 15.6328H36.3097V15.7382ZM39.7677 17.3188H36.0935L35.6613 18.7941C35.6613 18.7941 36.3097 18.3726 37.2823 18.3726H39.4435L39.7677 17.3188ZM38.471 20.7963C38.7952 20.7963 38.9032 20.6909 38.9032 20.4801L39.1194 19.6371H35.4452L35.121 20.7963H38.471ZM35.9855 22.5877H38.1468V23.536H38.6871C39.0113 23.536 39.1194 23.4307 39.1194 23.2199L39.3355 22.5877H41.0645L40.8484 23.4307C40.6323 24.1683 40.0919 24.4844 39.2274 24.5898H38.0387V26.1704C38.0387 26.3812 38.2548 26.592 38.6871 26.592H39.7677L39.4435 27.8565H36.85C36.0935 27.8565 35.7694 27.5403 35.7694 26.8027L35.9855 22.5877Z" fill="#009DA5"/>
<path d="M28.7452 18.4781L29.1774 18.0566H32.7435L33.1758 16.6867H30.15L30.6903 15.8437H28.2048L27.2323 17.1082C27.1242 17.3189 26.9081 17.4243 26.5839 17.4243H26.2597L26.1516 17.7404C27.0161 17.9512 27.8806 18.2673 28.7452 18.4781ZM36.2016 16.5813L36.3097 15.7383H34.1484L33.1758 19.1103C33.7161 19.1103 34.3645 19.2157 34.9048 19.2157C37.3903 19.2157 39.6597 18.8996 41.929 18.2673L42.6855 15.7383H38.579C37.3903 15.7383 36.2016 16.5813 36.2016 16.5813ZM39.4435 18.3727H37.2823C36.2016 18.3727 35.6613 18.7942 35.6613 18.7942L36.0935 17.3189H39.7677L39.4435 18.3727Z" fill="#02CCCC"/>
<path d="M44.9548 17.4242L45.4951 15.7382H47.9806L47.8726 16.3704C47.8726 16.3704 49.1693 15.7382 50.0338 15.7382H53.1677L52.6274 17.4242H52.1951L49.8177 25.4328H50.25L49.8177 27.0135H49.2774L49.0613 27.7511H46.6839L46.9 27.0135H42.1451L42.5774 25.4328H43.0097L45.3871 17.4242H44.9548ZM47.6564 17.4242L47.008 19.6371C47.008 19.6371 48.0887 19.2156 49.0613 19.1102C49.2774 18.3726 49.4935 17.4242 49.4935 17.4242H47.6564ZM46.7919 20.6909L46.1435 23.0092C46.1435 23.0092 47.3322 22.4823 48.1968 22.3769L48.629 20.6909H46.7919ZM47.2242 25.4328L47.6564 23.7468H45.8193L45.3871 25.4328H47.2242ZM53.2758 15.6328H55.6532L55.7613 16.4758C55.7613 16.6866 55.8693 16.792 56.1935 16.792H56.6258L56.1935 18.2672H54.4645C53.8161 18.2672 53.4919 18.0565 53.3839 17.5296L53.2758 15.6328ZM52.6274 18.7941H60.1919L59.7597 20.2694H57.3822L56.95 21.7446H59.3274L58.8951 23.3253H56.1935L55.5451 24.2737H56.8419L57.1661 26.0651C57.1661 26.2758 57.3822 26.3812 57.5984 26.3812H58.0306L57.5984 27.8565H56.1935C55.4371 27.8565 55.0048 27.6457 55.0048 27.1188L54.6806 25.4328L53.4919 27.2242C53.1677 27.7511 52.7355 27.9618 52.1951 27.9618H49.9258L50.358 26.4866H51.0064C51.3306 26.4866 51.5468 26.3812 51.7629 26.0651L53.6 23.4307H51.2226L51.6548 21.85H54.2484L54.6806 20.3747H52.0871L52.6274 18.7941Z" fill="#009DA5"/>
<path d="M47.9806 15.8438H45.4951L45.0629 17.2136C46.0354 16.7921 47.008 16.3706 47.9806 15.8438Z" fill="#02CCCC"/>
<path d="M10.05 8.25646C9.72581 9.62636 9.07742 10.6801 8.10484 11.4178C7.02419 12.1554 5.72742 12.5769 4.10645 12.5769C2.59355 12.5769 1.40484 12.1554 0.756452 11.4178C0.216129 10.8909 0 10.1532 0 9.31023C0 8.9941 0 8.57259 0.108065 8.15109L1.8371 0.0371094H4.43064L2.70161 8.04571C2.70161 8.25646 2.59355 8.46722 2.59355 8.67797C2.59355 9.09947 2.70161 9.4156 2.91774 9.73173C3.24194 10.1532 3.78226 10.364 4.43064 10.364C5.1871 10.364 5.94355 10.1532 6.37581 9.83711C6.91613 9.4156 7.24032 8.88872 7.34839 8.15109L9.07742 0.142486H11.8871L10.05 8.25646Z" fill="#FF7F29"/>
<path d="M10.05 8.25646C9.72581 9.62636 9.07742 10.6801 8.10484 11.4178C7.02419 12.1554 5.72742 12.5769 4.10645 12.5769C2.59355 12.5769 1.40484 12.1554 0.756452 11.4178C0.216129 10.8909 0 10.1532 0 9.31023C0 8.9941 0 8.57259 0.108065 8.15109L3.89032 0.0371094H4.43064L2.70161 8.04571C2.70161 8.25646 2.59355 8.46722 2.59355 8.67797C2.59355 9.09947 2.70161 9.4156 2.91774 9.73173C3.24194 10.1532 3.78226 10.364 4.43064 10.364C5.1871 10.364 5.94355 10.1532 6.37581 9.83711C6.91613 9.4156 7.24032 8.88872 7.34839 8.15109L11.1306 0.142486H11.8871L10.05 8.25646ZM12.5355 5.09517H14.3726L14.1565 6.14894L14.3726 5.83281C15.021 5.20055 15.6694 4.88442 16.5339 4.88442C17.2903 4.88442 17.8306 5.09517 18.2629 5.51668C18.5871 5.93819 18.6952 6.57044 18.5871 7.30808L17.6145 12.2608H15.6694L16.5339 7.72958C16.6419 7.30808 16.6419 6.88657 16.4258 6.67582C16.3177 6.46507 15.9935 6.35969 15.5613 6.35969C15.021 6.35969 14.6968 6.46507 14.3726 6.78119C14.0484 7.09732 13.8323 7.51883 13.7242 8.04571L12.8597 12.2608H10.9145L12.5355 5.09517Z" fill="#EA2227"/>
<path d="M33.7162 5.09552H35.5532L35.3371 6.14928L35.5532 5.83315C36.2016 5.20089 36.85 4.88477 37.7145 4.88477C38.471 4.88477 39.0113 5.09552 39.4436 5.51702C39.7678 5.93853 39.8758 6.57079 39.7678 7.30842L38.7952 12.2611H36.85L37.8226 7.72993C37.9307 7.30842 37.9307 6.88691 37.7145 6.67616C37.6065 6.46541 37.2823 6.36003 36.85 6.36003C36.3097 6.36003 35.9855 6.46541 35.6613 6.78154C35.3371 7.09767 35.121 7.51917 35.0129 8.04606L34.1484 12.2611H32.2032L33.7162 5.09552Z" fill="#A5002F"/>
<path d="M21.0726 5.09535H23.1258L21.5048 12.3663H19.4516L21.0726 5.09535ZM21.721 2.46094H23.7742L23.3419 4.25234H21.2887L21.721 2.46094ZM24.9629 11.8394C24.4226 11.3125 24.2064 10.6803 24.2064 9.83728V9.3104C24.2064 9.09965 24.2064 8.99427 24.3145 8.78352C24.5306 7.62438 25.071 6.67599 25.8274 5.93836C26.5839 5.20072 27.5564 4.88459 28.7451 4.88459C29.7177 4.88459 30.3661 5.09535 30.9064 5.62223C31.4468 6.14911 31.6629 6.78137 31.6629 7.72975V8.25663C31.6629 8.46739 31.6629 8.57276 31.5548 8.78352C31.3387 9.94266 30.7984 10.891 30.0419 11.5233C29.2855 12.1556 28.3129 12.5771 27.1242 12.5771C26.2597 12.5771 25.5032 12.2609 24.9629 11.8394ZM28.8532 10.3642C29.1774 9.94266 29.5016 9.41578 29.6097 8.67814C29.6097 8.57277 29.6097 8.46739 29.7177 8.25663V7.94051C29.7177 7.519 29.6097 7.0975 29.3935 6.88674C29.1774 6.67599 28.8532 6.46524 28.421 6.46524C27.8806 6.46524 27.3403 6.67599 27.0161 7.0975C26.6919 7.519 26.3677 8.04588 26.2597 8.88889C26.2597 8.99427 26.2597 9.09965 26.1516 9.20502V9.52115C26.1516 9.94266 26.2597 10.3642 26.4758 10.5749C26.6919 10.7857 27.0161 10.891 27.4484 10.891C28.0968 10.891 28.529 10.7857 28.8532 10.3642Z" fill="#EA2227"/>
<path d="M42.9016 0.564453H48.3048C49.3855 0.564453 50.1419 0.775206 50.6822 1.19671C51.2226 1.61822 51.5468 2.25047 51.5468 3.19886V3.72574C51.5468 3.9365 51.4387 4.14725 51.4387 4.358C51.2226 5.51714 50.6822 6.36015 49.8177 7.09779C48.9532 7.73004 47.9806 8.15155 46.7919 8.15155H43.8742L43.0097 12.3666H40.5242L42.9016 0.564453ZM44.1984 6.04402H46.5758C47.2242 6.04402 47.6564 5.93865 48.0887 5.62252C48.4129 5.30639 48.629 4.88488 48.8451 4.358V3.83112C48.8451 3.40961 48.7371 3.09349 48.4129 2.88273C48.0887 2.67198 47.6564 2.5666 47.008 2.5666H44.9548L44.1984 6.04402Z" fill="#1398E2"/>
<path d="M44.9548 0.564453H48.1968C49.2774 0.564453 50.0339 0.775206 50.5742 1.19671C51.1145 1.61822 51.4387 2.25047 51.4387 3.19886V3.72574C51.4387 3.9365 51.3307 4.14725 51.3307 4.358C51.1145 5.51714 50.5742 6.36015 49.7097 7.09779C48.8452 7.73004 47.8726 8.15155 46.6839 8.15155H43.7661L42.9016 12.3666H40.4161L44.9548 0.564453ZM44.1984 6.04402H46.5758C47.2242 6.04402 47.6565 5.93865 48.0887 5.62252C48.4129 5.30639 48.629 4.88488 48.8452 4.358V3.83112C48.8452 3.40961 48.7371 3.09349 48.4129 2.88273C48.0887 2.67198 47.6565 2.5666 47.0081 2.5666H44.9548L44.1984 6.04402Z" fill="#0872B9"/>
<path d="M62.5694 13.7366C61.8129 15.4226 61.0565 16.371 60.6242 16.7925C60.1919 17.214 59.3274 18.2677 57.1661 18.1624L57.3823 16.8979C59.1113 16.371 60.0839 13.9473 60.6242 12.8936L59.9758 5.0957H62.5694L62.6774 10.0484L64.8387 5.0957H67L62.5694 13.7366Z" fill="#055093"/>
<path d="M56.5178 5.62195L55.6533 6.25421C54.7887 5.51657 53.9242 5.09507 52.3033 5.8327C50.142 6.78109 48.3049 14.3682 54.2484 11.8392L54.5726 12.2607L56.95 12.366L58.4629 5.51657L56.5178 5.62195ZM55.1129 9.4155C54.6807 10.4693 53.9242 11.2069 53.2758 10.9961C52.6274 10.7854 52.4113 9.73163 52.7355 8.67786C53.1678 7.6241 53.9242 6.88647 54.5726 7.09722C55.3291 7.30797 55.5452 8.36173 55.1129 9.4155Z" fill="#0872B9"/>
<path d="M52.6274 12.3652C53.0597 12.2598 53.6 12.1544 54.2484 11.9437L54.5726 12.3652L56.95 12.4706L58.4629 5.62109H57.9226C56.842 8.2555 54.8968 10.5738 52.6274 12.3652Z" fill="#055093"/>
<path d="M30.9064 5.6224C30.3661 5.09552 29.6097 4.88477 28.7452 4.88477H28.2048C27.9887 5.51702 27.6645 6.14928 27.3403 6.78154C27.6645 6.57079 27.9887 6.46541 28.421 6.46541C28.8532 6.46541 29.1774 6.57079 29.3935 6.88692C29.6097 7.09767 29.7177 7.51917 29.7177 7.94068V8.25681C29.7177 8.36218 29.7177 8.46756 29.6097 8.67831C29.5016 9.41595 29.1774 10.0482 28.8532 10.3643C28.529 10.7858 27.9887 10.8912 27.4484 10.8912C27.0161 10.8912 26.6919 10.7858 26.4758 10.5751C26.2597 10.3643 26.1516 9.94283 26.1516 9.52132V9.20519C26.1516 9.09982 26.1516 8.99444 26.2597 8.88906C26.2597 8.67831 26.3677 8.57294 26.3677 8.46756C25.8274 9.31057 25.071 10.1536 24.3145 10.8912C24.4226 11.3127 24.6387 11.6288 24.9629 11.945C25.5032 12.4719 26.2597 12.6826 27.1242 12.6826C28.2048 12.6826 29.1774 12.3665 30.0419 11.6288C30.7984 10.9966 31.3387 10.0482 31.5548 8.88906C31.5548 8.67831 31.6629 8.57294 31.6629 8.36218V7.8353C31.6629 6.78154 31.4468 6.14928 30.9064 5.6224Z" fill="#A5002F"/>
</g>
<defs>
<clipPath id="clip0_6070_7092">
<rect width="67" height="28" fill="white"/>
</clipPath>
</defs>
</svg>
