<svg width="43" height="31" viewBox="0 0 43 31" fill="none" xmlns="http://www.w3.org/2000/svg">
<g clip-path="url(#clip0_6215_5997)">
<path d="M2.68529 0.00390625H40.28C41.7623 0.00390625 42.9652 1.20981 42.9652 2.69707V28.2699C42.9652 29.7558 41.7623 30.9617 40.28 30.9617H2.68529C1.20164 30.9618 0 29.7558 0 28.27V2.69707C0 1.20981 1.20297 0.00390625 2.68529 0.00390625Z" fill="#26A6D1"/>
<path d="M6.92817 10.7715L2.6853 20.1837H7.7646L8.39429 18.683H9.83361L10.4633 20.1837H16.0542V19.0383L16.5524 20.1837H19.4444L19.9426 19.0141V20.1837H31.5701L32.984 18.722L34.3078 20.1837L40.28 20.1958L36.0237 15.5039L40.28 10.7715H34.4005L33.0242 12.2062L31.742 10.7715H19.0927L18.0066 13.2009L16.8949 10.7715H11.8262V11.8779L11.2623 10.7715H6.92817ZM7.91098 12.108H10.3869L13.2012 18.4905V12.108H15.9134L18.0871 16.6842L20.0904 12.108H22.7891V18.8619H21.147L21.1336 13.5696L18.7396 18.8619H17.2707L14.8633 13.5696V18.8619H11.4851L10.8447 17.3478H7.38467L6.74556 18.8606H4.93559L7.91098 12.108ZM24.2915 12.108H30.9686L33.0108 14.3194L35.1188 12.108H37.161L34.0581 15.5025L37.161 18.8579H35.0262L32.984 16.6209L30.8652 18.8579H24.2915V12.108ZM9.11542 13.2507L7.97548 15.948H10.254L9.11542 13.2507ZM25.9404 13.5064V14.7393H29.583V16.1135H25.9404V17.4595H30.0261L31.9246 15.477L30.1066 13.5052H25.9404V13.5064Z" fill="white"/>
</g>
<defs>
<clipPath id="clip0_6215_5997">
<rect width="43" height="31" fill="white"/>
</clipPath>
</defs>
</svg>
