<svg width="76" height="19" viewBox="0 0 76 19" fill="none" xmlns="http://www.w3.org/2000/svg">
<g clip-path="url(#clip0_6215_6003)">
<path d="M15.9586 0H3.04389C1.36201 0 0 1.3623 0 3.04387V15.9567C0 17.6372 1.36201 19 3.04389 19H15.9586C17.6401 19 19.0014 17.6372 19.0014 15.9567V3.04387C19.0014 1.3623 17.6401 0 15.9586 0Z" fill="#1677FF"/>
<path d="M5.13432 14.6109C2.1782 14.6109 1.30424 12.2826 2.76515 11.0088C3.25266 10.5783 4.1435 10.3681 4.61845 10.321C6.37445 10.1474 7.99997 10.8173 9.91824 11.7536C8.56987 13.5124 6.85245 14.6109 5.13432 14.6109ZM15.6445 11.9301C14.8842 11.6754 13.8639 11.286 12.7275 10.8749C13.41 9.68865 13.9551 8.33774 14.3134 6.86954H10.5678V5.52059H15.1561V4.76763H10.5678V2.51889H8.69533C8.36686 2.51889 8.36686 2.84314 8.36686 2.84314V4.76763H3.72635V5.52059H8.36686V6.86954H4.53552V7.62233H11.9663C11.6943 8.55912 11.3293 9.43861 10.896 10.2377C8.48478 9.44217 5.91189 8.79741 4.29553 9.19427C3.26182 9.44893 2.59607 9.90345 2.20495 10.3797C0.40981 12.5636 1.69733 15.8809 5.48846 15.8809C7.73001 15.8809 9.88934 14.6312 11.563 12.5718C14.0592 13.7716 19.0014 15.8317 19.0014 15.8317V12.8957C19.0014 12.8957 18.3807 12.8462 15.6445 11.9301Z" fill="white"/>
<path d="M41.26 2.78123C41.26 3.76412 41.9845 4.42578 42.995 4.42578C44.0056 4.42578 44.73 3.76412 44.73 2.78123C44.73 1.81721 44.0056 1.1365 42.995 1.1365C41.9845 1.1365 41.26 1.81721 41.26 2.78123Z" fill="#1677FF"/>
<path d="M36.4171 15.3523H39.4296V1.55273H36.4171V15.3523Z" fill="black"/>
<path d="M26.7503 10.5688L28.5424 4.42519H28.6189L30.3158 10.5688H26.7503ZM31.1358 2.02448H27.0935L22.5747 15.3516H25.3585L26.1212 12.7428H30.9069L31.6312 15.3516H35.1968L31.1358 2.02448Z" fill="black"/>
<path d="M41.4888 15.353H44.5012V5.2207H41.4888V15.353Z" fill="black"/>
<path d="M75.9812 5.23932L76 5.22046H73.1592L71.3671 11.3829H71.2718L69.2126 5.22046H65.8375L69.899 15.3907L68.202 18.4908V18.5664H70.8523L75.9812 5.23932Z" fill="black"/>
<path d="M50.0881 13.6137C49.7451 13.6137 49.4208 13.576 49.0587 13.4624V7.98048C49.6879 7.54572 50.2027 7.33768 50.8508 7.33768C51.9759 7.33768 52.8719 8.22624 52.8719 10.1166C52.8719 12.5361 51.5564 13.6137 50.0881 13.6137ZM51.9949 5.0126C50.8891 5.0126 50.0311 5.42849 49.0587 6.22239V5.22046H46.0459V18.5664H49.0587V15.2583C49.6306 15.4095 50.1644 15.4852 50.8128 15.4852C53.5011 15.4852 55.9227 13.5192 55.9227 10.0221C55.9227 6.88405 54.1683 5.0126 51.9949 5.0126Z" fill="black"/>
<path d="M62.2342 12.895C61.4335 13.3298 60.9756 13.4999 60.4421 13.4999C59.7175 13.4999 59.2599 13.0274 59.2599 12.2713C59.2599 11.9876 59.317 11.7041 59.5457 11.4774C59.9081 11.1181 60.6137 10.8534 62.2342 10.4754V12.895ZM65.2467 12.8194V8.58512C65.2467 6.27873 63.8741 5.01235 61.4527 5.01235C59.9081 5.01235 58.8405 5.2768 56.8956 5.86283L57.4293 8.18809C59.2025 7.39402 59.9844 7.05376 60.8043 7.05376C61.7959 7.05376 62.2342 7.75315 62.2342 8.83071V8.90635C58.783 9.54915 57.7154 9.90828 57.048 10.5699C56.5524 11.0615 56.3428 11.7609 56.3428 12.5736C56.3428 14.5207 57.8681 15.5605 59.2982 15.5605C60.3658 15.5605 61.2236 15.1635 62.3869 14.2938L62.5966 15.3525H65.6091L65.2467 12.8194Z" fill="black"/>
</g>
<defs>
<clipPath id="clip0_6215_6003">
<rect width="76" height="19" fill="white"/>
</clipPath>
</defs>
</svg>
