<svg width="72" height="18" viewBox="0 0 72 18" fill="none" xmlns="http://www.w3.org/2000/svg">
<g clip-path="url(#clip0_6070_7177)">
<path d="M7.76178 11.3861C7.59817 11.4652 7.4089 11.4808 7.23357 11.4295C7.05824 11.3783 6.91044 11.2642 6.82109 11.1111L6.77419 11.0138L4.8316 6.93884C4.80993 6.89381 4.79837 6.84493 4.79765 6.79537C4.79824 6.73251 4.81696 6.67101 4.85176 6.61767C4.88656 6.56433 4.93608 6.5212 4.99487 6.49303C5.05366 6.46486 5.11944 6.45275 5.18497 6.45803C5.2505 6.4633 5.31323 6.48577 5.36627 6.52294L7.6586 8.08321C7.83118 8.19132 8.03295 8.24904 8.23928 8.24932C8.36378 8.24888 8.48726 8.22779 8.60422 8.18698L19.3843 3.60008C17.452 1.42235 14.2698 0 10.6683 0C4.77487 0 -0.00231934 3.8059 -0.00231934 8.50083C-0.00231934 11.0629 1.43508 13.3687 3.68454 14.926C3.77706 14.989 3.85246 15.0723 3.90445 15.1689C3.95643 15.2654 3.98349 15.3725 3.98336 15.4811C3.98121 15.5547 3.96858 15.6277 3.94584 15.698L3.46522 17.4124C3.44288 17.4931 3.4076 17.5768 3.4076 17.661C3.4076 17.7516 3.44524 17.8384 3.51226 17.9025C3.57927 17.9666 3.67016 18.0026 3.76494 18.0026C3.83822 17.9997 3.90927 17.9777 3.97041 17.9389L6.30607 16.6498C6.47693 16.55 6.67267 16.4957 6.8729 16.4927C6.97889 16.4929 7.08426 16.5081 7.18557 16.5379C8.31846 16.8481 9.49121 17.0051 10.6696 17.0042C16.5626 17.0042 21.3403 13.1979 21.3403 8.50339C21.3403 7.08146 20.8994 5.74195 20.1249 4.56384L7.83951 11.343L7.76178 11.3861Z" fill="#40A629"/>
<path d="M32.84 9.75053L32.6985 10.2313C32.5801 10.6327 32.4751 10.9871 32.3858 11.3373C32.2705 10.821 32.1111 10.2437 31.9677 9.73473L31.0167 6.30716L31.0002 6.24609H30.3748L29.3113 9.75737C29.121 10.3509 28.954 10.8872 28.8338 11.3561C28.7445 10.9854 28.6333 10.5717 28.518 10.1378L27.4866 6.30716L27.4697 6.24609H26.7496L28.4778 12.5017L28.4943 12.5628H29.1076L30.219 8.97936C30.4128 8.36831 30.5589 7.88794 30.6656 7.46819C30.7603 7.91142 30.8917 8.3982 31.0565 8.97466L32.0173 12.5017L32.0338 12.5628H32.656L34.6031 6.35157L34.6366 6.24609H33.9139L32.84 9.75053Z" fill="#40A629"/>
<path d="M36.903 7.89844C35.6076 7.89844 34.7411 8.88824 34.7411 10.3623C34.7411 11.7334 35.6402 12.6544 36.9785 12.6544C37.82 12.6544 38.2975 12.4482 38.4641 12.3602L38.5664 12.3056L38.2636 11.8038L38.1921 11.835C37.9554 11.94 37.6333 12.0485 37.0357 12.0485C36.0557 12.0485 35.4723 11.4319 35.4348 10.3559H38.7487L38.7705 10.2628C38.7891 10.1681 38.7962 10.0716 38.7915 9.97539C38.7915 9.80459 38.767 9.21575 38.4476 8.70334C38.1162 8.17001 37.5967 7.89972 36.903 7.89972M35.4736 9.77556C35.6487 8.83615 36.2946 8.49796 36.8476 8.49796C37.1991 8.49796 37.481 8.59873 37.6865 8.79899C37.9898 9.0932 38.0585 9.52064 38.0706 9.77556H35.4736Z" fill="#40A629"/>
<path d="M44.1284 11.7952C43.771 11.9527 43.2699 12.0471 42.7883 12.0471C41.1803 12.0471 40.224 11.0765 40.224 9.45133C40.224 7.7638 41.2107 6.75607 42.8638 6.75607C43.3212 6.75607 43.7572 6.83848 44.0886 6.98793L44.1596 7.01996L44.4826 6.48406L44.3861 6.43368C44.2588 6.36664 43.7715 6.14844 42.8545 6.14844C40.8502 6.14844 39.5044 7.47216 39.5044 9.44193C39.5044 11.8131 41.1928 12.6543 42.6383 12.6543C43.453 12.6543 44.0877 12.4895 44.4111 12.3353L44.5165 12.2845L44.2039 11.764L44.1284 11.7952Z" fill="#40A629"/>
<path d="M47.3935 7.89831C47.0476 7.89602 46.7083 7.98897 46.4162 8.16604C46.2464 8.261 46.0953 8.38354 45.9695 8.52814V6.14844H45.2687V12.5642H45.9695V9.80318C45.9626 9.67021 45.9793 9.53708 46.0191 9.40948C46.2156 8.88256 46.7306 8.51277 47.2698 8.51277C48.2449 8.51277 48.3905 9.37062 48.3905 9.8826V12.5625H49.0918V9.83777C49.0918 7.99011 47.6758 7.8966 47.3944 7.8966" fill="#40A629"/>
<path d="M55.3542 7.02344H54.652V8.03758H53.8882V8.58628H54.652V11.2008C54.652 11.7214 54.7538 12.0856 54.9615 12.311C55.1496 12.5412 55.4529 12.6633 55.833 12.6633C56.0664 12.669 56.2985 12.6289 56.5151 12.5455L56.6281 12.4981L56.3333 12.0104L56.2725 12.0232C56.1466 12.0467 56.0185 12.0576 55.8902 12.0557C55.5145 12.0557 55.3542 11.8247 55.3542 11.2824V8.58628H56.6464V8.03886H55.3542V7.02344Z" fill="#40A629"/>
<path d="M61.2293 6.20117C60.7633 6.20135 60.2983 6.24108 59.8397 6.31988L59.7369 6.33781V12.5627H60.4387V9.99554C60.6535 10.0284 60.871 10.0427 61.0886 10.0382C61.9297 10.0382 62.6251 9.78204 63.0481 9.32301C63.368 8.98738 63.5239 8.56294 63.5239 8.02534C63.5239 7.50012 63.3412 7.05945 62.9954 6.74987C62.6117 6.39204 62.0011 6.20203 61.2293 6.20203M60.4387 6.85236C60.6941 6.8153 60.9522 6.79803 61.2105 6.80069C62.2347 6.80069 62.8221 7.26314 62.8221 8.0706C62.8221 8.94084 62.2039 9.44001 61.1248 9.44001C60.9157 9.44001 60.6522 9.43275 60.4378 9.3798L60.4387 6.85236Z" fill="#40A629"/>
<path d="M71.2474 7.99609L70.1141 10.8771C70.0248 11.103 69.9431 11.3284 69.8752 11.5202C69.8037 11.3105 69.7242 11.0953 69.6474 10.9027L68.4583 8.07082L68.4275 7.99609H67.678L69.4258 12.1722C69.4485 12.2181 69.4647 12.2666 69.4741 12.3165C69.4653 12.3665 69.4496 12.415 69.4272 12.4609C69.2578 12.853 69.0109 13.2103 68.7 13.513C68.4845 13.7106 68.2298 13.8649 67.9509 13.9669L67.8236 14.0096L68.352 14.5335C68.4713 14.4908 68.6575 14.3593 69.0095 14.0758C69.613 13.5728 69.9922 12.8085 70.5729 11.3882L71.9531 8.1084L72.0013 7.99609H71.2474Z" fill="#40A629"/>
<path d="M53.3379 11.4174V9.72218C53.3379 8.52657 52.7532 7.89844 51.6473 7.89844C51.1525 7.90026 50.6682 8.0349 50.2496 8.28701L50.1768 8.32971L50.4815 8.83358L50.5578 8.78447C50.868 8.59231 51.2308 8.49245 51.6004 8.49753H51.6165C51.9291 8.49753 52.1708 8.5778 52.3369 8.73537C52.5384 8.92581 52.6358 9.22472 52.6367 9.64831C51.553 9.65215 50.7713 9.87377 50.3113 10.3093C50.0196 10.5852 49.8722 10.937 49.8722 11.3555C49.8722 11.9857 50.3274 12.6647 51.327 12.6647C51.5844 12.668 51.8396 12.6201 52.0765 12.524C52.3135 12.4279 52.5269 12.2858 52.7032 12.1066L52.7519 12.5656H53.425L53.4018 12.4281C53.3527 12.0938 53.3314 11.7562 53.3379 11.4187M50.8464 10.6714C51.1515 10.3883 51.7246 10.2444 52.55 10.2444H52.6349V11.0557C52.6356 11.1318 52.6219 11.2073 52.5942 11.2786C52.4602 11.6591 52.0667 12.0643 51.3721 12.0643C51.0117 12.0643 50.5904 11.8589 50.5904 11.2816C50.5904 11.0318 50.6758 10.826 50.8446 10.6693" fill="#40A629"/>
<path d="M67.1571 11.4174V9.72218C67.1571 8.52657 66.5724 7.89844 65.4669 7.89844C64.9939 7.90176 64.5303 8.02494 64.1233 8.25541L64.0527 8.29811L64.3542 8.79643L64.4293 8.75373C64.7284 8.58286 65.0711 8.49421 65.4196 8.49753H65.4365C65.747 8.49753 65.9895 8.5778 66.1566 8.73537C66.3576 8.92581 66.4549 9.22472 66.4554 9.64873C65.3731 9.65215 64.591 9.8742 64.1327 10.3093C63.841 10.5856 63.6936 10.937 63.6936 11.3555C63.6936 11.9857 64.1488 12.6647 65.1475 12.6647C65.405 12.6681 65.6604 12.6203 65.8975 12.5242C66.1346 12.4281 66.3482 12.2859 66.5246 12.1066L66.5724 12.5656H67.2469L67.2237 12.4281C67.1739 12.0938 67.1522 11.7563 67.1589 11.4187M66.4572 11.0579C66.4582 11.134 66.4446 11.2097 66.417 11.2812C66.283 11.6608 65.889 12.0664 65.1953 12.0664C64.8344 12.0664 64.4132 11.861 64.4132 11.2837C64.4132 11.0339 64.499 10.8281 64.6678 10.6714C64.9729 10.3883 65.546 10.2444 66.3705 10.2444H66.4567L66.4572 11.0579Z" fill="#40A629"/>
</g>
<defs>
<clipPath id="clip0_6070_7177">
<rect width="72" height="18" fill="white"/>
</clipPath>
</defs>
</svg>
