<svg width="77" height="18" viewBox="0 0 77 18" fill="none" xmlns="http://www.w3.org/2000/svg">
<g clip-path="url(#clip0_6215_6001)">
<path d="M42.8078 0.268956H47.5438L45.1612 17.7516H40.4254L42.8078 0.268956ZM36.8372 0.268956L33.6411 10.3401L32.2464 0.268956H28.9341L24.7502 10.3102L24.2274 0.268956H19.6366L21.2347 17.7516H25.0409L29.7477 6.69422L31.4039 17.7516H35.1519L41.3406 0.268956H36.8372ZM76.5985 10.4297H65.3543C65.4124 12.7012 66.7345 14.1953 68.681 14.1953C70.1484 14.1953 71.3106 13.3884 72.2113 11.8494L76.0072 13.6246C74.7028 16.2679 71.954 17.9906 68.5648 17.9906C63.9452 17.9906 60.8799 14.7929 60.8799 9.65286C60.8799 4.00457 64.4826 0 69.5672 0C74.0416 0 76.86 3.10802 76.86 7.94934C76.86 8.75628 76.7729 9.56322 76.5985 10.4297ZM72.3856 7.08271C72.3856 5.05055 71.2815 3.76549 69.5091 3.76549C67.7369 3.76549 66.1679 5.11031 65.7612 7.08271H72.3856ZM4.83471 5.53766L0 11.3488H8.63217L9.6026 8.60832H5.90392L8.16438 5.9202L8.17166 5.84847L6.70148 3.247H13.3129L8.18764 17.7516H11.6945L17.8832 0.268956H1.89438L4.83325 5.53766H4.83471ZM55.2433 3.76549C56.9138 3.76549 58.3782 4.68895 59.6566 6.27284L60.3279 1.34482C59.1365 0.51552 57.5241 0 55.3885 0C51.1466 0 48.7641 2.55515 48.7641 5.79767C48.7641 8.04654 49.9844 9.4212 51.9892 10.3102L52.948 10.7586C54.7347 11.543 55.2143 11.9315 55.2143 12.7609C55.2143 13.5902 54.408 14.1655 53.1804 14.1655C51.1537 14.1728 49.5122 13.1045 48.2774 11.2815L47.5932 16.3037C48.9995 17.4065 50.8023 17.9906 53.1804 17.9906C57.2117 17.9906 59.6886 15.5999 59.6886 12.2827C59.6886 10.0264 58.7153 8.577 56.2602 7.44134L55.2143 6.93329C53.7614 6.26836 53.2675 5.90227 53.2675 5.17009C53.2675 4.37814 53.943 3.76549 55.2433 3.76549Z" fill="#163300"/>
</g>
<defs>
<clipPath id="clip0_6215_6001">
<rect width="77" height="18" fill="white"/>
</clipPath>
</defs>
</svg>
