<svg width="44" height="28" viewBox="0 0 44 28" fill="none" xmlns="http://www.w3.org/2000/svg">
<g clip-path="url(#clip0_6070_7166)">
<path d="M41.1683 0.436906C42.3508 0.436906 43.313 1.42178 43.313 2.63244V25.168C43.313 26.3786 42.3509 27.3636 41.1683 27.3636H2.60985C1.42732 27.3636 0.465175 26.3787 0.465175 25.168V2.63244C0.465175 1.42187 1.42723 0.436906 2.60985 0.436906H41.1683ZM41.1683 0H2.60985C1.18968 0 0.0383911 1.1786 0.0383911 2.63244V25.168C0.0383911 26.622 1.18968 27.8005 2.60985 27.8005H41.1683C42.5885 27.8005 43.7397 26.622 43.7397 25.168V2.63244C43.7397 1.1786 42.5884 0 41.1683 0Z" fill="#00B5E5"/>
<path d="M5.13139 20.7445V16.7783H3.99469V15.5508H7.65078V16.7783H6.51408V20.7445H5.13139ZM8.32655 20.7445V15.5508H9.77164C10.3376 15.5508 10.7321 15.5774 10.955 15.6307C11.178 15.6839 11.3704 15.7732 11.532 15.8985C11.7146 16.0403 11.8549 16.2213 11.9531 16.4412C12.0513 16.6612 12.1004 16.9037 12.1004 17.1685C12.1004 17.5706 12.004 17.8976 11.8111 18.1494C11.6181 18.4013 11.3368 18.5686 10.9671 18.6515L12.3498 20.7445H10.787L9.62252 18.7116V20.7445L8.32655 20.7445ZM9.62261 18.0058H9.87902C10.1771 18.0058 10.3947 17.9538 10.5323 17.8497C10.6697 17.7457 10.7385 17.5825 10.7385 17.36C10.7385 17.0998 10.6745 16.9149 10.5462 16.8049C10.418 16.6949 10.2025 16.6399 9.89985 16.6399H9.62261V18.0058Z" fill="#00AFD8"/>
<path d="M12.2806 20.7437L14.0307 15.5499H15.7635L17.5169 20.7437H16.1411L15.8847 19.8142H13.9197L13.6564 20.7437H12.2806ZM14.2178 18.8031H15.5936L15.0773 17.0896C15.0611 17.0377 15.0392 16.9536 15.0115 16.8378C14.9837 16.722 14.948 16.573 14.9041 16.3908C14.8754 16.5128 14.846 16.6346 14.8157 16.7562C14.788 16.8678 14.7585 16.979 14.7273 17.0896L14.2178 18.8031ZM18.0021 20.7437V15.5499H19.3362L21.2526 18.2214C21.2896 18.2758 21.3503 18.3851 21.4346 18.5495C21.5188 18.7138 21.6119 18.9097 21.7136 19.1367C21.6884 18.9457 21.6682 18.754 21.653 18.5619C21.6411 18.4132 21.6347 18.2641 21.6339 18.1149V15.5499H22.9612V20.7437H21.6339L19.7175 18.0618C19.6782 18.0074 19.6163 17.8981 19.5321 17.7336C19.4478 17.5692 19.356 17.3759 19.2565 17.1536C19.2843 17.3712 19.3045 17.5638 19.3172 17.7319C19.3291 17.8805 19.3354 18.0296 19.3362 18.1788V20.7437H18.0021ZM24.2746 19.0657C24.4803 19.3047 24.6828 19.4831 24.8827 19.6015C25.0825 19.7198 25.2819 19.7788 25.4806 19.7788C25.6654 19.7788 25.8173 19.728 25.9363 19.6262C26.0553 19.5246 26.1148 19.3956 26.1148 19.2395C26.1148 19.067 26.0633 18.9339 25.9606 18.8405C25.8577 18.747 25.6249 18.6508 25.2622 18.5513C24.7656 18.4143 24.4143 18.2355 24.2087 18.0156C24.003 17.7956 23.9004 17.4942 23.9004 17.1108C23.9004 16.6142 24.0626 16.2093 24.3873 15.8959C24.7118 15.5825 25.1328 15.4258 25.6504 15.4258C25.9299 15.4258 26.195 15.4642 26.4457 15.541C26.6964 15.6179 26.9338 15.7344 27.1578 15.8905L26.7246 16.9086C26.5676 16.7716 26.4063 16.668 26.2413 16.5982C26.076 16.5285 25.9126 16.4936 25.7509 16.4936C25.5846 16.4936 25.4494 16.5345 25.3454 16.616C25.2415 16.6975 25.1895 16.8022 25.1895 16.9299C25.1895 17.0599 25.2351 17.1641 25.3264 17.2421C25.4177 17.32 25.5939 17.3947 25.8549 17.4657L25.9172 17.4833C26.4809 17.6395 26.8517 17.8109 27.0296 17.9978C27.1496 18.1256 27.241 18.2787 27.3034 18.4572C27.3657 18.6358 27.397 18.8339 27.397 19.0514C27.397 19.6027 27.2203 20.0454 26.8667 20.3802C26.5132 20.7147 26.042 20.882 25.4529 20.882C25.0994 20.882 24.7777 20.8205 24.4877 20.6976C24.1976 20.5746 23.9189 20.3819 23.6507 20.1194L24.2746 19.0657ZM28.1731 20.7437V15.5499H31.2817V16.6888H29.5212V17.5899H31.1812V18.7039H29.5212V20.7437H28.1731ZM32.0337 20.7437V15.5499H35.1422V16.6888H33.3818V17.5899H35.0418V18.7039H33.3818V19.5801H35.1422V20.7436L32.0337 20.7437ZM36.057 20.7437V15.5499H37.5022C38.0683 15.5499 38.4627 15.5766 38.6856 15.6299C38.9086 15.683 39.101 15.7723 39.2627 15.8976C39.4453 16.0395 39.5854 16.2204 39.6838 16.4404C39.7819 16.6604 39.8311 16.9029 39.8311 17.1676C39.8311 17.5698 39.7346 17.8967 39.5417 18.1486C39.3487 18.4005 39.0676 18.5677 38.6979 18.6507L40.0805 20.7436H38.5176L37.3532 18.7108V20.7436L36.057 20.7437ZM37.3532 18.005H37.6097C37.9077 18.005 38.1254 17.953 38.2627 17.8489C38.4002 17.7449 38.469 17.5816 38.469 17.3592C38.469 17.099 38.4049 16.9141 38.2767 16.804C38.1485 16.6941 37.933 16.6391 37.6304 16.6391H37.3532V18.005Z" fill="#00AFD8"/>
<path d="M19.8527 7.10556L20.7736 10.6721C20.8171 10.8327 20.8571 11 20.8938 11.1743C20.9305 11.3485 20.9688 11.5484 21.0089 11.7738C21.059 11.5073 21.1015 11.2879 21.1365 11.1153C21.1715 10.9428 21.2058 10.795 21.2391 10.6721L22.1001 7.10556H24.1175L22.0451 14.6077H20.1931L19.287 11.4049C19.2536 11.2921 19.1986 11.0718 19.1219 10.7438C19.0884 10.597 19.0618 10.4825 19.0418 10.4005C19.0251 10.4723 19.0018 10.5731 18.9717 10.7029C18.895 11.0342 18.8366 11.2683 18.7966 11.4049L17.9055 14.6077H16.0484L13.9811 7.10556H15.9983L16.8393 10.6926C16.8793 10.8771 16.9185 11.0616 16.9569 11.246C16.9952 11.4305 17.0311 11.6201 17.0645 11.8148C17.096 11.6642 17.1286 11.5139 17.1622 11.3638C17.2129 11.1396 17.2654 10.9158 17.3198 10.6925L18.2409 7.10547H19.8527V7.10556ZM24.8583 14.6077V7.10556H26.8756V14.6077H24.8583ZM28.4874 14.6077V7.10556H30.5747C31.3922 7.10556 31.962 7.14392 32.2841 7.22081C32.6061 7.29762 32.8839 7.42668 33.1176 7.60765C33.3812 7.81264 33.5839 8.074 33.7257 8.39172C33.8676 8.70944 33.9384 9.05966 33.9384 9.44222C33.9384 10.023 33.7991 10.4952 33.5205 10.8591C33.2419 11.223 32.8356 11.4646 32.3017 11.5842L34.299 14.6077H32.0414L30.3595 11.6714V14.6078H28.4874V14.6077ZM30.3595 10.6517H30.7299C31.1604 10.6517 31.4749 10.5765 31.6735 10.4262C31.872 10.2759 31.9713 10.0402 31.9713 9.71904C31.9713 9.3433 31.8788 9.07591 31.6935 8.91705C31.5083 8.75828 31.1971 8.67877 30.7598 8.67877H30.3595V10.6517ZM35.0598 14.6077V7.10556H39.5499V8.75051H37.007V10.0521H39.4047V11.6612H37.007V12.9269H39.5499V14.6077H35.0598Z" fill="#006E90"/>
<path d="M4.05505 7.05078H13.1981V8.53626H4.05505V7.05078Z" fill="url(#paint0_linear_6070_7166)"/>
<path d="M4.05505 9.93359H13.1981V11.4191H4.05505V9.93359Z" fill="url(#paint1_linear_6070_7166)"/>
<path d="M4.05505 13.0801H13.1981V14.5656H4.05505V13.0801Z" fill="url(#paint2_linear_6070_7166)"/>
</g>
<defs>
<linearGradient id="paint0_linear_6070_7166" x1="4.05505" y1="7.05078" x2="13.1981" y2="7.05078" gradientUnits="userSpaceOnUse">
<stop stop-color="#41E700" stop-opacity="0"/>
<stop offset="0.736" stop-color="#3ACD00"/>
<stop offset="0.781" stop-color="#36BE00"/>
<stop offset="0.926" stop-color="#299100"/>
<stop offset="1" stop-color="#248000"/>
</linearGradient>
<linearGradient id="paint1_linear_6070_7166" x1="4.05505" y1="9.93359" x2="13.1981" y2="9.93359" gradientUnits="userSpaceOnUse">
<stop stop-color="#41E700" stop-opacity="0"/>
<stop offset="0.736" stop-color="#3ACD00"/>
<stop offset="0.781" stop-color="#36BE00"/>
<stop offset="0.926" stop-color="#299100"/>
<stop offset="1" stop-color="#248000"/>
</linearGradient>
<linearGradient id="paint2_linear_6070_7166" x1="4.05505" y1="13.0801" x2="13.1981" y2="13.0801" gradientUnits="userSpaceOnUse">
<stop stop-color="#41E700" stop-opacity="0"/>
<stop offset="0.736" stop-color="#3ACD00"/>
<stop offset="0.781" stop-color="#36BE00"/>
<stop offset="0.926" stop-color="#299100"/>
<stop offset="1" stop-color="#248000"/>
</linearGradient>
<clipPath id="clip0_6070_7166">
<rect width="44" height="28" fill="white"/>
</clipPath>
</defs>
</svg>
