<svg width="45" height="28" viewBox="0 0 45 28" fill="none" xmlns="http://www.w3.org/2000/svg">
<g clip-path="url(#clip0_6070_7082)">
<path d="M41.7889 0.495499C42.9882 0.495499 43.964 1.48037 43.964 2.69104V25.2266C43.964 26.4372 42.9883 27.4222 41.7889 27.4222H2.68275C1.48342 27.4222 0.507615 26.4373 0.507615 25.2266V2.69104C0.507615 1.48046 1.48334 0.495499 2.68275 0.495499H41.7889ZM41.7889 0.0585938H2.68275C1.24241 0.0585938 0.0747681 1.23719 0.0747681 2.69104V25.2266C0.0747681 26.6806 1.24241 27.8591 2.68275 27.8591H41.7889C43.2293 27.8591 44.3969 26.6806 44.3969 25.2266V2.69104C44.3969 1.23719 43.2292 0.0585938 41.7889 0.0585938Z" fill="#E30613"/>
<path fill-rule="evenodd" clip-rule="evenodd" d="M22.2975 22.514C24.2579 24.3374 26.8909 25.4432 29.7545 25.4432C35.9042 25.4432 40.882 20.3803 40.882 14.153C40.882 7.90679 35.9042 2.84375 29.7545 2.84375C26.8909 2.84375 24.258 3.94938 22.2975 5.77294C20.0491 7.84842 18.6268 10.8361 18.6268 14.153C18.6268 17.4702 20.0492 20.4579 22.2975 22.514Z" fill="#FAB31E"/>
<path fill-rule="evenodd" clip-rule="evenodd" d="M25.8916 12.9502C25.8532 12.5429 25.7764 12.1549 25.6992 11.7475H18.8961C18.9729 11.3402 19.088 10.9521 19.2033 10.5641H25.3727C25.2379 10.157 25.0842 9.74948 24.9112 9.36151H19.6839C19.8761 8.9544 20.0874 8.54685 20.3181 8.15888H24.2579C24.008 7.75151 23.7199 7.34405 23.4122 6.97557H21.1636C21.5116 6.54697 21.8905 6.14499 22.2974 5.77294C20.3181 3.96878 17.7043 2.84375 14.8216 2.84375C8.69102 2.84375 3.69415 7.90679 3.69415 14.153C3.69415 20.3803 8.69102 25.4432 14.8216 25.4432C17.7044 25.4432 20.3181 24.3374 22.2974 22.514C22.698 22.1484 23.0707 21.7528 23.4122 21.3305H21.1636C20.8561 20.9426 20.587 20.5547 20.3181 20.1279H24.2578C24.5056 19.7444 24.7239 19.3423 24.9111 18.9252H19.6838C19.5106 18.5373 19.3379 18.1492 19.2032 17.7417H25.3727C25.5071 17.3538 25.603 16.9465 25.6991 16.5391C25.7763 16.1512 25.853 15.7436 25.8916 15.3364C25.9299 14.9484 25.9492 14.5605 25.9492 14.1529C25.9493 13.7457 25.93 13.3382 25.8916 12.9502Z" fill="#E40520"/>
<path fill-rule="evenodd" clip-rule="evenodd" d="M39.402 16.7726C39.402 16.5595 39.5556 16.4043 39.7479 16.4043C39.9591 16.4043 40.113 16.5594 40.113 16.7726C40.113 16.9666 39.9592 17.1414 39.7479 17.1414C39.5556 17.1414 39.402 16.9666 39.402 16.7726ZM39.7479 17.0441C39.9016 17.0441 40.0361 16.9278 40.0361 16.7726C40.0361 16.6173 39.9016 16.5009 39.7479 16.5009C39.6134 16.5009 39.4789 16.6173 39.4789 16.7726C39.4789 16.9278 39.6135 17.0441 39.7479 17.0441ZM39.7095 16.9278H39.6326V16.6172H39.844C39.8824 16.637 39.8824 16.6758 39.8824 16.7145C39.8824 16.7338 39.8633 16.7725 39.8248 16.7922L39.9017 16.9278H39.8056L39.7672 16.8114H39.7096V16.9278V16.7534H39.748C39.7672 16.7534 39.7866 16.7534 39.7866 16.7338C39.8056 16.7338 39.8056 16.7145 39.8056 16.6951C39.8056 16.6951 39.8056 16.6758 39.7866 16.6758C39.7866 16.656 39.7671 16.6758 39.748 16.6758H39.7096V16.9278H39.7095Z" fill="white"/>
<path fill-rule="evenodd" clip-rule="evenodd" d="M18.5115 17.4116C18.1466 17.5084 17.8775 17.5667 17.6084 17.5667C17.0317 17.5667 16.6858 17.198 16.6858 16.5385C16.6858 16.403 16.705 16.2669 16.7242 16.1117L16.8011 15.6654L16.8588 15.2971L17.3777 12.1156H18.5309L18.3961 12.814H19.1266L18.9536 13.978H18.2234L17.9159 15.8789C17.8965 15.9762 17.8965 16.034 17.8965 16.0729C17.8965 16.3255 18.0118 16.4221 18.3003 16.4221C18.4346 16.4221 18.5499 16.403 18.6652 16.3833L18.5115 17.4116ZM22.2401 17.3729C21.8174 17.4893 21.4331 17.5473 21.0099 17.5473C19.7032 17.5473 18.9537 16.849 18.9537 15.4715C18.9537 13.8617 19.8378 12.6977 21.0676 12.6977C22.048 12.6977 22.682 13.3574 22.682 14.3852C22.682 14.7343 22.6437 15.0644 22.5476 15.5298H20.1452C20.1258 15.6075 20.1258 15.6463 20.1258 15.685C20.1258 16.2282 20.491 16.4996 21.1829 16.4996C21.625 16.4996 22.0094 16.403 22.4322 16.209L22.2401 17.3729ZM21.5288 14.5988V14.366C21.5288 13.9781 21.3178 13.7646 20.9524 13.7646C20.5681 13.7646 20.2988 14.0557 20.1837 14.5988H21.5288ZM9.2868 17.4696H8.09526L8.78713 13.0661L7.23044 17.4696H6.40405L6.30787 13.0857L5.57766 17.4696H4.40533L5.34703 11.7471H7.09599L7.13434 15.2775L8.30658 11.7471H10.2284L9.2868 17.4696ZM12.1889 15.3938C12.0735 15.3747 12.0351 15.3747 11.9582 15.3747C11.2662 15.3747 10.9204 15.6462 10.9204 16.0729C10.9204 16.3642 11.0933 16.5581 11.3624 16.5581C11.9389 16.5582 12.1696 16.073 12.1889 15.3938ZM13.1497 17.4696H12.112L12.1312 16.9848C11.8621 17.3532 11.4969 17.5473 10.8628 17.5473C10.2862 17.5473 9.78648 17.0238 9.78648 16.267C9.78648 16.054 9.82509 15.86 9.88249 15.6655C10.0747 14.9479 10.7858 14.5017 11.8814 14.4825C12.0157 14.4825 12.2271 14.4825 12.4194 14.5017C12.4578 14.3465 12.4578 14.2885 12.4578 14.1913C12.4578 13.8809 12.208 13.7842 11.6506 13.7842C11.3046 13.7842 10.9203 13.8421 10.6512 13.9393L10.4784 13.978L10.4016 13.9973L10.5744 12.9498C11.1318 12.7755 11.5354 12.6977 11.9775 12.6977C13.0152 12.6977 13.5725 13.1826 13.5725 14.0749C13.5725 14.3076 13.5917 14.4825 13.5148 14.9868L13.2458 16.655L13.2074 16.9461L13.1881 17.179L13.1689 17.3341L13.1497 17.4696ZM28.0439 12.853C28.3898 12.853 28.6974 12.9498 29.12 13.1634L29.3316 11.9217C29.2163 11.8635 29.1778 11.8635 29.024 11.8054L28.5434 11.6695C28.3898 11.6307 28.1977 11.6113 27.9861 11.6113C27.3904 11.6113 27.0446 11.6307 26.6794 11.8442C26.4873 11.98 26.2374 12.1545 25.9684 12.465L25.8146 12.4262L24.5845 13.299L24.6422 12.8141H23.3739L22.6244 17.4697H23.8351L24.2771 14.9672C24.2771 14.9672 24.45 14.618 24.5269 14.5017C24.7574 14.2109 24.9496 14.2109 25.1996 14.2109H25.2958C25.2571 14.4825 25.2379 14.7732 25.2379 15.1033C25.2379 16.6161 26.0837 17.5668 27.3904 17.5668C27.7171 17.5668 28.0054 17.5281 28.4474 17.4117L28.6588 16.0927C28.2744 16.3058 27.9284 16.4031 27.6402 16.4031C26.9292 16.4031 26.5065 15.86 26.5065 15.006C26.5066 13.7453 27.1408 12.853 28.0439 12.853ZM38.249 11.7471L37.98 13.3765C37.6917 12.9306 37.3459 12.717 36.8847 12.717C36.2502 12.717 35.6545 13.0857 35.2894 13.7841V13.7645L34.5206 13.2988L34.5975 12.814H33.31L32.5797 17.4695H33.7713L34.1747 14.967C34.1747 14.967 34.4822 14.6179 34.5591 14.5015C34.7512 14.2689 34.9434 14.2299 35.0972 14.2107C34.9626 14.5986 34.8859 15.0644 34.8859 15.5878C34.8859 16.752 35.4816 17.5279 36.3658 17.5279C36.8078 17.5279 37.1537 17.3728 37.4803 17.004L37.4228 17.4695H38.5566L39.479 11.747L38.249 11.7471ZM36.7693 16.3642C36.3657 16.3642 36.1543 16.0539 36.1543 15.4523C36.1543 14.5403 36.5384 13.8809 37.0959 13.8809C37.5189 13.8809 37.7302 14.2108 37.7302 14.7929C37.7302 15.7239 37.3458 16.3642 36.7693 16.3642ZM31.2151 15.3938C31.0997 15.3747 31.0612 15.3747 30.9844 15.3747C30.2926 15.3747 29.9466 15.6462 29.9466 16.0729C29.9466 16.3642 30.1197 16.5581 30.3887 16.5581C30.9651 16.5582 31.1958 16.073 31.2151 15.3938ZM32.1759 17.4696H31.1189L31.1574 16.9848C30.8883 17.3532 30.5232 17.5473 29.8891 17.5473C29.2933 17.5473 28.7742 17.0429 28.7742 16.267C28.7742 15.1612 29.6008 14.4825 30.9076 14.4825C31.0421 14.4825 31.2535 14.4825 31.4265 14.5017C31.4648 14.3465 31.4841 14.2885 31.4841 14.1913C31.4841 13.8809 31.2344 13.7842 30.6577 13.7842C30.3311 13.7842 29.9274 13.8421 29.6585 13.9393L29.5048 13.978L29.4278 13.9973L29.6008 12.9498C30.1581 12.7755 30.5616 12.6977 31.0037 12.6977C32.0414 12.6977 32.5797 13.1826 32.5797 14.0749C32.5797 14.3076 32.6178 14.4825 32.5218 14.9868L32.2719 16.655L32.2335 16.9461L32.1951 17.179L32.1759 17.3341V17.4696ZM15.6673 13.8033C15.8979 13.8033 16.2246 13.8229 16.5706 13.8809L16.7435 12.7946C16.3976 12.7559 15.9363 12.6977 15.6673 12.6977C14.322 12.6977 13.8799 13.435 13.8799 14.2884C13.8799 14.8509 14.1299 15.2584 14.7833 15.5687C15.2636 15.8014 15.3406 15.8402 15.3406 16.0539C15.3406 16.3447 15.0908 16.5194 14.6295 16.5194C14.2644 16.5194 13.9185 16.461 13.5341 16.3255L13.3995 17.392L13.4188 17.4116L13.6494 17.4504C13.7262 17.4696 13.8225 17.4892 13.957 17.5084C14.2452 17.528 14.4951 17.5472 14.6487 17.5472C15.9941 17.5472 16.5514 17.0237 16.5514 15.9953C16.5514 15.3549 16.2439 14.967 15.6481 14.6954C15.1292 14.4627 15.0715 14.424 15.0715 14.2107C15.0715 13.9973 15.3022 13.8033 15.6673 13.8033Z" fill="#06326E"/>
<path fill-rule="evenodd" clip-rule="evenodd" d="M29.6585 11.5546L29.447 12.796C29.024 12.5827 28.7166 12.4856 28.3706 12.4856C27.4674 12.4856 26.8332 13.3779 26.8332 14.639C26.8332 15.5117 27.256 16.0356 27.967 16.0356C28.2553 16.0356 28.6012 15.9389 28.9856 15.7444L28.7743 17.0443C28.3323 17.1607 28.044 17.219 27.7174 17.219C26.4105 17.219 25.6033 16.2683 25.6033 14.7358C25.6033 12.699 26.718 11.2637 28.3131 11.2637C28.5244 11.2637 28.7166 11.2831 28.8706 11.3219L29.3509 11.4383C29.5047 11.4964 29.5429 11.5158 29.6585 11.5546ZM25.7764 12.408H25.661C25.2572 12.408 25.0267 12.602 24.6615 13.1647L24.7767 12.4468H23.6815L22.932 17.1027H24.1426C24.5846 14.251 24.6999 13.7658 25.2765 13.7658H25.3533C25.4686 13.2034 25.6224 12.7959 25.8147 12.4273L25.7764 12.408ZM18.819 17.0442C18.4925 17.1606 18.2236 17.1993 17.9544 17.1993C17.3394 17.1993 16.9933 16.8502 16.9933 16.1715C16.9933 16.0551 17.0126 15.8995 17.0318 15.764L17.1087 15.2984L17.1663 14.9296L17.6855 11.7484H18.8769L18.7421 12.4467H19.3571L19.2035 13.5914H18.5885L18.262 15.5311C18.2426 15.6088 18.2426 15.6667 18.2426 15.7252C18.2426 15.958 18.3579 16.0551 18.6464 16.0551C18.7806 16.0551 18.8962 16.0551 18.9731 16.0163L18.819 17.0442ZM14.1875 13.921C14.1875 14.503 14.4565 14.9104 15.0907 15.2209C15.5905 15.4536 15.6674 15.5312 15.6674 15.7252C15.6674 16.0163 15.456 16.1519 14.9755 16.1519C14.6103 16.1519 14.2836 16.0939 13.8993 15.9776L13.7261 17.0442L13.7839 17.0639L13.9954 17.1027C14.0721 17.1218 14.1683 17.1414 14.3221 17.1414C14.5911 17.1802 14.8217 17.1802 14.9755 17.1802C16.2439 17.1802 16.8397 16.6951 16.8397 15.6283C16.8397 14.9879 16.5898 14.6192 15.9941 14.3285C15.4752 14.0958 15.4174 14.0372 15.4174 13.8242C15.4174 13.5718 15.6289 13.4554 16.0133 13.4554C16.2438 13.4554 16.5706 13.475 16.878 13.5138L17.051 12.4467C16.7435 12.3885 16.2631 12.3496 15.9941 12.3496C14.6487 12.3497 14.1683 13.0675 14.1875 13.921ZM38.8639 17.1027H37.7301L37.7877 16.6562C37.4611 17.0054 37.1151 17.1606 36.6731 17.1606C35.7888 17.1606 35.2124 16.4044 35.2124 15.24C35.2124 13.6883 36.1157 12.3692 37.1728 12.3692C37.6533 12.3692 37.9992 12.5826 38.3258 13.0095L38.5949 11.3797H39.7866L38.8639 17.1027ZM37.0959 16.0164C37.6532 16.0164 38.0376 15.3563 38.0376 14.4451C38.0376 13.8434 37.8262 13.5331 37.4035 13.5331C36.8653 13.5331 36.4616 14.1734 36.4616 15.0849C36.4616 15.706 36.6731 16.0164 37.0959 16.0164ZM22.5091 17.0054C22.0864 17.1415 21.7021 17.1994 21.2597 17.1994C19.9146 17.1994 19.2228 16.4819 19.2228 15.1045C19.2228 13.5139 20.1067 12.3303 21.3177 12.3303C22.3169 12.3303 22.9511 12.9899 22.9511 14.0181C22.9511 14.3673 22.9126 14.6969 22.7974 15.1821H20.4142C20.395 15.24 20.395 15.2787 20.395 15.3175C20.395 15.8612 20.7601 16.1327 21.452 16.1327C21.8941 16.1327 22.2785 16.0551 22.7014 15.8416L22.5091 17.0054ZM21.8363 14.2313V13.9986C21.8363 13.6106 21.6251 13.3973 21.2597 13.3973C20.8755 13.3973 20.6064 13.6884 20.4911 14.2313H21.8363ZM9.59426 17.1027H8.40281L9.09458 12.699L7.53789 17.1027H6.71142L6.61541 12.7377L5.88503 17.1027H4.77045L5.71215 11.3797H7.4418L7.49946 14.9297L8.65247 11.3797H10.536L9.59426 17.1027ZM12.5731 15.0269C12.4578 15.0269 12.4001 15.0072 12.3041 15.0072C11.6314 15.0072 11.2855 15.2596 11.2855 15.7252C11.2855 16.0163 11.4392 16.1907 11.7083 16.1907C12.208 16.1908 12.554 15.7253 12.5731 15.0269ZM13.4572 17.1027H12.4578L12.477 16.6173C12.1695 17.0053 11.7659 17.1802 11.2086 17.1802C10.5553 17.1802 10.1132 16.6759 10.1132 15.919C10.1132 14.7743 10.8819 14.1149 12.2271 14.1149C12.3616 14.1149 12.5348 14.1345 12.7269 14.1536C12.7653 13.9985 12.7653 13.9406 12.7653 13.8629C12.7653 13.5526 12.554 13.4362 11.9966 13.4362C11.6506 13.4362 11.2663 13.475 10.9973 13.5526L10.8243 13.6106L10.709 13.6301L10.882 12.5826C11.4777 12.4079 11.8814 12.3496 12.3234 12.3496C13.3611 12.3496 13.9185 12.8153 13.9185 13.7077C13.9185 13.9405 13.8993 14.1148 13.8225 14.6388L13.5532 16.2878L13.5148 16.5785L13.4956 16.8113L13.4765 16.986L13.4572 17.1027ZM31.5994 15.0269C31.4648 15.0269 31.4072 15.0072 31.3303 15.0072C30.6386 15.0072 30.2926 15.2596 30.2926 15.7252C30.2926 16.0163 30.4656 16.1907 30.7347 16.1907C31.215 16.1908 31.5802 15.7253 31.5994 15.0269ZM32.4833 17.1027H31.484L31.5032 16.6173C31.1958 17.0053 30.7922 17.1802 30.235 17.1802C29.5816 17.1802 29.1396 16.6759 29.1396 15.919C29.1396 14.7743 29.9083 14.1149 31.2535 14.1149C31.388 14.1149 31.561 14.1345 31.734 14.1536C31.7724 13.9985 31.7916 13.9406 31.7916 13.8629C31.7916 13.5526 31.5803 13.4362 31.0228 13.4362C30.677 13.4362 30.2735 13.475 30.0043 13.5526L29.8506 13.6106L29.7353 13.6301L29.9083 12.5826C30.504 12.4079 30.9075 12.3496 31.3495 12.3496C32.3873 12.3496 32.9256 12.8153 32.9256 13.7077C32.9256 13.9405 32.9256 14.1148 32.8292 14.6388L32.5796 16.2878L32.541 16.5785L32.5027 16.8113L32.4834 16.986V17.1027H32.4833ZM35.712 12.408H35.5967C35.1931 12.408 34.9626 12.602 34.5974 13.1647L34.7126 12.4468H33.6174L32.8869 17.1027H34.0786C34.5206 14.251 34.6359 13.7658 35.2125 13.7658H35.2894C35.4046 13.2034 35.5584 12.7959 35.7506 12.4273L35.712 12.408Z" fill="white"/>
</g>
<defs>
<clipPath id="clip0_6070_7082">
<rect width="44.625" height="28" fill="white"/>
</clipPath>
</defs>
</svg>
