<svg width="512" height="512" viewBox="0 0 512 512" fill="none" xmlns="http://www.w3.org/2000/svg">
<rect width="512" height="512" rx="60" fill="#BE8D28"/>
<path d="M256 502C391.862 502 502 391.862 502 256C502 120.138 391.862 10 256 10C120.138 10 10 120.138 10 256C10 391.862 120.138 502 256 502Z" fill="#BE8D28"/>
<path d="M256 456C351.676 456 429.237 411.228 429.237 356C429.237 300.772 351.676 256 256 256C160.324 256 82.7629 300.772 82.7629 356C82.7629 411.228 160.324 456 256 456Z" fill="#EDEFF1"/>
<path d="M256 256C311.228 256 356 211.228 356 156C356 100.772 311.228 56 256 56C200.772 56 156 100.772 156 156C156 211.228 200.772 256 256 256Z" fill="#EDEFF1"/>
<path d="M256 376L336.714 272.961C312.027 262.058 284.722 256 256 256C227.278 256 199.973 262.058 175.286 272.961L256 376Z" fill="#D3D3D3"/>
</svg>
