<svg width="56" height="57" viewBox="0 0 56 57" fill="none" xmlns="http://www.w3.org/2000/svg">
<rect x="0.5" y="1" width="55" height="55" rx="9.5" stroke="#be8d28" stroke-dasharray="2 2"/>
<path d="M36.3439 42.8774C34.2122 44.6912 31.4496 45.7856 28.4314 45.7856C21.6839 45.7856 16.214 40.3157 16.214 33.5683C16.214 26.8208 21.6837 21.351 28.4312 21.351C35.1787 21.351 40.6488 26.8208 40.6488 33.5683C40.6488 36.2355 39.7941 38.703 38.3437 40.712M33.3546 18.9424C39.4567 21.0018 43.8627 26.7802 43.8627 33.5684C43.8627 42.0772 36.9401 48.9998 28.4314 48.9998C19.9226 48.9998 13 42.0772 13 33.5684C13 29.5747 14.5245 25.9301 17.0233 23.187M23.3357 19.0024C21.8442 19.5246 20.4558 20.2708 19.2128 21.1995" stroke="#be8d28" stroke-width="1.5" stroke-miterlimit="10" stroke-linecap="round" stroke-linejoin="round"/>
<path d="M21.645 13.5635C21.0306 13.9252 20.4813 14.3367 20.0106 14.7888C19.5695 15.2122 19.594 15.9254 20.0664 16.3133L23.6857 19.2912V22.3055" stroke="#be8d28" stroke-width="1.5" stroke-miterlimit="10" stroke-linecap="round" stroke-linejoin="round"/>
<path d="M34.9705 13.5635C35.584 13.926 36.1333 14.3375 36.6039 14.7888C37.0451 15.2122 37.0214 15.9254 36.5482 16.3133L32.9297 19.2912V22.2049" stroke="#be8d28" stroke-width="1.5" stroke-miterlimit="10" stroke-linecap="round" stroke-linejoin="round"/>
<path d="M34.3638 7H22.2511C22.1046 7 21.9665 7.06811 21.8774 7.18439L19.0659 10.8515C18.9116 11.0528 18.9445 11.3403 19.1405 11.5016L28.0084 18.7983C28.1822 18.9414 28.4329 18.9414 28.6068 18.7983L37.4747 11.5016C37.6706 11.3404 37.7036 11.0529 37.5492 10.8515L34.7375 7.18439C34.6483 7.06811 34.5102 7 34.3638 7Z" stroke="#be8d28" stroke-width="1.5" stroke-miterlimit="10" stroke-linecap="round" stroke-linejoin="round"/>
<path d="M37.5476 10.8515L34.7362 7.18439C34.647 7.0682 34.5089 7 34.3625 7H22.2498C22.1033 7 21.9652 7.0682 21.8761 7.18439L19.0647 10.8515C18.9828 10.9582 18.955 11.089 18.9749 11.2125H37.6375C37.6572 11.0889 37.6295 10.9582 37.5476 10.8515Z" stroke="#be8d28" stroke-width="1.5" stroke-miterlimit="10" stroke-linecap="round" stroke-linejoin="round"/>
<path d="M31.6622 11.2125L28.3077 7L24.9531 11.2125" stroke="#be8d28" stroke-width="1.5" stroke-miterlimit="10" stroke-linecap="round" stroke-linejoin="round"/>
<path d="M24.9531 11.2119L27.9 18.7084" stroke="#be8d28" stroke-width="1.5" stroke-miterlimit="10" stroke-linecap="round" stroke-linejoin="round"/>
<path d="M28.7148 18.7084L31.6617 11.2119" stroke="#be8d28" stroke-width="1.5" stroke-miterlimit="10" stroke-linecap="round" stroke-linejoin="round"/>
<path d="M24.8721 11.2125L21.9062 7.15723C21.8983 7.1661 21.8901 7.1748 21.8828 7.18435" stroke="#be8d28" stroke-width="1.5" stroke-miterlimit="10" stroke-linecap="round" stroke-linejoin="round"/>
<path d="M34.7354 7.18435C34.7281 7.1748 34.72 7.1661 34.712 7.15723L31.7461 11.2125" stroke="#be8d28" stroke-width="1.5" stroke-miterlimit="10" stroke-linecap="round" stroke-linejoin="round"/>
</svg>
