<svg width="57" height="57" viewBox="0 0 57 57" fill="none" xmlns="http://www.w3.org/2000/svg">
<rect x="0.832031" y="1" width="55" height="55" rx="9.5" stroke="#be8d28" stroke-dasharray="2 2"/>
<path d="M36.9081 41.2048C34.5423 43.2177 31.4762 44.4323 28.1264 44.4323C20.6378 44.4323 14.5671 38.3616 14.5671 30.873C14.5671 23.3845 20.6375 17.3138 28.1262 17.3138C35.6149 17.3138 41.6858 23.3845 41.6858 30.873C41.6858 33.8332 40.7372 36.5718 39.1275 38.8015M33.5904 14.6406C40.3628 16.9262 45.2528 23.3393 45.2528 30.8732C45.2528 40.3166 37.5698 47.9996 28.1264 47.9996C18.683 47.9996 11 40.3166 11 30.8732C11 26.4409 12.6919 22.3958 15.4652 19.3515M22.4711 14.7072C20.8157 15.2868 19.2748 16.115 17.8952 17.1457" stroke="#be8d28" stroke-width="1.5" stroke-miterlimit="10" stroke-linecap="round" stroke-linejoin="round"/>
<path d="M20.5974 8.67285C19.9156 9.07426 19.306 9.531 18.7836 10.0328C18.294 10.5026 18.3212 11.2942 18.8455 11.7247L22.8624 15.0297V18.3751" stroke="#be8d28" stroke-width="1.5" stroke-miterlimit="10" stroke-linecap="round" stroke-linejoin="round"/>
<path d="M35.3841 8.67285C36.065 9.0752 36.6746 9.53194 37.197 10.0328C37.6866 10.5026 37.6603 11.2942 37.1351 11.7247L33.1191 15.0297V18.2635" stroke="#be8d28" stroke-width="1.5" stroke-miterlimit="10" stroke-linecap="round" stroke-linejoin="round"/>
<path d="M21.1758 8L27.6597 14.4826C27.8526 14.6414 28.1309 14.6414 28.3238 14.4826L34.8061 8.00027" stroke="#be8d28" stroke-width="1.5" stroke-miterlimit="10" stroke-linecap="round" stroke-linejoin="round"/>
</svg>
