<svg width="20" height="20" viewBox="0 0 20 20" fill="none" xmlns="http://www.w3.org/2000/svg">
<path d="M4.9987 5V14.8333C4.9987 15.7668 4.9987 16.2331 5.18035 16.5897C5.34014 16.9033 5.59493 17.1587 5.90853 17.3185C6.2647 17.5 6.73119 17.5 7.66279 17.5H12.3346C13.2662 17.5 13.732 17.5 14.0882 17.3185C14.4018 17.1587 14.6574 16.9033 14.8172 16.5897C14.9987 16.2335 14.9987 15.7675 14.9987 14.8359V5M4.9987 5H6.66536M4.9987 5H3.33203M6.66536 5H13.332M6.66536 5C6.66536 4.22343 6.66536 3.83534 6.79223 3.52905C6.96139 3.12067 7.28563 2.79602 7.69401 2.62687C8.0003 2.5 8.3888 2.5 9.16536 2.5H10.832C11.6086 2.5 11.9969 2.5 12.3032 2.62687C12.7115 2.79602 13.0359 3.12067 13.2051 3.52905C13.3319 3.83534 13.332 4.22343 13.332 5M13.332 5H14.9987M14.9987 5H16.6654" stroke="#be8d28" stroke-width="1.6" stroke-linecap="round" stroke-linejoin="round"/>
</svg>
