<svg width="22" height="22" viewBox="0 0 22 22" fill="none" xmlns="http://www.w3.org/2000/svg">
<g clip-path="url(#clip0_1909_12870)">
<path d="M21.8677 11.304C21.6297 10.8809 21.0745 10.7223 20.625 10.9867L17.6106 12.7319L16.8438 13.1814V17.3592L17.5577 17.7823C17.5841 17.7823 17.5841 17.8087 17.6106 17.8087L20.5721 19.5275C20.7043 19.6332 20.8894 19.6861 21.0745 19.6861C21.5769 19.6861 21.9735 19.2895 21.9735 18.7871V15.2439L21.9999 11.7535C21.9999 11.5949 21.9735 11.4362 21.8677 11.304Z" fill="white"/>
<path d="M4.25743 9.95573C6.61077 9.95573 8.51459 8.0519 8.51459 5.69857C8.51459 3.34523 6.61077 1.44141 4.25743 1.44141C1.90409 1.44141 0.000268468 3.34523 0.000268468 5.69857C-0.0261735 8.0519 1.90409 9.95573 4.25743 9.95573ZM4.25743 3.9534C5.23578 3.9534 6.0026 4.74666 6.0026 5.69857C6.0026 6.67692 5.20934 7.44374 4.25743 7.44374C3.30552 7.44374 2.51226 6.65048 2.51226 5.69857C2.48582 4.72021 3.27908 3.9534 4.25743 3.9534Z" fill="white"/>
<path d="M15.0457 10.1941C14.3582 10.5379 13.5914 10.7494 12.7717 10.7494C11.7669 10.7494 10.815 10.4585 10.0218 9.92969H7.00736C6.2141 10.4585 5.26219 10.7494 4.2574 10.7494C3.4377 10.7494 2.67088 10.5643 1.98339 10.1941C1.37522 10.5379 0.952148 11.2253 0.952148 11.9657V18.4176C0.952148 19.6075 1.9305 20.5594 3.09395 20.5594H13.9616C15.1515 20.5594 16.1034 19.581 16.1034 18.4176V11.9657C16.077 11.2253 15.6539 10.5379 15.0457 10.1941Z" fill="white"/>
<path d="M12.7718 9.95573C15.1251 9.95573 17.029 8.0519 17.029 5.69857C17.029 3.34523 15.1251 1.44141 12.7718 1.44141C10.4185 1.44141 8.51465 3.34523 8.51465 5.69857C8.51465 8.0519 10.4185 9.95573 12.7718 9.95573ZM12.7718 3.9534C13.7502 3.9534 14.517 4.74666 14.517 5.69857C14.517 6.67692 13.7237 7.44374 12.7718 7.44374C11.8199 7.44374 11.0266 6.65048 11.0266 5.69857C11.0266 4.72021 11.7935 3.9534 12.7718 3.9534Z" fill="white"/>
</g>
<defs>
<clipPath id="clip0_1909_12870">
<rect width="22" height="22" fill="white"/>
</clipPath>
</defs>
</svg>
