<svg width="24" height="24" viewBox="0 0 24 24" fill="none" xmlns="http://www.w3.org/2000/svg">
<g clip-path="url(#clip0_2003_4960)">
<path d="M13.5844 9.38437H11.2734V7.07344C11.2734 6.54375 10.8469 6.11719 10.3172 6.11719C9.7875 6.11719 9.36094 6.54375 9.36094 7.07344V9.38437H7.05C6.52031 9.38437 6.09375 9.81094 6.09375 10.3406C6.09375 10.8703 6.52031 11.2969 7.05 11.2969H9.36094V13.6078C9.36094 14.1375 9.7875 14.5641 10.3172 14.5641C10.8469 14.5641 11.2734 14.1375 11.2734 13.6078V11.2969H13.5844C14.1141 11.2969 14.5406 10.8703 14.5406 10.3406C14.5406 9.81094 14.1094 9.38437 13.5844 9.38437Z" fill="#be8d28" style="fill:#be8d28;fill:#be8d28;fill-opacity:1;"/>
<path d="M10.3219 18.2211C5.96719 18.2211 2.4375 14.6961 2.4375 10.3414C2.4375 5.98672 5.96719 2.46172 10.3219 2.46172C14.6766 2.46172 18.2016 5.99141 18.2016 10.3414C18.2016 14.6914 14.6719 18.2211 10.3219 18.2211ZM23.2031 21.8773L17.8922 16.5664C19.2844 14.8742 20.1234 12.7039 20.1234 10.3414C20.1234 4.92734 15.7359 0.535156 10.3172 0.535156C4.89844 0.535156 0.515625 4.92734 0.515625 10.3414C0.515625 15.7555 4.90312 20.1477 10.3219 20.1477C12.6844 20.1477 14.85 19.3133 16.5422 17.9211L21.8531 23.232C22.0969 23.4805 22.8422 23.6023 23.2078 23.232C23.5781 22.857 23.5781 22.2523 23.2031 21.8773Z" fill="#be8d28" style="fill:#be8d28;fill:#be8d28;fill-opacity:1;"/>
</g>
<defs>
<clipPath id="clip0_2003_4960">
<rect width="24" height="24" fill="white" style="fill:white;fill-opacity:1;"/>
</clipPath>
</defs>
</svg>
