<svg width="400" height="400" viewBox="0 0 400 400" fill="none" xmlns="http://www.w3.org/2000/svg">
<path d="M200 143.667C186.402 143.667 173.669 146.138 161.801 151.079C149.934 156.268 139.55 163.187 130.649 171.835C121.748 180.483 114.702 190.614 109.51 202.227C104.318 213.841 101.722 226.195 101.722 239.291C101.722 252.634 104.318 265.112 109.51 276.726C114.702 288.339 121.748 298.47 130.649 307.118C139.55 315.766 149.934 322.561 161.801 327.503C173.669 332.692 186.402 335.286 200 335.286C213.598 335.286 226.331 332.692 238.199 327.503C250.066 322.561 260.45 315.766 269.351 307.118C278.252 298.47 285.174 288.339 290.119 276.726C295.311 265.112 297.907 252.634 297.907 239.291C297.907 226.195 295.311 213.841 290.119 202.227C285.174 190.614 278.252 180.483 269.351 171.835C260.45 163.187 250.066 156.268 238.199 151.079C226.331 146.138 213.598 143.667 200 143.667ZM200 129.582C215.329 129.582 229.792 132.548 243.391 138.478C257.236 144.161 269.227 151.944 279.364 161.828C289.501 171.712 297.413 183.325 303.099 196.668C309.033 210.011 312 224.219 312 239.291C312 254.611 309.033 268.942 303.099 282.285C297.413 295.381 289.501 306.994 279.364 317.125C269.227 327.009 257.236 334.792 243.391 340.475C229.792 346.158 215.329 349 200 349C184.424 349 169.837 346.158 156.238 340.475C142.64 334.792 130.773 327.009 120.636 317.125C110.499 306.994 102.464 295.381 96.5298 282.285C90.8433 268.942 88 254.611 88 239.291C88 224.219 90.8433 210.011 96.5298 196.668C102.464 183.325 110.499 171.712 120.636 161.828C130.773 151.944 142.64 144.161 156.238 138.478C169.837 132.548 184.424 129.582 200 129.582ZM233.377 41C233.872 41 234.366 41.1235 234.861 41.3706C235.355 41.6177 235.726 41.8648 235.974 42.1119L250.808 55.8255C251.55 56.3197 251.921 57.061 251.921 58.0493C252.168 59.0377 251.921 59.779 251.179 60.2732L201.854 113.274C201.607 113.521 201.236 113.769 200.742 114.016C200.247 114.263 199.629 114.386 198.887 114.386C198.393 114.386 197.898 114.263 197.404 114.016C196.909 113.769 196.539 113.521 196.291 113.274L148.45 60.2732C148.203 60.0261 147.956 59.779 147.709 59.5319C147.709 59.0377 147.709 58.5435 147.709 58.0493C147.709 57.8022 147.709 57.4316 147.709 56.9374C147.956 56.4432 148.327 56.0726 148.821 55.8255L162.914 42.1119C163.161 41.8648 163.532 41.6177 164.026 41.3706C164.521 41.1235 165.015 41 165.51 41H233.377ZM254.146 102.155V102.526L266.384 113.645L231.894 145.89L219.656 134.401L254.146 102.155ZM133.616 113.645L145.854 102.155L180.344 134.401L168.106 145.89L133.616 113.645Z" fill="#be8d28"/>
</svg>
